<?xml version="1.0" encoding="UTF-8" standalone="no"?>
<!DOCTYPE svg PUBLIC "-//W3C//DTD SVG 1.1//EN"
 "http://www.w3.org/Graphics/SVG/1.1/DTD/svg11.dtd">
<!-- Generated by graphviz version 2.31.20130601.0447 (20130601.0447)
 -->
<!-- Title: Sources/getnum.h Pages: 1 -->
<svg width="226pt" height="84pt"
 viewBox="0.00 0.00 226.00 84.00" xmlns="http://www.w3.org/2000/svg" xmlns:xlink="http://www.w3.org/1999/xlink">
<g id="graph0" class="graph" transform="scale(1 1) rotate(0) translate(4 80)">
<title>Sources/getnum.h</title>
<!-- Node1 -->
<g id="node1" class="node"><title>Node1</title>
<polygon fill="#bfbfbf" stroke="black" points="63,-56.5 63,-75.5 159,-75.5 159,-56.5 63,-56.5"/>
<text text-anchor="middle" x="111" y="-63.5" font-family="Helvetica,sans-Serif" font-size="10.00">Sources/getnum.h</text>
</g>
<!-- Node2 -->
<g id="node2" class="node"><title>Node2</title>
<g id="a_node2"><a xlink:href="../../df/d49/_front_end_8c.html" target="_top" xlink:title="Sources/FrontEnd.c">
<polygon fill="none" stroke="black" points="0,-0.5 0,-19.5 104,-19.5 104,-0.5 0,-0.5"/>
<text text-anchor="middle" x="52" y="-7.5" font-family="Helvetica,sans-Serif" font-size="10.00">Sources/FrontEnd.c</text>
</a>
</g>
</g>
<!-- Node1&#45;&gt;Node2 -->
<g id="edge1" class="edge"><title>Node1&#45;&gt;Node2</title>
<path fill="none" stroke="midnightblue" d="M94.1055,-49.5372C83.5855,-39.9087 70.4313,-27.8694 61.6519,-19.8339"/>
<polygon fill="midnightblue" stroke="midnightblue" points="91.7808,-52.1542 101.521,-56.324 96.5069,-46.9905 91.7808,-52.1542"/>
</g>
<!-- Node3 -->
<g id="node3" class="node"><title>Node3</title>
<g id="a_node3"><a xlink:href="../../d4/d3f/getnum_8c.html" target="_top" xlink:title="Sources/getnum.c">
<polygon fill="none" stroke="black" points="122,-0.5 122,-19.5 218,-19.5 218,-0.5 122,-0.5"/>
<text text-anchor="middle" x="170" y="-7.5" font-family="Helvetica,sans-Serif" font-size="10.00">Sources/getnum.c</text>
</a>
</g>
</g>
<!-- Node1&#45;&gt;Node3 -->
<g id="edge2" class="edge"><title>Node1&#45;&gt;Node3</title>
<path fill="none" stroke="midnightblue" d="M127.895,-49.5372C138.415,-39.9087 151.569,-27.8694 160.348,-19.8339"/>
<polygon fill="midnightblue" stroke="midnightblue" points="125.493,-46.9905 120.479,-56.324 130.219,-52.1542 125.493,-46.9905"/>
</g>
</g>
</svg>
