<?xml version="1.0" encoding="UTF-8" standalone="no"?>
<!DOCTYPE svg PUBLIC "-//W3C//DTD SVG 1.1//EN"
 "http://www.w3.org/Graphics/SVG/1.1/DTD/svg11.dtd">
<!-- Generated by graphviz version 2.31.20130601.0447 (20130601.0447)
 -->
<!-- Title: Sources/tilesBack.h Pages: 1 -->
<svg width="272pt" height="140pt"
 viewBox="0.00 0.00 272.00 140.00" xmlns="http://www.w3.org/2000/svg" xmlns:xlink="http://www.w3.org/1999/xlink">
<g id="graph0" class="graph" transform="scale(1 1) rotate(0) translate(4 136)">
<title>Sources/tilesBack.h</title>
<!-- Node1 -->
<g id="node1" class="node"><title>Node1</title>
<polygon fill="#bfbfbf" stroke="black" points="80,-112.5 80,-131.5 184,-131.5 184,-112.5 80,-112.5"/>
<text text-anchor="middle" x="132" y="-119.5" font-family="Helvetica,sans-Serif" font-size="10.00">Sources/tilesBack.h</text>
</g>
<!-- Node2 -->
<g id="node2" class="node"><title>Node2</title>
<g id="a_node2"><a xlink:href="../../d0/d58/_back_end_8c.html" target="_top" xlink:title="Sources/BackEnd.c">
<polygon fill="none" stroke="black" points="0,-56.5 0,-75.5 104,-75.5 104,-56.5 0,-56.5"/>
<text text-anchor="middle" x="52" y="-63.5" font-family="Helvetica,sans-Serif" font-size="10.00">Sources/BackEnd.c</text>
</a>
</g>
</g>
<!-- Node1&#45;&gt;Node2 -->
<g id="edge1" class="edge"><title>Node1&#45;&gt;Node2</title>
<path fill="none" stroke="midnightblue" d="M110.699,-106.622C96.085,-96.7574 77.1732,-83.9919 64.8215,-75.6545"/>
<polygon fill="midnightblue" stroke="midnightblue" points="108.9,-109.63 119.147,-112.324 112.816,-103.828 108.9,-109.63"/>
</g>
<!-- Node3 -->
<g id="node3" class="node"><title>Node3</title>
<g id="a_node3"><a xlink:href="../../df/d49/_front_end_8c.html" target="_top" xlink:title="Sources/FrontEnd.c">
<polygon fill="none" stroke="black" points="120,-0.5 120,-19.5 224,-19.5 224,-0.5 120,-0.5"/>
<text text-anchor="middle" x="172" y="-7.5" font-family="Helvetica,sans-Serif" font-size="10.00">Sources/FrontEnd.c</text>
</a>
</g>
</g>
<!-- Node1&#45;&gt;Node3 -->
<g id="edge2" class="edge"><title>Node1&#45;&gt;Node3</title>
<path fill="none" stroke="midnightblue" d="M136.545,-102.72C140.01,-89.5582 145.168,-71.4704 151,-56 155.866,-43.0926 162.853,-28.7413 167.408,-19.793"/>
<polygon fill="midnightblue" stroke="midnightblue" points="133.143,-101.895 134.056,-112.451 139.925,-103.631 133.143,-101.895"/>
</g>
<!-- Node4 -->
<g id="node4" class="node"><title>Node4</title>
<g id="a_node4"><a xlink:href="../../d5/dd8/tiles_front_8h.html" target="_top" xlink:title="Sources/tilesFront.h">
<polygon fill="none" stroke="black" points="160,-56.5 160,-75.5 264,-75.5 264,-56.5 160,-56.5"/>
<text text-anchor="middle" x="212" y="-63.5" font-family="Helvetica,sans-Serif" font-size="10.00">Sources/tilesFront.h</text>
</a>
</g>
</g>
<!-- Node1&#45;&gt;Node4 -->
<g id="edge3" class="edge"><title>Node1&#45;&gt;Node4</title>
<path fill="none" stroke="midnightblue" d="M153.301,-106.622C167.915,-96.7574 186.827,-83.9919 199.179,-75.6545"/>
<polygon fill="midnightblue" stroke="midnightblue" points="151.184,-103.828 144.853,-112.324 155.1,-109.63 151.184,-103.828"/>
</g>
<!-- Node4&#45;&gt;Node3 -->
<g id="edge4" class="edge"><title>Node4&#45;&gt;Node3</title>
<path fill="none" stroke="midnightblue" d="M199.3,-47.8554C192.374,-38.5048 184.094,-27.3265 178.482,-19.7511"/>
<polygon fill="midnightblue" stroke="midnightblue" points="196.63,-50.1307 205.395,-56.083 202.255,-45.9641 196.63,-50.1307"/>
</g>
</g>
</svg>
