<?xml version="1.0" encoding="UTF-8" standalone="no"?>
<!DOCTYPE svg PUBLIC "-//W3C//DTD SVG 1.1//EN"
 "http://www.w3.org/Graphics/SVG/1.1/DTD/svg11.dtd">
<!-- Generated by graphviz version 2.31.20130601.0447 (20130601.0447)
 -->
<!-- Title: main Pages: 1 -->
<svg width="588pt" height="1143pt"
 viewBox="0.00 0.00 588.00 1143.28" xmlns="http://www.w3.org/2000/svg" xmlns:xlink="http://www.w3.org/1999/xlink">
<g id="graph0" class="graph" transform="scale(1 1) rotate(0) translate(4 1139.28)">
<title>main</title>
<polygon fill="white" stroke="white" points="-4,5 -4,-1139.28 585,-1139.28 585,5 -4,5"/>
<!-- Node1 -->
<g id="node1" class="node"><title>Node1</title>
<polygon fill="#bfbfbf" stroke="black" points="0,-796.5 0,-815.5 38,-815.5 38,-796.5 0,-796.5"/>
<text text-anchor="middle" x="19" y="-803.5" font-family="Helvetica,sans-Serif" font-size="10.00">main</text>
</g>
<!-- Node2 -->
<g id="node2" class="node"><title>Node2</title>
<g id="a_node2"><a xlink:href="../../d0/d58/_back_end_8c.html#ac5da14380ebbd7eb58146932f909ec19" target="_top" xlink:title="cambiarColor">
<polygon fill="white" stroke="black" points="506,-1005.5 506,-1024.5 580,-1024.5 580,-1005.5 506,-1005.5"/>
<text text-anchor="middle" x="543" y="-1012.5" font-family="Helvetica,sans-Serif" font-size="10.00">cambiarColor</text>
</a>
</g>
</g>
<!-- Node1&#45;&gt;Node2 -->
<g id="edge1" class="edge"><title>Node1&#45;&gt;Node2</title>
<path fill="none" stroke="midnightblue" d="M20.6693,-815.544C23.1278,-844.891 33.7396,-935.466 74,-996 119.358,-1064.2 140.701,-1083.92 218,-1111 324.034,-1148.14 370.359,-1142.91 470,-1091 495.943,-1077.48 517.724,-1050.92 530.322,-1033.06"/>
<polygon fill="midnightblue" stroke="midnightblue" points="533.325,-1034.87 536.046,-1024.63 527.534,-1030.94 533.325,-1034.87"/>
</g>
<!-- Node3 -->
<g id="node3" class="node"><title>Node3</title>
<g id="a_node3"><a xlink:href="../../df/d49/_front_end_8c.html#aab334a05bc64bef008da24cca3fd83f2" target="_top" xlink:title="Menu">
<polygon fill="white" stroke="black" points="107.5,-967.5 107.5,-986.5 148.5,-986.5 148.5,-967.5 107.5,-967.5"/>
<text text-anchor="middle" x="128" y="-974.5" font-family="Helvetica,sans-Serif" font-size="10.00">Menu</text>
</a>
</g>
</g>
<!-- Node1&#45;&gt;Node3 -->
<g id="edge2" class="edge"><title>Node1&#45;&gt;Node3</title>
<path fill="none" stroke="midnightblue" d="M22.375,-815.818C28.2004,-838.436 44.8854,-895.237 74,-934 81.9254,-944.552 92.9865,-954.061 102.955,-961.438"/>
<polygon fill="midnightblue" stroke="midnightblue" points="101.138,-964.44 111.327,-967.344 105.173,-958.72 101.138,-964.44"/>
</g>
<!-- Node10 -->
<g id="node10" class="node"><title>Node10</title>
<g id="a_node10"><a xlink:href="../../d0/d58/_back_end_8c.html#a4a69eef058d359d77e17632b3e41807e" target="_top" xlink:title="generarTableroNull">
<polygon fill="white" stroke="black" points="372,-948.5 372,-967.5 470,-967.5 470,-948.5 372,-948.5"/>
<text text-anchor="middle" x="421" y="-955.5" font-family="Helvetica,sans-Serif" font-size="10.00">generarTableroNull</text>
</a>
</g>
</g>
<!-- Node1&#45;&gt;Node10 -->
<g id="edge15" class="edge"><title>Node1&#45;&gt;Node10</title>
<path fill="none" stroke="midnightblue" d="M32.7761,-815.587C43.393,-823.227 59.1157,-833.799 74,-841 175.803,-890.249 303.688,-927.662 371.905,-945.829"/>
<polygon fill="midnightblue" stroke="midnightblue" points="371.366,-949.306 381.928,-948.473 373.152,-942.538 371.366,-949.306"/>
</g>
<!-- Node11 -->
<g id="node11" class="node"><title>Node11</title>
<g id="a_node11"><a xlink:href="../../df/d49/_front_end_8c.html#ade56234c677e9f2fddee149cda63a52b" target="_top" xlink:title="printerror">
<polygon fill="white" stroke="black" points="393.5,-777.5 393.5,-796.5 448.5,-796.5 448.5,-777.5 393.5,-777.5"/>
<text text-anchor="middle" x="421" y="-784.5" font-family="Helvetica,sans-Serif" font-size="10.00">printerror</text>
</a>
</g>
</g>
<!-- Node1&#45;&gt;Node11 -->
<g id="edge14" class="edge"><title>Node1&#45;&gt;Node11</title>
<path fill="none" stroke="midnightblue" d="M38.2266,-805.134C99.7113,-802.214 300.271,-792.687 383.397,-788.739"/>
<polygon fill="midnightblue" stroke="midnightblue" points="383.575,-792.234 393.398,-788.264 383.243,-785.242 383.575,-792.234"/>
</g>
<!-- Node13 -->
<g id="node13" class="node"><title>Node13</title>
<g id="a_node13"><a xlink:href="../../d0/d58/_back_end_8c.html#a37a5c44c29c5bb93cba21bea04d67cf3" target="_top" xlink:title="Crear_Nivel">
<polygon fill="white" stroke="black" points="94,-265.5 94,-284.5 162,-284.5 162,-265.5 94,-265.5"/>
<text text-anchor="middle" x="128" y="-272.5" font-family="Helvetica,sans-Serif" font-size="10.00">Crear_Nivel</text>
</a>
</g>
</g>
<!-- Node1&#45;&gt;Node13 -->
<g id="edge16" class="edge"><title>Node1&#45;&gt;Node13</title>
<path fill="none" stroke="midnightblue" d="M21.3,-796.433C26.6757,-757.337 48.1054,-605.952 74,-483 88.6853,-413.272 111.003,-331.661 121.357,-294.822"/>
<polygon fill="midnightblue" stroke="midnightblue" points="124.813,-295.464 124.165,-284.889 118.077,-293.56 124.813,-295.464"/>
</g>
<!-- Node18 -->
<g id="node18" class="node"><title>Node18</title>
<g id="a_node18"><a xlink:href="../../df/d49/_front_end_8c.html#a330ec1027100b0b1f0829b22ee5a5415" target="_top" xlink:title="GuardarMATBitacora">
<polygon fill="white" stroke="black" points="74,-227.5 74,-246.5 182,-246.5 182,-227.5 74,-227.5"/>
<text text-anchor="middle" x="128" y="-234.5" font-family="Helvetica,sans-Serif" font-size="10.00">GuardarMATBitacora</text>
</a>
</g>
</g>
<!-- Node1&#45;&gt;Node18 -->
<g id="edge21" class="edge"><title>Node1&#45;&gt;Node18</title>
<path fill="none" stroke="midnightblue" d="M20.3308,-796.402C22.8098,-726.76 39.341,-300.453 74,-256 74.9391,-254.796 75.961,-253.667 77.0521,-252.61"/>
<polygon fill="midnightblue" stroke="midnightblue" points="79.1735,-255.395 85.1132,-246.621 74.9988,-249.776 79.1735,-255.395"/>
</g>
<!-- Node19 -->
<g id="node19" class="node"><title>Node19</title>
<g id="a_node19"><a xlink:href="../../df/d49/_front_end_8c.html#aa9153d7104d4019dd7aaf1e8a5718445" target="_top" xlink:title="imprimirEstado">
<polygon fill="white" stroke="black" points="87,-189.5 87,-208.5 169,-208.5 169,-189.5 87,-189.5"/>
<text text-anchor="middle" x="128" y="-196.5" font-family="Helvetica,sans-Serif" font-size="10.00">imprimirEstado</text>
</a>
</g>
</g>
<!-- Node1&#45;&gt;Node19 -->
<g id="edge22" class="edge"><title>Node1&#45;&gt;Node19</title>
<path fill="none" stroke="midnightblue" d="M20.2723,-796.21C22.3827,-723.24 37.0396,-265.714 74,-218 75.2795,-216.348 76.7148,-214.84 78.271,-213.462"/>
<polygon fill="midnightblue" stroke="midnightblue" points="80.588,-216.12 86.8977,-207.609 76.6576,-210.328 80.588,-216.12"/>
</g>
<!-- Node20 -->
<g id="node20" class="node"><title>Node20</title>
<g id="a_node20"><a xlink:href="../../df/d49/_front_end_8c.html#a9ef75758f3b47f3c2639f7bb586d0375" target="_top" xlink:title="imprimeTablero">
<polygon fill="white" stroke="black" points="235.5,-834.5 235.5,-853.5 318.5,-853.5 318.5,-834.5 235.5,-834.5"/>
<text text-anchor="middle" x="277" y="-841.5" font-family="Helvetica,sans-Serif" font-size="10.00">imprimeTablero</text>
</a>
</g>
</g>
<!-- Node1&#45;&gt;Node20 -->
<g id="edge23" class="edge"><title>Node1&#45;&gt;Node20</title>
<path fill="none" stroke="midnightblue" d="M38.355,-811.419C48.7386,-814.317 62.0074,-817.744 74,-820 125.033,-829.601 184.083,-836.091 225.104,-839.876"/>
<polygon fill="midnightblue" stroke="midnightblue" points="224.855,-843.367 235.129,-840.78 225.483,-836.396 224.855,-843.367"/>
</g>
<!-- Node22 -->
<g id="node22" class="node"><title>Node22</title>
<g id="a_node22"><a xlink:href="../../df/d49/_front_end_8c.html#ab336c463d2464cd3ca4bb0f653e93efd" target="_top" xlink:title="AccionesDeJuego">
<polygon fill="white" stroke="black" points="80,-492.5 80,-511.5 176,-511.5 176,-492.5 80,-492.5"/>
<text text-anchor="middle" x="128" y="-499.5" font-family="Helvetica,sans-Serif" font-size="10.00">AccionesDeJuego</text>
</a>
</g>
</g>
<!-- Node1&#45;&gt;Node22 -->
<g id="edge26" class="edge"><title>Node1&#45;&gt;Node22</title>
<path fill="none" stroke="midnightblue" d="M23.4389,-796.23C38.6263,-753.081 99.8393,-579.167 120.301,-521.032"/>
<polygon fill="midnightblue" stroke="midnightblue" points="123.609,-522.177 123.627,-511.582 117.006,-519.853 123.609,-522.177"/>
</g>
<!-- Node4 -->
<g id="node4" class="node"><title>Node4</title>
<g id="a_node4"><a xlink:href="../../d4/d3f/getnum_8c.html#a2ceea39e7e1a07e7e4e0f1da5224b36e" target="_top" xlink:title="getint">
<polygon fill="white" stroke="black" points="400.5,-1062.5 400.5,-1081.5 441.5,-1081.5 441.5,-1062.5 400.5,-1062.5"/>
<text text-anchor="middle" x="421" y="-1069.5" font-family="Helvetica,sans-Serif" font-size="10.00">getint</text>
</a>
</g>
</g>
<!-- Node3&#45;&gt;Node4 -->
<g id="edge3" class="edge"><title>Node3&#45;&gt;Node4</title>
<path fill="none" stroke="midnightblue" d="M132.974,-986.761C143.069,-1010.06 172.192,-1068.65 218,-1091 274.324,-1118.48 349.93,-1098.59 390.809,-1083.89"/>
<polygon fill="midnightblue" stroke="midnightblue" points="392.279,-1087.08 400.421,-1080.3 389.829,-1080.52 392.279,-1087.08"/>
</g>
<!-- Node5 -->
<g id="node5" class="node"><title>Node5</title>
<g id="a_node5"><a xlink:href="../../df/d49/_front_end_8c.html#adf030e2911563c8b12da80699b53277d" target="_top" xlink:title="PedidoDimenciones">
<polygon fill="white" stroke="black" points="225,-1062.5 225,-1081.5 329,-1081.5 329,-1062.5 225,-1062.5"/>
<text text-anchor="middle" x="277" y="-1069.5" font-family="Helvetica,sans-Serif" font-size="10.00">PedidoDimenciones</text>
</a>
</g>
</g>
<!-- Node3&#45;&gt;Node5 -->
<g id="edge4" class="edge"><title>Node3&#45;&gt;Node5</title>
<path fill="none" stroke="midnightblue" d="M137.691,-986.533C152.652,-1002.42 184.871,-1034.4 218,-1053 221.742,-1055.1 225.751,-1057.01 229.85,-1058.74"/>
<polygon fill="midnightblue" stroke="midnightblue" points="228.902,-1062.13 239.492,-1062.45 231.416,-1055.6 228.902,-1062.13"/>
</g>
<!-- Node6 -->
<g id="node6" class="node"><title>Node6</title>
<g id="a_node6"><a xlink:href="../../df/d49/_front_end_8c.html#a767a1e350b410fc29bc0fc90012f1be9" target="_top" xlink:title="PedidoNivel">
<polygon fill="white" stroke="black" points="242.5,-1024.5 242.5,-1043.5 311.5,-1043.5 311.5,-1024.5 242.5,-1024.5"/>
<text text-anchor="middle" x="277" y="-1031.5" font-family="Helvetica,sans-Serif" font-size="10.00">PedidoNivel</text>
</a>
</g>
</g>
<!-- Node3&#45;&gt;Node6 -->
<g id="edge6" class="edge"><title>Node3&#45;&gt;Node6</title>
<path fill="none" stroke="midnightblue" d="M148.596,-985.949C166.497,-993.985 193.786,-1005.88 218,-1015 223.59,-1017.1 229.531,-1019.2 235.397,-1021.2"/>
<polygon fill="midnightblue" stroke="midnightblue" points="234.53,-1024.6 245.123,-1024.44 236.741,-1017.96 234.53,-1024.6"/>
</g>
<!-- Node7 -->
<g id="node7" class="node"><title>Node7</title>
<g id="a_node7"><a xlink:href="../../df/d49/_front_end_8c.html#a34256005c9f46eff46dddfaf74a73427" target="_top" xlink:title="PedirNombreValido">
<polygon fill="white" stroke="black" points="226.5,-720.5 226.5,-739.5 327.5,-739.5 327.5,-720.5 226.5,-720.5"/>
<text text-anchor="middle" x="277" y="-727.5" font-family="Helvetica,sans-Serif" font-size="10.00">PedirNombreValido</text>
</a>
</g>
</g>
<!-- Node3&#45;&gt;Node7 -->
<g id="edge8" class="edge"><title>Node3&#45;&gt;Node7</title>
<path fill="none" stroke="midnightblue" d="M129.903,-967.149C133.641,-932.129 151.012,-812.364 218,-749 219.657,-747.432 221.446,-745.994 223.333,-744.674"/>
<polygon fill="midnightblue" stroke="midnightblue" points="225.203,-747.636 232.125,-739.614 221.712,-741.569 225.203,-747.636"/>
</g>
<!-- Node9 -->
<g id="node9" class="node"><title>Node9</title>
<g id="a_node9"><a xlink:href="../../df/d49/_front_end_8c.html#a4e81936deabcba0a90039b3d8fd54a27" target="_top" xlink:title="load">
<polygon fill="white" stroke="black" points="259.5,-986.5 259.5,-1005.5 294.5,-1005.5 294.5,-986.5 259.5,-986.5"/>
<text text-anchor="middle" x="277" y="-993.5" font-family="Helvetica,sans-Serif" font-size="10.00">load</text>
</a>
</g>
</g>
<!-- Node3&#45;&gt;Node9 -->
<g id="edge10" class="edge"><title>Node3&#45;&gt;Node9</title>
<path fill="none" stroke="midnightblue" d="M148.52,-979.523C174.282,-982.853 219.762,-988.731 248.86,-992.492"/>
<polygon fill="midnightblue" stroke="midnightblue" points="248.769,-996.009 259.135,-993.82 249.666,-989.067 248.769,-996.009"/>
</g>
<!-- Node3&#45;&gt;Node11 -->
<g id="edge12" class="edge"><title>Node3&#45;&gt;Node11</title>
<path fill="none" stroke="midnightblue" d="M148.725,-968.038C186.614,-950.421 271.529,-908.97 336,-863 361.32,-844.946 387.409,-820.199 403.657,-803.916"/>
<polygon fill="midnightblue" stroke="midnightblue" points="406.272,-806.249 410.796,-796.668 401.285,-801.336 406.272,-806.249"/>
</g>
<!-- Node12 -->
<g id="node12" class="node"><title>Node12</title>
<g id="a_node12"><a xlink:href="../../df/d49/_front_end_8c.html#a1122e9d0c8a9c1c2fd33acf80cb51e44" target="_top" xlink:title="instrucciones">
<polygon fill="white" stroke="black" points="240,-948.5 240,-967.5 314,-967.5 314,-948.5 240,-948.5"/>
<text text-anchor="middle" x="277" y="-955.5" font-family="Helvetica,sans-Serif" font-size="10.00">instrucciones</text>
</a>
</g>
</g>
<!-- Node3&#45;&gt;Node12 -->
<g id="edge13" class="edge"><title>Node3&#45;&gt;Node12</title>
<path fill="none" stroke="midnightblue" d="M148.52,-974.477C169.088,-971.819 202.225,-967.536 229.559,-964.003"/>
<polygon fill="midnightblue" stroke="midnightblue" points="230.243,-967.443 239.712,-962.69 229.346,-960.501 230.243,-967.443"/>
</g>
<!-- Node5&#45;&gt;Node4 -->
<g id="edge5" class="edge"><title>Node5&#45;&gt;Node4</title>
<path fill="none" stroke="midnightblue" d="M329.265,-1072C349.659,-1072 372.413,-1072 390.034,-1072"/>
<polygon fill="midnightblue" stroke="midnightblue" points="390.274,-1075.5 400.274,-1072 390.274,-1068.5 390.274,-1075.5"/>
</g>
<!-- Node6&#45;&gt;Node4 -->
<g id="edge7" class="edge"><title>Node6&#45;&gt;Node4</title>
<path fill="none" stroke="midnightblue" d="M311.652,-1043.01C335.549,-1049.4 367.337,-1057.91 390.295,-1064.05"/>
<polygon fill="midnightblue" stroke="midnightblue" points="389.597,-1067.49 400.162,-1066.69 391.407,-1060.73 389.597,-1067.49"/>
</g>
<!-- Node8 -->
<g id="node8" class="node"><title>Node8</title>
<g id="a_node8"><a xlink:href="../../df/d49/_front_end_8c.html#a639b04a4f1cdc236e6d0ffbd51db0c95" target="_top" xlink:title="validFileName">
<polygon fill="white" stroke="black" points="381.5,-663.5 381.5,-682.5 460.5,-682.5 460.5,-663.5 381.5,-663.5"/>
<text text-anchor="middle" x="421" y="-670.5" font-family="Helvetica,sans-Serif" font-size="10.00">validFileName</text>
</a>
</g>
</g>
<!-- Node7&#45;&gt;Node8 -->
<g id="edge9" class="edge"><title>Node7&#45;&gt;Node8</title>
<path fill="none" stroke="midnightblue" d="M301.768,-720.459C325.011,-711.13 360.613,-696.838 386.678,-686.376"/>
<polygon fill="midnightblue" stroke="midnightblue" points="388.178,-689.545 396.155,-682.572 385.571,-683.049 388.178,-689.545"/>
</g>
<!-- Node9&#45;&gt;Node10 -->
<g id="edge11" class="edge"><title>Node9&#45;&gt;Node10</title>
<path fill="none" stroke="midnightblue" d="M294.567,-991.567C314.049,-986.353 347.197,-977.482 374.525,-970.169"/>
<polygon fill="midnightblue" stroke="midnightblue" points="375.539,-973.521 384.294,-967.555 373.729,-966.759 375.539,-973.521"/>
</g>
<!-- Node14 -->
<g id="node14" class="node"><title>Node14</title>
<g id="a_node14"><a xlink:href="../../d0/d58/_back_end_8c.html#a6d4a41e7bc5f6048526fe21ad6517815" target="_top" xlink:title="bonus">
<polygon fill="white" stroke="black" points="255.5,-76.5 255.5,-95.5 298.5,-95.5 298.5,-76.5 255.5,-76.5"/>
<text text-anchor="middle" x="277" y="-83.5" font-family="Helvetica,sans-Serif" font-size="10.00">bonus</text>
</a>
</g>
</g>
<!-- Node13&#45;&gt;Node14 -->
<g id="edge17" class="edge"><title>Node13&#45;&gt;Node14</title>
<path fill="none" stroke="midnightblue" d="M162.035,-268.772C169.473,-265.966 176.718,-261.898 182,-256 228.025,-204.603 171.269,-155.756 218,-105 225.085,-97.3053 235.329,-92.7197 245.243,-89.9895"/>
<polygon fill="midnightblue" stroke="midnightblue" points="246.301,-93.3403 255.309,-87.7636 244.789,-86.5055 246.301,-93.3403"/>
</g>
<!-- Node15 -->
<g id="node15" class="node"><title>Node15</title>
<g id="a_node15"><a xlink:href="../../d0/d58/_back_end_8c.html#a30d0a5aa94284ccfc8d3840f436edde7" target="_top" xlink:title="liberarMatriz">
<polygon fill="white" stroke="black" points="242,-38.5 242,-57.5 312,-57.5 312,-38.5 242,-38.5"/>
<text text-anchor="middle" x="277" y="-45.5" font-family="Helvetica,sans-Serif" font-size="10.00">liberarMatriz</text>
</a>
</g>
</g>
<!-- Node13&#45;&gt;Node15 -->
<g id="edge18" class="edge"><title>Node13&#45;&gt;Node15</title>
<path fill="none" stroke="midnightblue" d="M162.227,-268.939C169.659,-266.13 176.855,-262.018 182,-256 237.57,-191.008 161.537,-131.218 218,-67 221.944,-62.5139 226.964,-59.0823 232.394,-56.4582"/>
<polygon fill="midnightblue" stroke="midnightblue" points="233.776,-59.6757 241.804,-52.7608 231.216,-53.1607 233.776,-59.6757"/>
</g>
<!-- Node16 -->
<g id="node16" class="node"><title>Node16</title>
<g id="a_node16"><a xlink:href="../../d0/d58/_back_end_8c.html#a6d8e745b1bdf6f3ae9502cc947de72ac" target="_top" xlink:title="generarTablero">
<polygon fill="white" stroke="black" points="236.5,-0.5 236.5,-19.5 317.5,-19.5 317.5,-0.5 236.5,-0.5"/>
<text text-anchor="middle" x="277" y="-7.5" font-family="Helvetica,sans-Serif" font-size="10.00">generarTablero</text>
</a>
</g>
</g>
<!-- Node13&#45;&gt;Node16 -->
<g id="edge19" class="edge"><title>Node13&#45;&gt;Node16</title>
<path fill="none" stroke="midnightblue" d="M162.083,-269.153C169.61,-266.339 176.886,-262.172 182,-256 247.174,-177.343 151.745,-106.748 218,-29 220.631,-25.9127 223.772,-23.3238 227.212,-21.1534"/>
<polygon fill="midnightblue" stroke="midnightblue" points="228.916,-24.2138 236.257,-16.5746 225.754,-17.9684 228.916,-24.2138"/>
</g>
<!-- Node17 -->
<g id="node17" class="node"><title>Node17</title>
<g id="a_node17"><a xlink:href="../../d0/d58/_back_end_8c.html#a37f705505d292b616db1c978b42dcee1" target="_top" xlink:title="coloresPresentes">
<polygon fill="white" stroke="black" points="375,-0.5 375,-19.5 467,-19.5 467,-0.5 375,-0.5"/>
<text text-anchor="middle" x="421" y="-7.5" font-family="Helvetica,sans-Serif" font-size="10.00">coloresPresentes</text>
</a>
</g>
</g>
<!-- Node16&#45;&gt;Node17 -->
<g id="edge20" class="edge"><title>Node16&#45;&gt;Node17</title>
<path fill="none" stroke="midnightblue" d="M317.555,-10C332.163,-10 348.996,-10 364.742,-10"/>
<polygon fill="midnightblue" stroke="midnightblue" points="364.898,-13.5001 374.898,-10 364.898,-6.5001 364.898,-13.5001"/>
</g>
<!-- Node21 -->
<g id="node21" class="node"><title>Node21</title>
<g id="a_node21"><a xlink:href="../../df/d49/_front_end_8c.html#ad30237987566e160cc3530480d4514fc" target="_top" xlink:title="imprimirColor">
<polygon fill="white" stroke="black" points="384,-872.5 384,-891.5 458,-891.5 458,-872.5 384,-872.5"/>
<text text-anchor="middle" x="421" y="-879.5" font-family="Helvetica,sans-Serif" font-size="10.00">imprimirColor</text>
</a>
</g>
</g>
<!-- Node20&#45;&gt;Node21 -->
<g id="edge24" class="edge"><title>Node20&#45;&gt;Node21</title>
<path fill="none" stroke="midnightblue" d="M313.833,-853.589C332.163,-858.494 354.678,-864.52 374.25,-869.757"/>
<polygon fill="midnightblue" stroke="midnightblue" points="373.614,-873.21 384.179,-872.414 375.424,-866.448 373.614,-873.21"/>
</g>
<!-- Node21&#45;&gt;Node2 -->
<g id="edge25" class="edge"><title>Node21&#45;&gt;Node2</title>
<path fill="none" stroke="midnightblue" d="M430.63,-891.565C450.684,-913.791 500.666,-969.188 526.298,-997.597"/>
<polygon fill="midnightblue" stroke="midnightblue" points="523.827,-1000.08 533.124,-1005.16 529.024,-995.394 523.827,-1000.08"/>
</g>
<!-- Node22&#45;&gt;Node7 -->
<g id="edge48" class="edge"><title>Node22&#45;&gt;Node7</title>
<path fill="none" stroke="midnightblue" d="M130.554,-511.545C136.23,-543.475 158.699,-647.818 218,-706 221.987,-709.911 226.701,-713.219 231.693,-716.007"/>
<polygon fill="midnightblue" stroke="midnightblue" points="230.358,-719.249 240.88,-720.483 233.424,-712.956 230.358,-719.249"/>
</g>
<!-- Node22&#45;&gt;Node8 -->
<g id="edge43" class="edge"><title>Node22&#45;&gt;Node8</title>
<path fill="none" stroke="midnightblue" d="M141.656,-511.607C158.384,-523.945 189.122,-545.384 218,-559 267.835,-582.497 288.282,-569.457 336,-597 363.372,-612.799 389.48,-638.712 405.125,-655.814"/>
<polygon fill="midnightblue" stroke="midnightblue" points="402.65,-658.297 411.924,-663.42 407.868,-653.632 402.65,-658.297"/>
</g>
<!-- Node22&#45;&gt;Node11 -->
<g id="edge32" class="edge"><title>Node22&#45;&gt;Node11</title>
<path fill="none" stroke="midnightblue" d="M131.282,-511.77C138.57,-540.817 164.045,-627.441 218,-673 260.097,-708.546 288.282,-683.457 336,-711 363.372,-726.799 389.48,-752.712 405.125,-769.814"/>
<polygon fill="midnightblue" stroke="midnightblue" points="402.65,-772.297 411.924,-777.42 407.868,-767.632 402.65,-772.297"/>
</g>
<!-- Node22&#45;&gt;Node20 -->
<g id="edge58" class="edge"><title>Node22&#45;&gt;Node20</title>
<path fill="none" stroke="midnightblue" d="M130.258,-511.549C135.551,-549.15 158.55,-689.684 218,-787 227.688,-802.858 242.746,-817.478 255.092,-827.94"/>
<polygon fill="midnightblue" stroke="midnightblue" points="253.146,-830.87 263.106,-834.483 257.573,-825.447 253.146,-830.87"/>
</g>
<!-- Node23 -->
<g id="node23" class="node"><title>Node23</title>
<g id="a_node23"><a xlink:href="../../df/d49/_front_end_8c.html#a031f798e86eaa72898a0db976fc4566d" target="_top" xlink:title="inputString">
<polygon fill="white" stroke="black" points="245.5,-644.5 245.5,-663.5 308.5,-663.5 308.5,-644.5 245.5,-644.5"/>
<text text-anchor="middle" x="277" y="-651.5" font-family="Helvetica,sans-Serif" font-size="10.00">inputString</text>
</a>
</g>
</g>
<!-- Node22&#45;&gt;Node23 -->
<g id="edge27" class="edge"><title>Node22&#45;&gt;Node23</title>
<path fill="none" stroke="midnightblue" d="M132.786,-511.635C142.847,-536.001 172.618,-600.585 218,-635 223.208,-638.95 229.274,-642.099 235.482,-644.604"/>
<polygon fill="midnightblue" stroke="midnightblue" points="234.657,-648.024 245.251,-648.034 236.975,-641.419 234.657,-648.024"/>
</g>
<!-- Node24 -->
<g id="node24" class="node"><title>Node24</title>
<g id="a_node24"><a xlink:href="../../d0/d58/_back_end_8c.html#abb4221a879101cd2370d2d0acc92bf12" target="_top" xlink:title="igualacion">
<polygon fill="white" stroke="black" points="247,-606.5 247,-625.5 307,-625.5 307,-606.5 247,-606.5"/>
<text text-anchor="middle" x="277" y="-613.5" font-family="Helvetica,sans-Serif" font-size="10.00">igualacion</text>
</a>
</g>
</g>
<!-- Node22&#45;&gt;Node24 -->
<g id="edge28" class="edge"><title>Node22&#45;&gt;Node24</title>
<path fill="none" stroke="midnightblue" d="M136.34,-511.65C150.428,-529.609 182.981,-568.468 218,-592 223.895,-595.961 230.547,-599.461 237.189,-602.477"/>
<polygon fill="midnightblue" stroke="midnightblue" points="236.251,-605.88 246.824,-606.549 238.975,-599.432 236.251,-605.88"/>
</g>
<!-- Node25 -->
<g id="node25" class="node"><title>Node25</title>
<g id="a_node25"><a xlink:href="../../d0/d58/_back_end_8c.html#a434fb24763854229cc6eeced2e45b4bd" target="_top" xlink:title="eliminar">
<polygon fill="white" stroke="black" points="252,-530.5 252,-549.5 302,-549.5 302,-530.5 252,-530.5"/>
<text text-anchor="middle" x="277" y="-537.5" font-family="Helvetica,sans-Serif" font-size="10.00">eliminar</text>
</a>
</g>
</g>
<!-- Node22&#45;&gt;Node25 -->
<g id="edge29" class="edge"><title>Node22&#45;&gt;Node25</title>
<path fill="none" stroke="midnightblue" d="M166.094,-511.589C189.402,-517.614 219.243,-525.328 241.948,-531.197"/>
<polygon fill="midnightblue" stroke="midnightblue" points="241.271,-534.637 251.829,-533.752 243.023,-527.86 241.271,-534.637"/>
</g>
<!-- Node28 -->
<g id="node28" class="node"><title>Node28</title>
<g id="a_node28"><a xlink:href="../../d0/d58/_back_end_8c.html#a4567ed9e8cee6392fbb432ba9f36bc47" target="_top" xlink:title="martillazo">
<polygon fill="white" stroke="black" points="247.5,-492.5 247.5,-511.5 306.5,-511.5 306.5,-492.5 247.5,-492.5"/>
<text text-anchor="middle" x="277" y="-499.5" font-family="Helvetica,sans-Serif" font-size="10.00">martillazo</text>
</a>
</g>
</g>
<!-- Node22&#45;&gt;Node28 -->
<g id="edge33" class="edge"><title>Node22&#45;&gt;Node28</title>
<path fill="none" stroke="midnightblue" d="M176.321,-502C195.917,-502 218.369,-502 236.997,-502"/>
<polygon fill="midnightblue" stroke="midnightblue" points="237.19,-505.5 247.19,-502 237.19,-498.5 237.19,-505.5"/>
</g>
<!-- Node30 -->
<g id="node30" class="node"><title>Node30</title>
<g id="a_node30"><a xlink:href="../../d0/d58/_back_end_8c.html#a899f99bc3a99d14a7ff1029d4c7c5112" target="_top" xlink:title="columna">
<polygon fill="white" stroke="black" points="250.5,-436.5 250.5,-455.5 303.5,-455.5 303.5,-436.5 250.5,-436.5"/>
<text text-anchor="middle" x="277" y="-443.5" font-family="Helvetica,sans-Serif" font-size="10.00">columna</text>
</a>
</g>
</g>
<!-- Node22&#45;&gt;Node30 -->
<g id="edge35" class="edge"><title>Node22&#45;&gt;Node30</title>
<path fill="none" stroke="midnightblue" d="M154.27,-492.373C178.397,-483.182 214.936,-469.262 241.688,-459.071"/>
<polygon fill="midnightblue" stroke="midnightblue" points="242.961,-462.332 251.06,-455.501 240.469,-455.79 242.961,-462.332"/>
</g>
<!-- Node32 -->
<g id="node32" class="node"><title>Node32</title>
<g id="a_node32"><a xlink:href="../../d0/d58/_back_end_8c.html#a09a5d17b0315f47960b4c7228eb060f3" target="_top" xlink:title="hilera">
<polygon fill="white" stroke="black" points="257,-304.5 257,-323.5 297,-323.5 297,-304.5 257,-304.5"/>
<text text-anchor="middle" x="277" y="-311.5" font-family="Helvetica,sans-Serif" font-size="10.00">hilera</text>
</a>
</g>
</g>
<!-- Node22&#45;&gt;Node32 -->
<g id="edge39" class="edge"><title>Node22&#45;&gt;Node32</title>
<path fill="none" stroke="midnightblue" d="M132.877,-492.131C143.364,-466.393 174.463,-396.1 218,-351 226.574,-342.118 237.679,-334.377 247.874,-328.303"/>
<polygon fill="midnightblue" stroke="midnightblue" points="249.901,-331.178 256.882,-323.209 246.455,-325.085 249.901,-331.178"/>
</g>
<!-- Node34 -->
<g id="node34" class="node"><title>Node34</title>
<g id="a_node34"><a xlink:href="../../df/d49/_front_end_8c.html#a6323e80bca186d3d9839b6a470500a98" target="_top" xlink:title="save">
<polygon fill="white" stroke="black" points="258,-398.5 258,-417.5 296,-417.5 296,-398.5 258,-398.5"/>
<text text-anchor="middle" x="277" y="-405.5" font-family="Helvetica,sans-Serif" font-size="10.00">save</text>
</a>
</g>
</g>
<!-- Node22&#45;&gt;Node34 -->
<g id="edge44" class="edge"><title>Node22&#45;&gt;Node34</title>
<path fill="none" stroke="midnightblue" d="M137.96,-492.347C153.064,-476.597 185.17,-445.295 218,-427 227.274,-421.832 238.173,-417.799 248.005,-414.804"/>
<polygon fill="midnightblue" stroke="midnightblue" points="249.077,-418.138 257.751,-412.055 247.176,-411.401 249.077,-418.138"/>
</g>
<!-- Node35 -->
<g id="node35" class="node"><title>Node35</title>
<g id="a_node35"><a xlink:href="../../df/d49/_front_end_8c.html#ab10f46bf0cd9897c47a726d653728622" target="_top" xlink:title="compBit_File">
<polygon fill="white" stroke="black" points="240,-360.5 240,-379.5 314,-379.5 314,-360.5 240,-360.5"/>
<text text-anchor="middle" x="277" y="-367.5" font-family="Helvetica,sans-Serif" font-size="10.00">compBit_File</text>
</a>
</g>
</g>
<!-- Node22&#45;&gt;Node35 -->
<g id="edge45" class="edge"><title>Node22&#45;&gt;Node35</title>
<path fill="none" stroke="midnightblue" d="M134.037,-492.252C145.77,-470.489 177.066,-417.616 218,-389 221.765,-386.368 225.919,-384.082 230.222,-382.101"/>
<polygon fill="midnightblue" stroke="midnightblue" points="231.826,-385.228 239.785,-378.235 229.202,-378.738 231.826,-385.228"/>
</g>
<!-- Node36 -->
<g id="node36" class="node"><title>Node36</title>
<g id="a_node36"><a xlink:href="../../df/d49/_front_end_8c.html#a465ec56f1287c2830b732ebc5850b9df" target="_top" xlink:title="SaveBitacora">
<polygon fill="white" stroke="black" points="239.5,-758.5 239.5,-777.5 314.5,-777.5 314.5,-758.5 239.5,-758.5"/>
<text text-anchor="middle" x="277" y="-765.5" font-family="Helvetica,sans-Serif" font-size="10.00">SaveBitacora</text>
</a>
</g>
</g>
<!-- Node22&#45;&gt;Node36 -->
<g id="edge46" class="edge"><title>Node22&#45;&gt;Node36</title>
<path fill="none" stroke="midnightblue" d="M129.552,-511.629C132.168,-548.136 146.39,-679.456 218,-749 221.52,-752.419 225.665,-755.222 230.093,-757.522"/>
<polygon fill="midnightblue" stroke="midnightblue" points="228.903,-760.82 239.471,-761.568 231.676,-754.393 228.903,-760.82"/>
</g>
<!-- Node37 -->
<g id="node37" class="node"><title>Node37</title>
<g id="a_node37"><a xlink:href="../../d0/d58/_back_end_8c.html#a72ac91bcdb1237ef5c5e2e8075f420a4" target="_top" xlink:title="Proc_Matriz">
<polygon fill="white" stroke="black" points="242.5,-190.5 242.5,-209.5 311.5,-209.5 311.5,-190.5 242.5,-190.5"/>
<text text-anchor="middle" x="277" y="-197.5" font-family="Helvetica,sans-Serif" font-size="10.00">Proc_Matriz</text>
</a>
</g>
</g>
<!-- Node22&#45;&gt;Node37 -->
<g id="edge49" class="edge"><title>Node22&#45;&gt;Node37</title>
<path fill="none" stroke="midnightblue" d="M131.456,-492.419C143.605,-445.316 197.501,-239.744 218,-219 222.199,-214.751 227.361,-211.452 232.859,-208.891"/>
<polygon fill="midnightblue" stroke="midnightblue" points="234.248,-212.106 242.317,-205.239 231.727,-205.576 234.248,-212.106"/>
</g>
<!-- Node42 -->
<g id="node42" class="node"><title>Node42</title>
<g id="a_node42"><a xlink:href="../../d0/d58/_back_end_8c.html#ad99bc99a3768cdc89f074ba8d5c5fd65" target="_top" xlink:title="nivelTerminado">
<polygon fill="white" stroke="black" points="235.5,-266.5 235.5,-285.5 318.5,-285.5 318.5,-266.5 235.5,-266.5"/>
<text text-anchor="middle" x="277" y="-273.5" font-family="Helvetica,sans-Serif" font-size="10.00">nivelTerminado</text>
</a>
</g>
</g>
<!-- Node22&#45;&gt;Node42 -->
<g id="edge54" class="edge"><title>Node22&#45;&gt;Node42</title>
<path fill="none" stroke="midnightblue" d="M130.341,-492.139C135.343,-459.183 155.929,-351.751 218,-295 220.463,-292.748 223.199,-290.762 226.102,-289.012"/>
<polygon fill="midnightblue" stroke="midnightblue" points="227.847,-292.052 235.21,-284.434 224.703,-285.797 227.847,-292.052"/>
</g>
<!-- Node43 -->
<g id="node43" class="node"><title>Node43</title>
<g id="a_node43"><a xlink:href="../../df/d49/_front_end_8c.html#aa2c9f30c45a8afbc629eca6c5866cc00" target="_top" xlink:title="resultadoFindelNivel">
<polygon fill="white" stroke="black" points="224.5,-228.5 224.5,-247.5 329.5,-247.5 329.5,-228.5 224.5,-228.5"/>
<text text-anchor="middle" x="277" y="-235.5" font-family="Helvetica,sans-Serif" font-size="10.00">resultadoFindelNivel</text>
</a>
</g>
</g>
<!-- Node22&#45;&gt;Node43 -->
<g id="edge55" class="edge"><title>Node22&#45;&gt;Node43</title>
<path fill="none" stroke="midnightblue" d="M129.579,-492.447C132.29,-456.229 146.813,-325.953 218,-257 219.639,-255.413 221.412,-253.958 223.286,-252.625"/>
<polygon fill="midnightblue" stroke="midnightblue" points="225.161,-255.583 232.038,-247.523 221.636,-249.535 225.161,-255.583"/>
</g>
<!-- Node44 -->
<g id="node44" class="node"><title>Node44</title>
<g id="a_node44"><a xlink:href="../../d0/d58/_back_end_8c.html#a77f81f8f05fac2b77ac925185e15ae1c" target="_top" xlink:title="analisisMatriz">
<polygon fill="white" stroke="black" points="238.5,-114.5 238.5,-133.5 315.5,-133.5 315.5,-114.5 238.5,-114.5"/>
<text text-anchor="middle" x="277" y="-121.5" font-family="Helvetica,sans-Serif" font-size="10.00">analisisMatriz</text>
</a>
</g>
</g>
<!-- Node22&#45;&gt;Node44 -->
<g id="edge56" class="edge"><title>Node22&#45;&gt;Node44</title>
<path fill="none" stroke="midnightblue" d="M131.483,-492.476C139.151,-463.012 163.085,-370.704 182,-294 198.518,-227.015 171.269,-193.756 218,-143 221.153,-139.575 224.933,-136.766 229.031,-134.462"/>
<polygon fill="midnightblue" stroke="midnightblue" points="230.751,-137.525 238.39,-130.184 227.84,-131.158 230.751,-137.525"/>
</g>
<!-- Node46 -->
<g id="node46" class="node"><title>Node46</title>
<g id="a_node46"><a xlink:href="../../df/d49/_front_end_8c.html#a99f4a365d05d0d035bf72f78397effca" target="_top" xlink:title="GuardarAccionBitacora">
<polygon fill="white" stroke="black" points="218.5,-152.5 218.5,-171.5 335.5,-171.5 335.5,-152.5 218.5,-152.5"/>
<text text-anchor="middle" x="277" y="-159.5" font-family="Helvetica,sans-Serif" font-size="10.00">GuardarAccionBitacora</text>
</a>
</g>
</g>
<!-- Node22&#45;&gt;Node46 -->
<g id="edge59" class="edge"><title>Node22&#45;&gt;Node46</title>
<path fill="none" stroke="midnightblue" d="M131.38,-492.441C144.372,-440.385 206.567,-192.972 218,-181 219.4,-179.534 220.914,-178.182 222.517,-176.933"/>
<polygon fill="midnightblue" stroke="midnightblue" points="224.548,-179.792 231.168,-171.52 220.834,-173.858 224.548,-179.792"/>
</g>
<!-- Node26 -->
<g id="node26" class="node"><title>Node26</title>
<g id="a_node26"><a xlink:href="../../d0/d58/_back_end_8c.html#ae6a7cdeddbc37697910cb072a1b0b7c2" target="_top" xlink:title="validarEliminar">
<polygon fill="white" stroke="black" points="381,-568.5 381,-587.5 461,-587.5 461,-568.5 381,-568.5"/>
<text text-anchor="middle" x="421" y="-575.5" font-family="Helvetica,sans-Serif" font-size="10.00">validarEliminar</text>
</a>
</g>
</g>
<!-- Node25&#45;&gt;Node26 -->
<g id="edge30" class="edge"><title>Node25&#45;&gt;Node26</title>
<path fill="none" stroke="midnightblue" d="M302.088,-546.446C321.909,-551.75 350.558,-559.417 374.653,-565.865"/>
<polygon fill="midnightblue" stroke="midnightblue" points="373.753,-569.247 384.318,-568.451 375.562,-562.485 373.753,-569.247"/>
</g>
<!-- Node27 -->
<g id="node27" class="node"><title>Node27</title>
<g id="a_node27"><a xlink:href="../../d0/d58/_back_end_8c.html#a173f42259c2058a7251f21420b9bac1b" target="_top" xlink:title="elimAd">
<polygon fill="white" stroke="black" points="397.5,-530.5 397.5,-549.5 444.5,-549.5 444.5,-530.5 397.5,-530.5"/>
<text text-anchor="middle" x="421" y="-537.5" font-family="Helvetica,sans-Serif" font-size="10.00">elimAd</text>
</a>
</g>
</g>
<!-- Node25&#45;&gt;Node27 -->
<g id="edge31" class="edge"><title>Node25&#45;&gt;Node27</title>
<path fill="none" stroke="midnightblue" d="M302.088,-540C325.456,-540 361.094,-540 387.074,-540"/>
<polygon fill="midnightblue" stroke="midnightblue" points="387.205,-543.5 397.205,-540 387.205,-536.5 387.205,-543.5"/>
</g>
<!-- Node29 -->
<g id="node29" class="node"><title>Node29</title>
<g id="a_node29"><a xlink:href="../../d0/d58/_back_end_8c.html#a818bbb097438668351dadec2823c7ba7" target="_top" xlink:title="validarMartillazo">
<polygon fill="white" stroke="black" points="377.5,-492.5 377.5,-511.5 464.5,-511.5 464.5,-492.5 377.5,-492.5"/>
<text text-anchor="middle" x="421" y="-499.5" font-family="Helvetica,sans-Serif" font-size="10.00">validarMartillazo</text>
</a>
</g>
</g>
<!-- Node28&#45;&gt;Node29 -->
<g id="edge34" class="edge"><title>Node28&#45;&gt;Node29</title>
<path fill="none" stroke="midnightblue" d="M306.736,-502C324.068,-502 346.683,-502 367.143,-502"/>
<polygon fill="midnightblue" stroke="midnightblue" points="367.293,-505.5 377.293,-502 367.293,-498.5 367.293,-505.5"/>
</g>
<!-- Node30&#45;&gt;Node30 -->
<g id="edge38" class="edge"><title>Node30&#45;&gt;Node30</title>
<path fill="none" stroke="midnightblue" d="M254.805,-455.757C244.008,-464.565 251.406,-474 277,-474 293.796,-474 302.756,-469.937 303.879,-464.654"/>
<polygon fill="midnightblue" stroke="midnightblue" points="306.951,-462.975 299.195,-455.757 300.757,-466.236 306.951,-462.975"/>
</g>
<!-- Node31 -->
<g id="node31" class="node"><title>Node31</title>
<g id="a_node31"><a xlink:href="../../d0/d58/_back_end_8c.html#a46f1634881e03d6ecb9fd358e9c9bacb" target="_top" xlink:title="validarColumna">
<polygon fill="white" stroke="black" points="379,-436.5 379,-455.5 463,-455.5 463,-436.5 379,-436.5"/>
<text text-anchor="middle" x="421" y="-443.5" font-family="Helvetica,sans-Serif" font-size="10.00">validarColumna</text>
</a>
</g>
</g>
<!-- Node30&#45;&gt;Node31 -->
<g id="edge36" class="edge"><title>Node30&#45;&gt;Node31</title>
<path fill="none" stroke="midnightblue" d="M303.715,-440.66C321.792,-439.336 346.591,-438.945 368.645,-439.485"/>
<polygon fill="midnightblue" stroke="midnightblue" points="368.772,-442.991 378.879,-439.812 368.995,-435.994 368.772,-442.991"/>
</g>
<!-- Node31&#45;&gt;Node30 -->
<g id="edge37" class="edge"><title>Node31&#45;&gt;Node30</title>
<path fill="none" stroke="midnightblue" d="M378.879,-452.188C358.311,-453.009 333.651,-452.931 313.861,-451.954"/>
<polygon fill="midnightblue" stroke="midnightblue" points="313.908,-448.45 303.715,-451.34 313.486,-455.438 313.908,-448.45"/>
</g>
<!-- Node32&#45;&gt;Node32 -->
<g id="edge42" class="edge"><title>Node32&#45;&gt;Node32</title>
<path fill="none" stroke="midnightblue" d="M256.75,-322.312C243.25,-331.5 250,-342 277,-342 296.406,-342 305.351,-336.576 303.835,-330.113"/>
<polygon fill="midnightblue" stroke="midnightblue" points="306.375,-327.696 297.25,-322.312 301.026,-332.212 306.375,-327.696"/>
</g>
<!-- Node33 -->
<g id="node33" class="node"><title>Node33</title>
<g id="a_node33"><a xlink:href="../../d0/d58/_back_end_8c.html#a2282e1ad01efd232ad71f53149715428" target="_top" xlink:title="validarHilera">
<polygon fill="white" stroke="black" points="385.5,-304.5 385.5,-323.5 456.5,-323.5 456.5,-304.5 385.5,-304.5"/>
<text text-anchor="middle" x="421" y="-311.5" font-family="Helvetica,sans-Serif" font-size="10.00">validarHilera</text>
</a>
</g>
</g>
<!-- Node32&#45;&gt;Node33 -->
<g id="edge40" class="edge"><title>Node32&#45;&gt;Node33</title>
<path fill="none" stroke="midnightblue" d="M297.151,-309.211C317.067,-307.293 348.95,-306.782 375.245,-307.678"/>
<polygon fill="midnightblue" stroke="midnightblue" points="375.239,-311.181 385.379,-308.109 375.537,-304.187 375.239,-311.181"/>
</g>
<!-- Node33&#45;&gt;Node32 -->
<g id="edge41" class="edge"><title>Node33&#45;&gt;Node32</title>
<path fill="none" stroke="midnightblue" d="M385.379,-319.891C361.42,-321.132 329.888,-321.028 307.2,-319.579"/>
<polygon fill="midnightblue" stroke="midnightblue" points="307.394,-316.083 297.151,-318.789 306.846,-323.062 307.394,-316.083"/>
</g>
<!-- Node36&#45;&gt;Node11 -->
<g id="edge47" class="edge"><title>Node36&#45;&gt;Node11</title>
<path fill="none" stroke="midnightblue" d="M314.569,-772.893C335.754,-775.728 362.337,-779.284 383.509,-782.117"/>
<polygon fill="midnightblue" stroke="midnightblue" points="383.045,-785.586 393.421,-783.444 383.974,-778.648 383.045,-785.586"/>
</g>
<!-- Node38 -->
<g id="node38" class="node"><title>Node38</title>
<g id="a_node38"><a xlink:href="../../d0/d58/_back_end_8c.html#a30778fe7f3a7111df0132951b5a8cb9f" target="_top" xlink:title="gravedad">
<polygon fill="white" stroke="black" points="393,-190.5 393,-209.5 449,-209.5 449,-190.5 393,-190.5"/>
<text text-anchor="middle" x="421" y="-197.5" font-family="Helvetica,sans-Serif" font-size="10.00">gravedad</text>
</a>
</g>
</g>
<!-- Node37&#45;&gt;Node38 -->
<g id="edge50" class="edge"><title>Node37&#45;&gt;Node38</title>
<path fill="none" stroke="midnightblue" d="M311.652,-200C332.937,-200 360.483,-200 382.473,-200"/>
<polygon fill="midnightblue" stroke="midnightblue" points="382.771,-203.5 392.771,-200 382.771,-196.5 382.771,-203.5"/>
</g>
<!-- Node40 -->
<g id="node40" class="node"><title>Node40</title>
<g id="a_node40"><a xlink:href="../../d0/d58/_back_end_8c.html#add1cf658d13603c789cb641681a863cc" target="_top" xlink:title="nullCols">
<polygon fill="white" stroke="black" points="395,-152.5 395,-171.5 447,-171.5 447,-152.5 395,-152.5"/>
<text text-anchor="middle" x="421" y="-159.5" font-family="Helvetica,sans-Serif" font-size="10.00">nullCols</text>
</a>
</g>
</g>
<!-- Node37&#45;&gt;Node40 -->
<g id="edge52" class="edge"><title>Node37&#45;&gt;Node40</title>
<path fill="none" stroke="midnightblue" d="M311.652,-190.995C333.7,-185.094 362.465,-177.397 384.815,-171.416"/>
<polygon fill="midnightblue" stroke="midnightblue" points="385.83,-174.767 394.585,-168.801 384.02,-168.005 385.83,-174.767"/>
</g>
<!-- Node41 -->
<g id="node41" class="node"><title>Node41</title>
<g id="a_node41"><a xlink:href="../../d0/d58/_back_end_8c.html#a7966b82c6fb095984645478900337cd4" target="_top" xlink:title="calcularPuntaje">
<polygon fill="white" stroke="black" points="379.5,-228.5 379.5,-247.5 462.5,-247.5 462.5,-228.5 379.5,-228.5"/>
<text text-anchor="middle" x="421" y="-235.5" font-family="Helvetica,sans-Serif" font-size="10.00">calcularPuntaje</text>
</a>
</g>
</g>
<!-- Node37&#45;&gt;Node41 -->
<g id="edge53" class="edge"><title>Node37&#45;&gt;Node41</title>
<path fill="none" stroke="midnightblue" d="M311.652,-209.005C330.47,-214.041 354.182,-220.387 374.622,-225.857"/>
<polygon fill="midnightblue" stroke="midnightblue" points="373.793,-229.258 384.358,-228.462 375.603,-222.496 373.793,-229.258"/>
</g>
<!-- Node39 -->
<g id="node39" class="node"><title>Node39</title>
<g id="a_node39"><a xlink:href="../../d0/d58/_back_end_8c.html#af6e26bc55afeec730efa1a694027de82" target="_top" xlink:title="decalarFils">
<polygon fill="white" stroke="black" points="511,-190.5 511,-209.5 575,-209.5 575,-190.5 511,-190.5"/>
<text text-anchor="middle" x="543" y="-197.5" font-family="Helvetica,sans-Serif" font-size="10.00">decalarFils</text>
</a>
</g>
</g>
<!-- Node38&#45;&gt;Node39 -->
<g id="edge51" class="edge"><title>Node38&#45;&gt;Node39</title>
<path fill="none" stroke="midnightblue" d="M449.23,-200C464.348,-200 483.47,-200 500.42,-200"/>
<polygon fill="midnightblue" stroke="midnightblue" points="500.638,-203.5 510.638,-200 500.638,-196.5 500.638,-203.5"/>
</g>
<!-- Node45 -->
<g id="node45" class="node"><title>Node45</title>
<g id="a_node45"><a xlink:href="../../d0/d58/_back_end_8c.html#ac7c84a2ee121281c8f0d9c49c3dbb58e" target="_top" xlink:title="algunAdyacente">
<polygon fill="white" stroke="black" points="378,-114.5 378,-133.5 464,-133.5 464,-114.5 378,-114.5"/>
<text text-anchor="middle" x="421" y="-121.5" font-family="Helvetica,sans-Serif" font-size="10.00">algunAdyacente</text>
</a>
</g>
</g>
<!-- Node44&#45;&gt;Node45 -->
<g id="edge57" class="edge"><title>Node44&#45;&gt;Node45</title>
<path fill="none" stroke="midnightblue" d="M315.681,-124C331.534,-124 350.255,-124 367.43,-124"/>
<polygon fill="midnightblue" stroke="midnightblue" points="367.884,-127.5 377.884,-124 367.884,-120.5 367.884,-127.5"/>
</g>
</g>
</svg>
