<?xml version="1.0" encoding="UTF-8" standalone="no"?>
<!DOCTYPE svg PUBLIC "-//W3C//DTD SVG 1.1//EN"
 "http://www.w3.org/Graphics/SVG/1.1/DTD/svg11.dtd">
<!-- Generated by graphviz version 2.31.20130601.0447 (20130601.0447)
 -->
<!-- Title: validarColumna Pages: 1 -->
<svg width="182pt" height="46pt"
 viewBox="0.00 0.00 182.00 46.00" xmlns="http://www.w3.org/2000/svg" xmlns:xlink="http://www.w3.org/1999/xlink">
<g id="graph0" class="graph" transform="scale(1 1) rotate(0) translate(4 42)">
<title>validarColumna</title>
<polygon fill="white" stroke="white" points="-4,5 -4,-42 179,-42 179,5 -4,5"/>
<!-- Node1 -->
<g id="node1" class="node"><title>Node1</title>
<polygon fill="#bfbfbf" stroke="black" points="0,-0.5 0,-19.5 84,-19.5 84,-0.5 0,-0.5"/>
<text text-anchor="middle" x="42" y="-7.5" font-family="Helvetica,sans-Serif" font-size="10.00">validarColumna</text>
</g>
<!-- Node2 -->
<g id="node2" class="node"><title>Node2</title>
<g id="a_node2"><a xlink:href="../../d0/d58/_back_end_8c.html#a899f99bc3a99d14a7ff1029d4c7c5112" target="_top" xlink:title="columna">
<polygon fill="white" stroke="black" points="120.5,-0.5 120.5,-19.5 173.5,-19.5 173.5,-0.5 120.5,-0.5"/>
<text text-anchor="middle" x="147" y="-7.5" font-family="Helvetica,sans-Serif" font-size="10.00">columna</text>
</a>
</g>
</g>
<!-- Node1&#45;&gt;Node2 -->
<g id="edge1" class="edge"><title>Node1&#45;&gt;Node2</title>
<path fill="none" stroke="midnightblue" d="M84.0043,-10C92.6034,-10 101.61,-10 110.01,-10"/>
<polygon fill="midnightblue" stroke="midnightblue" points="110.249,-13.5001 120.249,-10 110.249,-6.5001 110.249,-13.5001"/>
</g>
<!-- Node2&#45;&gt;Node2 -->
<g id="edge2" class="edge"><title>Node2&#45;&gt;Node2</title>
<path fill="none" stroke="midnightblue" d="M130.971,-19.7571C123.172,-28.5653 128.516,-38 147,-38 158.553,-38 164.972,-34.3146 166.258,-29.4"/>
<polygon fill="midnightblue" stroke="midnightblue" points="169.524,-28.1283 163.029,-19.7571 162.886,-30.3509 169.524,-28.1283"/>
</g>
</g>
</svg>
