<?xml version="1.0" encoding="UTF-8" standalone="no"?>
<!DOCTYPE svg PUBLIC "-//W3C//DTD SVG 1.1//EN"
 "http://www.w3.org/Graphics/SVG/1.1/DTD/svg11.dtd">
<!-- Generated by graphviz version 2.31.20130601.0447 (20130601.0447)
 -->
<!-- Title: AccionesDeJuego Pages: 1 -->
<svg width="490pt" height="826pt"
 viewBox="0.00 0.00 490.00 826.00" xmlns="http://www.w3.org/2000/svg" xmlns:xlink="http://www.w3.org/1999/xlink">
<g id="graph0" class="graph" transform="scale(1 1) rotate(0) translate(4 822)">
<title>AccionesDeJuego</title>
<!-- Node1 -->
<g id="node1" class="node"><title>Node1</title>
<polygon fill="#bfbfbf" stroke="black" points="0,-399.5 0,-418.5 96,-418.5 96,-399.5 0,-399.5"/>
<text text-anchor="middle" x="48" y="-406.5" font-family="Helvetica,sans-Serif" font-size="10.00">AccionesDeJuego</text>
</g>
<!-- Node2 -->
<g id="node2" class="node"><title>Node2</title>
<g id="a_node2"><a xlink:href="../../df/d49/_front_end_8c.html#a031f798e86eaa72898a0db976fc4566d" target="_top" xlink:title="inputString">
<polygon fill="none" stroke="black" points="159.5,-798.5 159.5,-817.5 222.5,-817.5 222.5,-798.5 159.5,-798.5"/>
<text text-anchor="middle" x="191" y="-805.5" font-family="Helvetica,sans-Serif" font-size="10.00">inputString</text>
</a>
</g>
</g>
<!-- Node1&#45;&gt;Node2 -->
<g id="edge1" class="edge"><title>Node1&#45;&gt;Node2</title>
<path fill="none" stroke="midnightblue" d="M49.8143,-418.524C54.5407,-471.695 80.0586,-731.498 132,-789 136.724,-794.23 142.909,-798.025 149.477,-800.778"/>
<polygon fill="midnightblue" stroke="midnightblue" points="148.653,-804.194 159.247,-804.11 150.913,-797.569 148.653,-804.194"/>
</g>
<!-- Node3 -->
<g id="node3" class="node"><title>Node3</title>
<g id="a_node3"><a xlink:href="../../d0/d58/_back_end_8c.html#a638bacb7948a6f147d6103864d99067c" target="_top" xlink:title="validarEliminar">
<polygon fill="none" stroke="black" points="151,-760.5 151,-779.5 231,-779.5 231,-760.5 151,-760.5"/>
<text text-anchor="middle" x="191" y="-767.5" font-family="Helvetica,sans-Serif" font-size="10.00">validarEliminar</text>
</a>
</g>
</g>
<!-- Node1&#45;&gt;Node3 -->
<g id="edge2" class="edge"><title>Node1&#45;&gt;Node3</title>
<path fill="none" stroke="midnightblue" d="M50.0647,-418.543C55.8205,-468.533 84.7185,-699.854 132,-751 134.793,-754.021 138.073,-756.563 141.628,-758.701"/>
<polygon fill="midnightblue" stroke="midnightblue" points="140.388,-761.991 150.91,-763.229 143.457,-755.699 140.388,-761.991"/>
</g>
<!-- Node4 -->
<g id="node4" class="node"><title>Node4</title>
<g id="a_node4"><a xlink:href="../../d0/d58/_back_end_8c.html#abb4221a879101cd2370d2d0acc92bf12" target="_top" xlink:title="igualacion">
<polygon fill="none" stroke="black" points="161,-722.5 161,-741.5 221,-741.5 221,-722.5 161,-722.5"/>
<text text-anchor="middle" x="191" y="-729.5" font-family="Helvetica,sans-Serif" font-size="10.00">igualacion</text>
</a>
</g>
</g>
<!-- Node1&#45;&gt;Node4 -->
<g id="edge3" class="edge"><title>Node1&#45;&gt;Node4</title>
<path fill="none" stroke="midnightblue" d="M48.582,-418.724C47.3445,-460.273 48.1051,-624.798 132,-713 137.221,-718.489 144.051,-722.395 151.182,-725.172"/>
<polygon fill="midnightblue" stroke="midnightblue" points="150.381,-728.591 160.972,-728.304 152.514,-721.924 150.381,-728.591"/>
</g>
<!-- Node5 -->
<g id="node5" class="node"><title>Node5</title>
<g id="a_node5"><a xlink:href="../../d0/d58/_back_end_8c.html#a434fb24763854229cc6eeced2e45b4bd" target="_top" xlink:title="eliminar">
<polygon fill="none" stroke="black" points="166,-684.5 166,-703.5 216,-703.5 216,-684.5 166,-684.5"/>
<text text-anchor="middle" x="191" y="-691.5" font-family="Helvetica,sans-Serif" font-size="10.00">eliminar</text>
</a>
</g>
</g>
<!-- Node1&#45;&gt;Node5 -->
<g id="edge4" class="edge"><title>Node1&#45;&gt;Node5</title>
<path fill="none" stroke="midnightblue" d="M49.025,-418.545C49.6523,-456.592 57.1069,-599.042 132,-675 138.486,-681.578 147.282,-685.88 156.062,-688.692"/>
<polygon fill="midnightblue" stroke="midnightblue" points="155.281,-692.106 165.843,-691.277 157.069,-685.338 155.281,-692.106"/>
</g>
<!-- Node7 -->
<g id="node7" class="node"><title>Node7</title>
<g id="a_node7"><a xlink:href="../../d0/d58/_back_end_8c.html#adce6d32ded4b58704571dc8a4528a51b" target="_top" xlink:title="validarMartillazo">
<polygon fill="none" stroke="black" points="147.5,-646.5 147.5,-665.5 234.5,-665.5 234.5,-646.5 147.5,-646.5"/>
<text text-anchor="middle" x="191" y="-653.5" font-family="Helvetica,sans-Serif" font-size="10.00">validarMartillazo</text>
</a>
</g>
</g>
<!-- Node1&#45;&gt;Node7 -->
<g id="edge6" class="edge"><title>Node1&#45;&gt;Node7</title>
<path fill="none" stroke="midnightblue" d="M49.619,-418.836C52.3508,-453.806 66.3196,-573.424 132,-637 133.899,-638.838 135.978,-640.498 138.184,-641.997"/>
<polygon fill="midnightblue" stroke="midnightblue" points="136.773,-645.217 147.213,-647.021 140.176,-639.1 136.773,-645.217"/>
</g>
<!-- Node8 -->
<g id="node8" class="node"><title>Node8</title>
<g id="a_node8"><a xlink:href="../../d0/d58/_back_end_8c.html#a4567ed9e8cee6392fbb432ba9f36bc47" target="_top" xlink:title="martillazo">
<polygon fill="none" stroke="black" points="161.5,-608.5 161.5,-627.5 220.5,-627.5 220.5,-608.5 161.5,-608.5"/>
<text text-anchor="middle" x="191" y="-615.5" font-family="Helvetica,sans-Serif" font-size="10.00">martillazo</text>
</a>
</g>
</g>
<!-- Node1&#45;&gt;Node8 -->
<g id="edge7" class="edge"><title>Node1&#45;&gt;Node8</title>
<path fill="none" stroke="midnightblue" d="M50.4364,-418.916C55.4814,-450.143 75.2643,-547.428 132,-599 137.552,-604.047 144.471,-607.756 151.575,-610.48"/>
<polygon fill="midnightblue" stroke="midnightblue" points="150.674,-613.867 161.266,-613.619 152.831,-607.208 150.674,-613.867"/>
</g>
<!-- Node9 -->
<g id="node9" class="node"><title>Node9</title>
<g id="a_node9"><a xlink:href="../../d0/d58/_back_end_8c.html#ae0bf64ce84dd0f847d76ee9c386db12d" target="_top" xlink:title="validarColumna">
<polygon fill="none" stroke="black" points="149,-570.5 149,-589.5 233,-589.5 233,-570.5 149,-570.5"/>
<text text-anchor="middle" x="191" y="-577.5" font-family="Helvetica,sans-Serif" font-size="10.00">validarColumna</text>
</a>
</g>
</g>
<!-- Node1&#45;&gt;Node9 -->
<g id="edge8" class="edge"><title>Node1&#45;&gt;Node9</title>
<path fill="none" stroke="midnightblue" d="M51.5885,-418.81C59.1762,-445.66 83.9178,-521.01 132,-561 134.407,-563.002 137.031,-564.795 139.79,-566.4"/>
<polygon fill="midnightblue" stroke="midnightblue" points="138.443,-569.638 148.96,-570.916 141.535,-563.358 138.443,-569.638"/>
</g>
<!-- Node10 -->
<g id="node10" class="node"><title>Node10</title>
<g id="a_node10"><a xlink:href="../../d0/d58/_back_end_8c.html#a816db612551a36031d61664fed48a215" target="_top" xlink:title="columna">
<polygon fill="none" stroke="black" points="164.5,-532.5 164.5,-551.5 217.5,-551.5 217.5,-532.5 164.5,-532.5"/>
<text text-anchor="middle" x="191" y="-539.5" font-family="Helvetica,sans-Serif" font-size="10.00">columna</text>
</a>
</g>
</g>
<!-- Node1&#45;&gt;Node10 -->
<g id="edge9" class="edge"><title>Node1&#45;&gt;Node10</title>
<path fill="none" stroke="midnightblue" d="M53.3373,-418.516C63.7358,-440.282 92.2102,-494.048 132,-523 138.761,-527.92 146.865,-531.612 154.842,-534.366"/>
<polygon fill="midnightblue" stroke="midnightblue" points="153.824,-537.714 164.41,-537.279 155.863,-531.018 153.824,-537.714"/>
</g>
<!-- Node11 -->
<g id="node11" class="node"><title>Node11</title>
<g id="a_node11"><a xlink:href="../../d0/d58/_back_end_8c.html#a8e2f13efac8977bc5082d97d90788f5e" target="_top" xlink:title="validarHilera">
<polygon fill="none" stroke="black" points="155.5,-494.5 155.5,-513.5 226.5,-513.5 226.5,-494.5 155.5,-494.5"/>
<text text-anchor="middle" x="191" y="-501.5" font-family="Helvetica,sans-Serif" font-size="10.00">validarHilera</text>
</a>
</g>
</g>
<!-- Node1&#45;&gt;Node11 -->
<g id="edge10" class="edge"><title>Node1&#45;&gt;Node11</title>
<path fill="none" stroke="midnightblue" d="M56.9644,-418.569C70.7092,-434.508 100.458,-466.562 132,-485 136.237,-487.476 140.838,-489.679 145.535,-491.625"/>
<polygon fill="midnightblue" stroke="midnightblue" points="144.629,-495.023 155.221,-495.266 147.092,-488.471 144.629,-495.023"/>
</g>
<!-- Node12 -->
<g id="node12" class="node"><title>Node12</title>
<g id="a_node12"><a xlink:href="../../d0/d58/_back_end_8c.html#a00ed018131a51a0fefae11dfb9005c0d" target="_top" xlink:title="hilera">
<polygon fill="none" stroke="black" points="171,-456.5 171,-475.5 211,-475.5 211,-456.5 171,-456.5"/>
<text text-anchor="middle" x="191" y="-463.5" font-family="Helvetica,sans-Serif" font-size="10.00">hilera</text>
</a>
</g>
</g>
<!-- Node1&#45;&gt;Node12 -->
<g id="edge11" class="edge"><title>Node1&#45;&gt;Node12</title>
<path fill="none" stroke="midnightblue" d="M68.1877,-418.533C84.8419,-426.626 109.714,-438.28 132,-447 141.348,-450.658 151.72,-454.21 161.078,-457.234"/>
<polygon fill="midnightblue" stroke="midnightblue" points="160.148,-460.611 170.738,-460.289 162.258,-453.937 160.148,-460.611"/>
</g>
<!-- Node13 -->
<g id="node13" class="node"><title>Node13</title>
<g id="a_node13"><a xlink:href="../../df/d49/_front_end_8c.html#a639b04a4f1cdc236e6d0ffbd51db0c95" target="_top" xlink:title="validFileName">
<polygon fill="none" stroke="black" points="289.5,-266.5 289.5,-285.5 368.5,-285.5 368.5,-266.5 289.5,-266.5"/>
<text text-anchor="middle" x="329" y="-273.5" font-family="Helvetica,sans-Serif" font-size="10.00">validFileName</text>
</a>
</g>
</g>
<!-- Node1&#45;&gt;Node13 -->
<g id="edge12" class="edge"><title>Node1&#45;&gt;Node13</title>
<path fill="none" stroke="midnightblue" d="M63.9696,-399.37C80.3429,-389.027 107.522,-372.406 132,-360 187.1,-332.074 253.64,-304.865 293.299,-289.303"/>
<polygon fill="midnightblue" stroke="midnightblue" points="294.735,-292.5 302.779,-285.605 292.191,-285.979 294.735,-292.5"/>
</g>
<!-- Node14 -->
<g id="node14" class="node"><title>Node14</title>
<g id="a_node14"><a xlink:href="../../df/d49/_front_end_8c.html#a6323e80bca186d3d9839b6a470500a98" target="_top" xlink:title="save">
<polygon fill="none" stroke="black" points="172,-380.5 172,-399.5 210,-399.5 210,-380.5 172,-380.5"/>
<text text-anchor="middle" x="191" y="-387.5" font-family="Helvetica,sans-Serif" font-size="10.00">save</text>
</a>
</g>
</g>
<!-- Node1&#45;&gt;Node14 -->
<g id="edge13" class="edge"><title>Node1&#45;&gt;Node14</title>
<path fill="none" stroke="midnightblue" d="M96.3432,-402.62C118.113,-399.687 143.197,-396.307 161.923,-393.783"/>
<polygon fill="midnightblue" stroke="midnightblue" points="162.433,-397.246 171.876,-392.442 161.498,-390.309 162.433,-397.246"/>
</g>
<!-- Node15 -->
<g id="node15" class="node"><title>Node15</title>
<g id="a_node15"><a xlink:href="../../df/d49/_front_end_8c.html#ad75d779851077e6fb6b2fdace3b9f899" target="_top" xlink:title="GuardarAccionBitacora">
<polygon fill="none" stroke="black" points="132.5,-418.5 132.5,-437.5 249.5,-437.5 249.5,-418.5 132.5,-418.5"/>
<text text-anchor="middle" x="191" y="-425.5" font-family="Helvetica,sans-Serif" font-size="10.00">GuardarAccionBitacora</text>
</a>
</g>
</g>
<!-- Node1&#45;&gt;Node15 -->
<g id="edge14" class="edge"><title>Node1&#45;&gt;Node15</title>
<path fill="none" stroke="midnightblue" d="M96.3432,-415.38C104.624,-416.495 113.383,-417.676 122.091,-418.849"/>
<polygon fill="midnightblue" stroke="midnightblue" points="121.878,-422.352 132.256,-420.219 122.813,-415.415 121.878,-422.352"/>
</g>
<!-- Node16 -->
<g id="node16" class="node"><title>Node16</title>
<g id="a_node16"><a xlink:href="../../df/d49/_front_end_8c.html#ade56234c677e9f2fddee149cda63a52b" target="_top" xlink:title="printerror">
<polygon fill="none" stroke="black" points="301.5,-380.5 301.5,-399.5 356.5,-399.5 356.5,-380.5 301.5,-380.5"/>
<text text-anchor="middle" x="329" y="-387.5" font-family="Helvetica,sans-Serif" font-size="10.00">printerror</text>
</a>
</g>
</g>
<!-- Node1&#45;&gt;Node16 -->
<g id="edge20" class="edge"><title>Node1&#45;&gt;Node16</title>
<path fill="none" stroke="midnightblue" d="M64.5074,-399.43C80.669,-390.064 107.07,-376.436 132,-371 183.241,-359.828 197.929,-364.749 250,-371 263.649,-372.638 278.359,-375.835 291.287,-379.145"/>
<polygon fill="midnightblue" stroke="midnightblue" points="290.653,-382.599 301.218,-381.797 292.459,-375.836 290.653,-382.599"/>
</g>
<!-- Node17 -->
<g id="node17" class="node"><title>Node17</title>
<g id="a_node17"><a xlink:href="../../df/d49/_front_end_8c.html#ab10f46bf0cd9897c47a726d653728622" target="_top" xlink:title="compBit_File">
<polygon fill="none" stroke="black" points="154,-266.5 154,-285.5 228,-285.5 228,-266.5 154,-266.5"/>
<text text-anchor="middle" x="191" y="-273.5" font-family="Helvetica,sans-Serif" font-size="10.00">compBit_File</text>
</a>
</g>
</g>
<!-- Node1&#45;&gt;Node17 -->
<g id="edge16" class="edge"><title>Node1&#45;&gt;Node17</title>
<path fill="none" stroke="midnightblue" d="M53.9342,-399.49C65.1454,-378.724 94.4965,-328.877 132,-300 137.156,-296.03 143.063,-292.606 149.09,-289.689"/>
<polygon fill="midnightblue" stroke="midnightblue" points="150.825,-292.75 158.568,-285.518 148.006,-286.343 150.825,-292.75"/>
</g>
<!-- Node18 -->
<g id="node18" class="node"><title>Node18</title>
<g id="a_node18"><a xlink:href="../../df/d49/_front_end_8c.html#a75aefb8f0ed536d9adae0d1722d559e6" target="_top" xlink:title="SaveBitacora">
<polygon fill="none" stroke="black" points="153.5,-228.5 153.5,-247.5 228.5,-247.5 228.5,-228.5 153.5,-228.5"/>
<text text-anchor="middle" x="191" y="-235.5" font-family="Helvetica,sans-Serif" font-size="10.00">SaveBitacora</text>
</a>
</g>
</g>
<!-- Node1&#45;&gt;Node18 -->
<g id="edge17" class="edge"><title>Node1&#45;&gt;Node18</title>
<path fill="none" stroke="midnightblue" d="M51.5885,-399.19C59.1762,-372.34 83.9178,-296.99 132,-257 135.676,-253.943 139.858,-251.373 144.254,-249.213"/>
<polygon fill="midnightblue" stroke="midnightblue" points="145.621,-252.435 153.483,-245.333 142.908,-245.982 145.621,-252.435"/>
</g>
<!-- Node19 -->
<g id="node19" class="node"><title>Node19</title>
<g id="a_node19"><a xlink:href="../../df/d49/_front_end_8c.html#a34256005c9f46eff46dddfaf74a73427" target="_top" xlink:title="PedirNombreValido">
<polygon fill="none" stroke="black" points="140.5,-190.5 140.5,-209.5 241.5,-209.5 241.5,-190.5 140.5,-190.5"/>
<text text-anchor="middle" x="191" y="-197.5" font-family="Helvetica,sans-Serif" font-size="10.00">PedirNombreValido</text>
</a>
</g>
</g>
<!-- Node1&#45;&gt;Node19 -->
<g id="edge18" class="edge"><title>Node1&#45;&gt;Node19</title>
<path fill="none" stroke="midnightblue" d="M50.4364,-399.084C55.4814,-367.857 75.2643,-270.572 132,-219 133.72,-217.436 135.571,-216.001 137.518,-214.684"/>
<polygon fill="midnightblue" stroke="midnightblue" points="139.539,-217.565 146.562,-209.632 136.125,-211.454 139.539,-217.565"/>
</g>
<!-- Node20 -->
<g id="node20" class="node"><title>Node20</title>
<g id="a_node20"><a xlink:href="../../d0/d58/_back_end_8c.html#a72ac91bcdb1237ef5c5e2e8075f420a4" target="_top" xlink:title="Proc_Matriz">
<polygon fill="none" stroke="black" points="156.5,-152.5 156.5,-171.5 225.5,-171.5 225.5,-152.5 156.5,-152.5"/>
<text text-anchor="middle" x="191" y="-159.5" font-family="Helvetica,sans-Serif" font-size="10.00">Proc_Matriz</text>
</a>
</g>
</g>
<!-- Node1&#45;&gt;Node20 -->
<g id="edge21" class="edge"><title>Node1&#45;&gt;Node20</title>
<path fill="none" stroke="midnightblue" d="M49.619,-399.164C52.3508,-364.194 66.3196,-244.576 132,-181 136.243,-176.893 141.388,-173.673 146.841,-171.15"/>
<polygon fill="midnightblue" stroke="midnightblue" points="148.14,-174.4 156.203,-167.526 145.614,-167.872 148.14,-174.4"/>
</g>
<!-- Node25 -->
<g id="node25" class="node"><title>Node25</title>
<g id="a_node25"><a xlink:href="../../d0/d58/_back_end_8c.html#ad99bc99a3768cdc89f074ba8d5c5fd65" target="_top" xlink:title="nivelTerminado">
<polygon fill="none" stroke="black" points="149.5,-114.5 149.5,-133.5 232.5,-133.5 232.5,-114.5 149.5,-114.5"/>
<text text-anchor="middle" x="191" y="-121.5" font-family="Helvetica,sans-Serif" font-size="10.00">nivelTerminado</text>
</a>
</g>
</g>
<!-- Node1&#45;&gt;Node25 -->
<g id="edge26" class="edge"><title>Node1&#45;&gt;Node25</title>
<path fill="none" stroke="midnightblue" d="M49.025,-399.455C49.6523,-361.408 57.1069,-218.958 132,-143 134.493,-140.471 137.328,-138.279 140.372,-136.378"/>
<polygon fill="midnightblue" stroke="midnightblue" points="142.089,-139.431 149.394,-131.757 138.898,-133.201 142.089,-139.431"/>
</g>
<!-- Node26 -->
<g id="node26" class="node"><title>Node26</title>
<g id="a_node26"><a xlink:href="../../df/d49/_front_end_8c.html#aa2c9f30c45a8afbc629eca6c5866cc00" target="_top" xlink:title="resultadoFindelNivel">
<polygon fill="none" stroke="black" points="138.5,-76.5 138.5,-95.5 243.5,-95.5 243.5,-76.5 138.5,-76.5"/>
<text text-anchor="middle" x="191" y="-83.5" font-family="Helvetica,sans-Serif" font-size="10.00">resultadoFindelNivel</text>
</a>
</g>
</g>
<!-- Node1&#45;&gt;Node26 -->
<g id="edge27" class="edge"><title>Node1&#45;&gt;Node26</title>
<path fill="none" stroke="midnightblue" d="M48.582,-399.276C47.3445,-357.727 48.1051,-193.202 132,-105 133.397,-103.532 134.908,-102.177 136.51,-100.926"/>
<polygon fill="midnightblue" stroke="midnightblue" points="138.541,-103.784 145.153,-95.5057 134.822,-97.8536 138.541,-103.784"/>
</g>
<!-- Node27 -->
<g id="node27" class="node"><title>Node27</title>
<g id="a_node27"><a xlink:href="../../d0/d58/_back_end_8c.html#a77f81f8f05fac2b77ac925185e15ae1c" target="_top" xlink:title="analisisMatriz">
<polygon fill="none" stroke="black" points="152.5,-38.5 152.5,-57.5 229.5,-57.5 229.5,-38.5 152.5,-38.5"/>
<text text-anchor="middle" x="191" y="-45.5" font-family="Helvetica,sans-Serif" font-size="10.00">analisisMatriz</text>
</a>
</g>
</g>
<!-- Node1&#45;&gt;Node27 -->
<g id="edge28" class="edge"><title>Node1&#45;&gt;Node27</title>
<path fill="none" stroke="midnightblue" d="M50.0647,-399.457C55.8205,-349.467 84.7185,-118.146 132,-67 135.16,-63.5814 138.944,-60.7765 143.045,-58.4755"/>
<polygon fill="midnightblue" stroke="midnightblue" points="144.765,-61.5377 152.408,-54.2003 141.858,-55.1701 144.765,-61.5377"/>
</g>
<!-- Node29 -->
<g id="node29" class="node"><title>Node29</title>
<g id="a_node29"><a xlink:href="../../df/d49/_front_end_8c.html#a9ef75758f3b47f3c2639f7bb586d0375" target="_top" xlink:title="imprimeTablero">
<polygon fill="none" stroke="black" points="149.5,-0.5 149.5,-19.5 232.5,-19.5 232.5,-0.5 149.5,-0.5"/>
<text text-anchor="middle" x="191" y="-7.5" font-family="Helvetica,sans-Serif" font-size="10.00">imprimeTablero</text>
</a>
</g>
</g>
<!-- Node1&#45;&gt;Node29 -->
<g id="edge30" class="edge"><title>Node1&#45;&gt;Node29</title>
<path fill="none" stroke="midnightblue" d="M49.8143,-399.476C54.5407,-346.305 80.0586,-86.5018 132,-29 134.417,-26.3241 137.217,-24.0239 140.254,-22.0468"/>
<polygon fill="midnightblue" stroke="midnightblue" points="142.096,-25.0328 149.324,-17.2866 138.843,-18.8346 142.096,-25.0328"/>
</g>
<!-- Node6 -->
<g id="node6" class="node"><title>Node6</title>
<g id="a_node6"><a xlink:href="../../d0/d58/_back_end_8c.html#a173f42259c2058a7251f21420b9bac1b" target="_top" xlink:title="elimAd">
<polygon fill="none" stroke="black" points="305.5,-684.5 305.5,-703.5 352.5,-703.5 352.5,-684.5 305.5,-684.5"/>
<text text-anchor="middle" x="329" y="-691.5" font-family="Helvetica,sans-Serif" font-size="10.00">elimAd</text>
</a>
</g>
</g>
<!-- Node5&#45;&gt;Node6 -->
<g id="edge5" class="edge"><title>Node5&#45;&gt;Node6</title>
<path fill="none" stroke="midnightblue" d="M216.001,-694C237.922,-694 270.532,-694 294.919,-694"/>
<polygon fill="midnightblue" stroke="midnightblue" points="295.144,-697.5 305.144,-694 295.144,-690.5 295.144,-697.5"/>
</g>
<!-- Node15&#45;&gt;Node16 -->
<g id="edge15" class="edge"><title>Node15&#45;&gt;Node16</title>
<path fill="none" stroke="midnightblue" d="M226.319,-418.411C246.244,-412.844 271.332,-405.834 291.601,-400.17"/>
<polygon fill="midnightblue" stroke="midnightblue" points="292.725,-403.49 301.415,-397.428 290.842,-396.749 292.725,-403.49"/>
</g>
<!-- Node19&#45;&gt;Node13 -->
<g id="edge19" class="edge"><title>Node19&#45;&gt;Node13</title>
<path fill="none" stroke="midnightblue" d="M227.072,-209.521C234.811,-212.158 242.834,-215.326 250,-219 271.708,-230.132 293.928,-247.015 309.071,-259.52"/>
<polygon fill="midnightblue" stroke="midnightblue" points="307.21,-262.53 317.111,-266.301 311.723,-257.178 307.21,-262.53"/>
</g>
<!-- Node21 -->
<g id="node21" class="node"><title>Node21</title>
<g id="a_node21"><a xlink:href="../../d0/d58/_back_end_8c.html#a30778fe7f3a7111df0132951b5a8cb9f" target="_top" xlink:title="gravedad">
<polygon fill="none" stroke="black" points="301,-114.5 301,-133.5 357,-133.5 357,-114.5 301,-114.5"/>
<text text-anchor="middle" x="329" y="-121.5" font-family="Helvetica,sans-Serif" font-size="10.00">gravedad</text>
</a>
</g>
</g>
<!-- Node20&#45;&gt;Node21 -->
<g id="edge22" class="edge"><title>Node20&#45;&gt;Node21</title>
<path fill="none" stroke="midnightblue" d="M225.618,-152.607C245.401,-147.079 270.454,-140.079 290.825,-134.387"/>
<polygon fill="midnightblue" stroke="midnightblue" points="292.011,-137.69 300.701,-131.628 290.128,-130.948 292.011,-137.69"/>
</g>
<!-- Node23 -->
<g id="node23" class="node"><title>Node23</title>
<g id="a_node23"><a xlink:href="../../d0/d58/_back_end_8c.html#add1cf658d13603c789cb641681a863cc" target="_top" xlink:title="nullCols">
<polygon fill="none" stroke="black" points="303,-190.5 303,-209.5 355,-209.5 355,-190.5 303,-190.5"/>
<text text-anchor="middle" x="329" y="-197.5" font-family="Helvetica,sans-Serif" font-size="10.00">nullCols</text>
</a>
</g>
</g>
<!-- Node20&#45;&gt;Node23 -->
<g id="edge24" class="edge"><title>Node20&#45;&gt;Node23</title>
<path fill="none" stroke="midnightblue" d="M225.618,-171.393C246.168,-177.135 272.402,-184.465 293.17,-190.268"/>
<polygon fill="midnightblue" stroke="midnightblue" points="292.304,-193.66 302.877,-192.98 294.188,-186.918 292.304,-193.66"/>
</g>
<!-- Node24 -->
<g id="node24" class="node"><title>Node24</title>
<g id="a_node24"><a xlink:href="../../d0/d58/_back_end_8c.html#a7966b82c6fb095984645478900337cd4" target="_top" xlink:title="calcularPuntaje">
<polygon fill="none" stroke="black" points="287.5,-152.5 287.5,-171.5 370.5,-171.5 370.5,-152.5 287.5,-152.5"/>
<text text-anchor="middle" x="329" y="-159.5" font-family="Helvetica,sans-Serif" font-size="10.00">calcularPuntaje</text>
</a>
</g>
</g>
<!-- Node20&#45;&gt;Node24 -->
<g id="edge25" class="edge"><title>Node20&#45;&gt;Node24</title>
<path fill="none" stroke="midnightblue" d="M225.618,-162C240.991,-162 259.545,-162 276.613,-162"/>
<polygon fill="midnightblue" stroke="midnightblue" points="277.005,-165.5 287.005,-162 277.005,-158.5 277.005,-165.5"/>
</g>
<!-- Node22 -->
<g id="node22" class="node"><title>Node22</title>
<g id="a_node22"><a xlink:href="../../d0/d58/_back_end_8c.html#af6e26bc55afeec730efa1a694027de82" target="_top" xlink:title="decalarFils">
<polygon fill="none" stroke="black" points="413,-114.5 413,-133.5 477,-133.5 477,-114.5 413,-114.5"/>
<text text-anchor="middle" x="445" y="-121.5" font-family="Helvetica,sans-Serif" font-size="10.00">decalarFils</text>
</a>
</g>
</g>
<!-- Node21&#45;&gt;Node22 -->
<g id="edge23" class="edge"><title>Node21&#45;&gt;Node22</title>
<path fill="none" stroke="midnightblue" d="M357.016,-124C370.605,-124 387.371,-124 402.546,-124"/>
<polygon fill="midnightblue" stroke="midnightblue" points="402.738,-127.5 412.738,-124 402.738,-120.5 402.738,-127.5"/>
</g>
<!-- Node28 -->
<g id="node28" class="node"><title>Node28</title>
<g id="a_node28"><a xlink:href="../../d0/d58/_back_end_8c.html#ac7c84a2ee121281c8f0d9c49c3dbb58e" target="_top" xlink:title="algunAdyacente">
<polygon fill="none" stroke="black" points="286,-38.5 286,-57.5 372,-57.5 372,-38.5 286,-38.5"/>
<text text-anchor="middle" x="329" y="-45.5" font-family="Helvetica,sans-Serif" font-size="10.00">algunAdyacente</text>
</a>
</g>
</g>
<!-- Node27&#45;&gt;Node28 -->
<g id="edge29" class="edge"><title>Node27&#45;&gt;Node28</title>
<path fill="none" stroke="midnightblue" d="M229.523,-48C243.704,-48 260.116,-48 275.426,-48"/>
<polygon fill="midnightblue" stroke="midnightblue" points="275.809,-51.5001 285.809,-48 275.809,-44.5001 275.809,-51.5001"/>
</g>
<!-- Node30 -->
<g id="node30" class="node"><title>Node30</title>
<g id="a_node30"><a xlink:href="../../df/d49/_front_end_8c.html#ad30237987566e160cc3530480d4514fc" target="_top" xlink:title="imprimirColor">
<polygon fill="none" stroke="black" points="292,-0.5 292,-19.5 366,-19.5 366,-0.5 292,-0.5"/>
<text text-anchor="middle" x="329" y="-7.5" font-family="Helvetica,sans-Serif" font-size="10.00">imprimirColor</text>
</a>
</g>
</g>
<!-- Node29&#45;&gt;Node30 -->
<g id="edge31" class="edge"><title>Node29&#45;&gt;Node30</title>
<path fill="none" stroke="midnightblue" d="M232.804,-10C248.208,-10 265.841,-10 281.711,-10"/>
<polygon fill="midnightblue" stroke="midnightblue" points="281.845,-13.5001 291.845,-10 281.845,-6.5001 281.845,-13.5001"/>
</g>
<!-- Node31 -->
<g id="node31" class="node"><title>Node31</title>
<g id="a_node31"><a xlink:href="../../df/d49/_front_end_8c.html#ac5da14380ebbd7eb58146932f909ec19" target="_top" xlink:title="cambiarColor">
<polygon fill="none" stroke="black" points="408,-0.5 408,-19.5 482,-19.5 482,-0.5 408,-0.5"/>
<text text-anchor="middle" x="445" y="-7.5" font-family="Helvetica,sans-Serif" font-size="10.00">cambiarColor</text>
</a>
</g>
</g>
<!-- Node30&#45;&gt;Node31 -->
<g id="edge32" class="edge"><title>Node30&#45;&gt;Node31</title>
<path fill="none" stroke="midnightblue" d="M366.07,-10C376.051,-10 387.025,-10 397.509,-10"/>
<polygon fill="midnightblue" stroke="midnightblue" points="397.773,-13.5001 407.773,-10 397.773,-6.5001 397.773,-13.5001"/>
</g>
</g>
</svg>
