<?xml version="1.0" encoding="UTF-8" standalone="no"?>
<!DOCTYPE svg PUBLIC "-//W3C//DTD SVG 1.1//EN"
 "http://www.w3.org/Graphics/SVG/1.1/DTD/svg11.dtd">
<!-- Generated by graphviz version 2.31.20130601.0447 (20130601.0447)
 -->
<!-- Title: columna Pages: 1 -->
<svg width="272pt" height="65pt"
 viewBox="0.00 0.00 272.00 65.00" xmlns="http://www.w3.org/2000/svg" xmlns:xlink="http://www.w3.org/1999/xlink">
<g id="graph0" class="graph" transform="scale(1 1) rotate(0) translate(4 61)">
<title>columna</title>
<polygon fill="white" stroke="white" points="-4,5 -4,-61 269,-61 269,5 -4,5"/>
<!-- Node1 -->
<g id="node1" class="node"><title>Node1</title>
<polygon fill="#bfbfbf" stroke="black" points="0.5,-0.5 0.5,-19.5 53.5,-19.5 53.5,-0.5 0.5,-0.5"/>
<text text-anchor="middle" x="27" y="-7.5" font-family="Helvetica,sans-Serif" font-size="10.00">columna</text>
</g>
<!-- Node2 -->
<g id="node2" class="node"><title>Node2</title>
<g id="a_node2"><a xlink:href="../../d0/d58/_back_end_8c.html#a46f1634881e03d6ecb9fd358e9c9bacb" target="_top" xlink:title="validarColumna">
<polygon fill="white" stroke="black" points="90,-19.5 90,-38.5 174,-38.5 174,-19.5 90,-19.5"/>
<text text-anchor="middle" x="132" y="-26.5" font-family="Helvetica,sans-Serif" font-size="10.00">validarColumna</text>
</a>
</g>
</g>
<!-- Node1&#45;&gt;Node2 -->
<g id="edge1" class="edge"><title>Node1&#45;&gt;Node2</title>
<path fill="none" stroke="midnightblue" d="M53.7256,-14.7455C61.7771,-16.2307 70.961,-17.9249 80.1189,-19.6142"/>
<polygon fill="midnightblue" stroke="midnightblue" points="79.5221,-23.063 89.9911,-21.4352 80.792,-16.1792 79.5221,-23.063"/>
</g>
<!-- Node3 -->
<g id="node3" class="node"><title>Node3</title>
<g id="a_node3"><a xlink:href="../../d0/d58/_back_end_8c.html#a899f99bc3a99d14a7ff1029d4c7c5112" target="_top" xlink:title="columna">
<polygon fill="white" stroke="black" points="210.5,-19.5 210.5,-38.5 263.5,-38.5 263.5,-19.5 210.5,-19.5"/>
<text text-anchor="middle" x="237" y="-26.5" font-family="Helvetica,sans-Serif" font-size="10.00">columna</text>
</a>
</g>
</g>
<!-- Node1&#45;&gt;Node3 -->
<g id="edge5" class="edge"><title>Node1&#45;&gt;Node3</title>
<path fill="none" stroke="midnightblue" d="M53.7534,-7.7076C83.0572,-5.62864 132.262,-3.74822 174,-10 182.979,-11.345 192.454,-13.7282 201.221,-16.362"/>
<polygon fill="midnightblue" stroke="midnightblue" points="200.164,-19.6985 210.755,-19.4002 202.29,-13.029 200.164,-19.6985"/>
</g>
<!-- Node2&#45;&gt;Node3 -->
<g id="edge2" class="edge"><title>Node2&#45;&gt;Node3</title>
<path fill="none" stroke="midnightblue" d="M174.004,-22.3762C182.603,-22.1668 191.61,-22.218 200.01,-22.5298"/>
<polygon fill="midnightblue" stroke="midnightblue" points="200.08,-26.0381 210.249,-23.064 200.445,-19.0476 200.08,-26.0381"/>
</g>
<!-- Node3&#45;&gt;Node2 -->
<g id="edge3" class="edge"><title>Node3&#45;&gt;Node2</title>
<path fill="none" stroke="midnightblue" d="M210.249,-34.936C202.286,-35.4855 193.217,-35.7568 184.162,-35.7499"/>
<polygon fill="midnightblue" stroke="midnightblue" points="184.047,-32.2483 174.004,-35.6238 183.96,-39.2477 184.047,-32.2483"/>
</g>
<!-- Node3&#45;&gt;Node3 -->
<g id="edge4" class="edge"><title>Node3&#45;&gt;Node3</title>
<path fill="none" stroke="midnightblue" d="M220.971,-38.7571C213.172,-47.5653 218.516,-57 237,-57 248.553,-57 254.972,-53.3146 256.258,-48.4"/>
<polygon fill="midnightblue" stroke="midnightblue" points="259.524,-47.1283 253.029,-38.7571 252.886,-49.3509 259.524,-47.1283"/>
</g>
</g>
</svg>
