<?xml version="1.0" encoding="UTF-8" standalone="no"?>
<!DOCTYPE svg PUBLIC "-//W3C//DTD SVG 1.1//EN"
 "http://www.w3.org/Graphics/SVG/1.1/DTD/svg11.dtd">
<!-- Generated by graphviz version 2.31.20130601.0447 (20130601.0447)
 -->
<!-- Title: hilera Pages: 1 -->
<svg width="232pt" height="65pt"
 viewBox="0.00 0.00 232.00 65.00" xmlns="http://www.w3.org/2000/svg" xmlns:xlink="http://www.w3.org/1999/xlink">
<g id="graph0" class="graph" transform="scale(1 1) rotate(0) translate(4 61)">
<title>hilera</title>
<polygon fill="white" stroke="white" points="-4,5 -4,-61 229,-61 229,5 -4,5"/>
<!-- Node1 -->
<g id="node1" class="node"><title>Node1</title>
<polygon fill="#bfbfbf" stroke="black" points="0,-0.5 0,-19.5 40,-19.5 40,-0.5 0,-0.5"/>
<text text-anchor="middle" x="20" y="-7.5" font-family="Helvetica,sans-Serif" font-size="10.00">hilera</text>
</g>
<!-- Node2 -->
<g id="node2" class="node"><title>Node2</title>
<g id="a_node2"><a xlink:href="../../d0/d58/_back_end_8c.html#a2282e1ad01efd232ad71f53149715428" target="_top" xlink:title="validarHilera">
<polygon fill="white" stroke="black" points="76.5,-19.5 76.5,-38.5 147.5,-38.5 147.5,-19.5 76.5,-19.5"/>
<text text-anchor="middle" x="112" y="-26.5" font-family="Helvetica,sans-Serif" font-size="10.00">validarHilera</text>
</a>
</g>
</g>
<!-- Node1&#45;&gt;Node2 -->
<g id="edge1" class="edge"><title>Node1&#45;&gt;Node2</title>
<path fill="none" stroke="midnightblue" d="M40.0867,-14.0294C47.8169,-15.6613 57.0946,-17.62 66.3525,-19.5744"/>
<polygon fill="midnightblue" stroke="midnightblue" points="65.809,-23.0367 76.3163,-21.6779 67.2549,-16.1877 65.809,-23.0367"/>
</g>
<!-- Node3 -->
<g id="node3" class="node"><title>Node3</title>
<g id="a_node3"><a xlink:href="../../d0/d58/_back_end_8c.html#a09a5d17b0315f47960b4c7228eb060f3" target="_top" xlink:title="hilera">
<polygon fill="white" stroke="black" points="184,-19.5 184,-38.5 224,-38.5 224,-19.5 184,-19.5"/>
<text text-anchor="middle" x="204" y="-26.5" font-family="Helvetica,sans-Serif" font-size="10.00">hilera</text>
</a>
</g>
</g>
<!-- Node1&#45;&gt;Node3 -->
<g id="edge5" class="edge"><title>Node1&#45;&gt;Node3</title>
<path fill="none" stroke="midnightblue" d="M40.0975,-8.04515C65.091,-5.93137 110.165,-3.64896 148,-10 156.712,-11.4624 165.89,-14.1427 174.198,-17.0381"/>
<polygon fill="midnightblue" stroke="midnightblue" points="173.219,-20.4081 183.812,-20.6093 175.657,-13.8462 173.219,-20.4081"/>
</g>
<!-- Node2&#45;&gt;Node3 -->
<g id="edge2" class="edge"><title>Node2&#45;&gt;Node3</title>
<path fill="none" stroke="midnightblue" d="M147.539,-22.4148C156.183,-22.1379 165.372,-22.2099 173.732,-22.6309"/>
<polygon fill="midnightblue" stroke="midnightblue" points="173.551,-26.1268 183.776,-23.3507 174.051,-19.1447 173.551,-26.1268"/>
</g>
<!-- Node3&#45;&gt;Node2 -->
<g id="edge3" class="edge"><title>Node3&#45;&gt;Node2</title>
<path fill="none" stroke="midnightblue" d="M183.776,-34.6493C176.113,-35.3888 166.946,-35.7556 157.79,-35.7499"/>
<polygon fill="midnightblue" stroke="midnightblue" points="157.594,-32.2464 147.539,-35.5852 157.481,-39.2455 157.594,-32.2464"/>
</g>
<!-- Node3&#45;&gt;Node3 -->
<g id="edge4" class="edge"><title>Node3&#45;&gt;Node3</title>
<path fill="none" stroke="midnightblue" d="M189.82,-38.7571C182.922,-47.5653 187.648,-57 204,-57 214.22,-57 219.898,-53.3146 221.036,-48.4"/>
<polygon fill="midnightblue" stroke="midnightblue" points="224.376,-47.3512 218.18,-38.7571 217.664,-49.3393 224.376,-47.3512"/>
</g>
</g>
</svg>
