<?xml version="1.0" encoding="UTF-8" standalone="no"?>
<!DOCTYPE svg PUBLIC "-//W3C//DTD SVG 1.1//EN"
 "http://www.w3.org/Graphics/SVG/1.1/DTD/svg11.dtd">
<!-- Generated by graphviz version 2.31.20130601.0447 (20130601.0447)
 -->
<!-- Title: eliminar Pages: 1 -->
<svg width="174pt" height="66pt"
 viewBox="0.00 0.00 174.00 66.00" xmlns="http://www.w3.org/2000/svg" xmlns:xlink="http://www.w3.org/1999/xlink">
<g id="graph0" class="graph" transform="scale(1 1) rotate(0) translate(4 62)">
<title>eliminar</title>
<polygon fill="white" stroke="white" points="-4,5 -4,-62 171,-62 171,5 -4,5"/>
<!-- Node1 -->
<g id="node1" class="node"><title>Node1</title>
<polygon fill="#bfbfbf" stroke="black" points="0,-19.5 0,-38.5 50,-38.5 50,-19.5 0,-19.5"/>
<text text-anchor="middle" x="25" y="-26.5" font-family="Helvetica,sans-Serif" font-size="10.00">eliminar</text>
</g>
<!-- Node2 -->
<g id="node2" class="node"><title>Node2</title>
<g id="a_node2"><a xlink:href="../../d0/d58/_back_end_8c.html#ae6a7cdeddbc37697910cb072a1b0b7c2" target="_top" xlink:title="validarEliminar">
<polygon fill="white" stroke="black" points="86,-38.5 86,-57.5 166,-57.5 166,-38.5 86,-38.5"/>
<text text-anchor="middle" x="126" y="-45.5" font-family="Helvetica,sans-Serif" font-size="10.00">validarEliminar</text>
</a>
</g>
</g>
<!-- Node1&#45;&gt;Node2 -->
<g id="edge1" class="edge"><title>Node1&#45;&gt;Node2</title>
<path fill="none" stroke="midnightblue" d="M50.2181,-33.6479C58.0373,-35.1486 67.0069,-36.87 75.9566,-38.5876"/>
<polygon fill="midnightblue" stroke="midnightblue" points="75.5098,-42.0657 85.9903,-40.5133 76.8292,-35.1911 75.5098,-42.0657"/>
</g>
<!-- Node3 -->
<g id="node3" class="node"><title>Node3</title>
<g id="a_node3"><a xlink:href="../../d0/d58/_back_end_8c.html#a173f42259c2058a7251f21420b9bac1b" target="_top" xlink:title="elimAd">
<polygon fill="white" stroke="black" points="102.5,-0.5 102.5,-19.5 149.5,-19.5 149.5,-0.5 102.5,-0.5"/>
<text text-anchor="middle" x="126" y="-7.5" font-family="Helvetica,sans-Serif" font-size="10.00">elimAd</text>
</a>
</g>
</g>
<!-- Node1&#45;&gt;Node3 -->
<g id="edge2" class="edge"><title>Node1&#45;&gt;Node3</title>
<path fill="none" stroke="midnightblue" d="M50.2181,-24.3521C62.8994,-21.9183 78.6068,-18.9037 92.3476,-16.2666"/>
<polygon fill="midnightblue" stroke="midnightblue" points="93.2281,-19.6616 102.389,-14.3394 91.9087,-12.787 93.2281,-19.6616"/>
</g>
</g>
</svg>
