<?xml version="1.0" encoding="UTF-8" standalone="no"?>
<!DOCTYPE svg PUBLIC "-//W3C//DTD SVG 1.1//EN"
 "http://www.w3.org/Graphics/SVG/1.1/DTD/svg11.dtd">
<!-- Generated by graphviz version 2.31.20130601.0447 (20130601.0447)
 -->
<!-- Title: Sources/tilesFront.h Pages: 1 -->
<svg width="137pt" height="84pt"
 viewBox="0.00 0.00 137.00 84.00" xmlns="http://www.w3.org/2000/svg" xmlns:xlink="http://www.w3.org/1999/xlink">
<g id="graph0" class="graph" transform="scale(1 1) rotate(0) translate(4 80)">
<title>Sources/tilesFront.h</title>
<!-- Node1 -->
<g id="node1" class="node"><title>Node1</title>
<polygon fill="#bfbfbf" stroke="black" points="17,-56.5 17,-75.5 121,-75.5 121,-56.5 17,-56.5"/>
<text text-anchor="middle" x="69" y="-63.5" font-family="Helvetica,sans-Serif" font-size="10.00">Sources/tilesFront.h</text>
</g>
<!-- Node2 -->
<g id="node2" class="node"><title>Node2</title>
<g id="a_node2"><a xlink:href="../../d5/dd5/tiles_back_8h.html" target="_top" xlink:title="tilesBack.h">
<polygon fill="none" stroke="black" points="-0.5,-0.5 -0.5,-19.5 64.5,-19.5 64.5,-0.5 -0.5,-0.5"/>
<text text-anchor="middle" x="32" y="-7.5" font-family="Helvetica,sans-Serif" font-size="10.00">tilesBack.h</text>
</a>
</g>
</g>
<!-- Node1&#45;&gt;Node2 -->
<g id="edge1" class="edge"><title>Node1&#45;&gt;Node2</title>
<path fill="none" stroke="midnightblue" d="M62.8902,-56.083C57.7178,-48.5341 50.1539,-37.4948 43.8056,-28.2298"/>
<polygon fill="midnightblue" stroke="midnightblue" points="46.5357,-26.0221 37.9961,-19.7511 40.7612,-29.9787 46.5357,-26.0221"/>
</g>
<!-- Node3 -->
<g id="node3" class="node"><title>Node3</title>
<polygon fill="none" stroke="#bfbfbf" points="83,-0.5 83,-19.5 129,-19.5 129,-0.5 83,-0.5"/>
<text text-anchor="middle" x="106" y="-7.5" font-family="Helvetica,sans-Serif" font-size="10.00">stdio.h</text>
</g>
<!-- Node1&#45;&gt;Node3 -->
<g id="edge2" class="edge"><title>Node1&#45;&gt;Node3</title>
<path fill="none" stroke="midnightblue" d="M75.1098,-56.083C80.2822,-48.5341 87.8461,-37.4948 94.1944,-28.2298"/>
<polygon fill="midnightblue" stroke="midnightblue" points="97.2388,-29.9787 100.004,-19.7511 91.4643,-26.0221 97.2388,-29.9787"/>
</g>
</g>
</svg>
