<?xml version="1.0" encoding="UTF-8" standalone="no"?>
<!DOCTYPE svg PUBLIC "-//W3C//DTD SVG 1.1//EN"
 "http://www.w3.org/Graphics/SVG/1.1/DTD/svg11.dtd">
<!-- Generated by graphviz version 2.31.20130601.0447 (20130601.0447)
 -->
<!-- Title: Menu Pages: 1 -->
<svg width="324pt" height="242pt"
 viewBox="0.00 0.00 324.00 242.17" xmlns="http://www.w3.org/2000/svg" xmlns:xlink="http://www.w3.org/1999/xlink">
<g id="graph0" class="graph" transform="scale(1 1) rotate(0) translate(4 238.171)">
<title>Menu</title>
<polygon fill="white" stroke="white" points="-4,5 -4,-238.171 321,-238.171 321,5 -4,5"/>
<!-- Node1 -->
<g id="node1" class="node"><title>Node1</title>
<polygon fill="#bfbfbf" stroke="black" points="0.5,-114.5 0.5,-133.5 41.5,-133.5 41.5,-114.5 0.5,-114.5"/>
<text text-anchor="middle" x="21" y="-121.5" font-family="Helvetica,sans-Serif" font-size="10.00">Menu</text>
</g>
<!-- Node2 -->
<g id="node2" class="node"><title>Node2</title>
<g id="a_node2"><a xlink:href="../../d4/d3f/getnum_8c.html#a2ceea39e7e1a07e7e4e0f1da5224b36e" target="_top" xlink:title="getint">
<polygon fill="white" stroke="black" points="246.5,-190.5 246.5,-209.5 287.5,-209.5 287.5,-190.5 246.5,-190.5"/>
<text text-anchor="middle" x="267" y="-197.5" font-family="Helvetica,sans-Serif" font-size="10.00">getint</text>
</a>
</g>
</g>
<!-- Node1&#45;&gt;Node2 -->
<g id="edge1" class="edge"><title>Node1&#45;&gt;Node2</title>
<path fill="none" stroke="midnightblue" d="M24.2525,-133.524C29.5861,-153.649 45.0856,-200.195 78,-219 127.942,-247.533 197.66,-228.07 236.639,-212.97"/>
<polygon fill="midnightblue" stroke="midnightblue" points="238.354,-216.053 246.317,-209.064 235.733,-209.562 238.354,-216.053"/>
</g>
<!-- Node3 -->
<g id="node3" class="node"><title>Node3</title>
<g id="a_node3"><a xlink:href="../../df/d49/_front_end_8c.html#adf030e2911563c8b12da80699b53277d" target="_top" xlink:title="PedidoDimenciones">
<polygon fill="white" stroke="black" points="78,-190.5 78,-209.5 182,-209.5 182,-190.5 78,-190.5"/>
<text text-anchor="middle" x="130" y="-197.5" font-family="Helvetica,sans-Serif" font-size="10.00">PedidoDimenciones</text>
</a>
</g>
</g>
<!-- Node1&#45;&gt;Node3 -->
<g id="edge2" class="edge"><title>Node1&#45;&gt;Node3</title>
<path fill="none" stroke="midnightblue" d="M29.3228,-133.755C39.1561,-146.252 57.749,-167.864 78,-181 80.9429,-182.909 84.1048,-184.664 87.3603,-186.269"/>
<polygon fill="midnightblue" stroke="midnightblue" points="86.1184,-189.547 96.6787,-190.401 88.9559,-183.148 86.1184,-189.547"/>
</g>
<!-- Node4 -->
<g id="node4" class="node"><title>Node4</title>
<g id="a_node4"><a xlink:href="../../df/d49/_front_end_8c.html#a767a1e350b410fc29bc0fc90012f1be9" target="_top" xlink:title="PedidoNivel">
<polygon fill="white" stroke="black" points="95.5,-152.5 95.5,-171.5 164.5,-171.5 164.5,-152.5 95.5,-152.5"/>
<text text-anchor="middle" x="130" y="-159.5" font-family="Helvetica,sans-Serif" font-size="10.00">PedidoNivel</text>
</a>
</g>
</g>
<!-- Node1&#45;&gt;Node4 -->
<g id="edge4" class="edge"><title>Node1&#45;&gt;Node4</title>
<path fill="none" stroke="midnightblue" d="M41.6254,-130.97C55.8478,-136.021 75.4958,-142.999 92.5584,-149.058"/>
<polygon fill="midnightblue" stroke="midnightblue" points="91.6505,-152.45 102.245,-152.498 93.9932,-145.853 91.6505,-152.45"/>
</g>
<!-- Node5 -->
<g id="node5" class="node"><title>Node5</title>
<g id="a_node5"><a xlink:href="../../df/d49/_front_end_8c.html#a34256005c9f46eff46dddfaf74a73427" target="_top" xlink:title="PedirNombreValido">
<polygon fill="white" stroke="black" points="79.5,-114.5 79.5,-133.5 180.5,-133.5 180.5,-114.5 79.5,-114.5"/>
<text text-anchor="middle" x="130" y="-121.5" font-family="Helvetica,sans-Serif" font-size="10.00">PedirNombreValido</text>
</a>
</g>
</g>
<!-- Node1&#45;&gt;Node5 -->
<g id="edge6" class="edge"><title>Node1&#45;&gt;Node5</title>
<path fill="none" stroke="midnightblue" d="M41.6254,-124C49.5893,-124 59.2543,-124 69.214,-124"/>
<polygon fill="midnightblue" stroke="midnightblue" points="69.2199,-127.5 79.2199,-124 69.2198,-120.5 69.2199,-127.5"/>
</g>
<!-- Node7 -->
<g id="node7" class="node"><title>Node7</title>
<g id="a_node7"><a xlink:href="../../df/d49/_front_end_8c.html#a4e81936deabcba0a90039b3d8fd54a27" target="_top" xlink:title="load">
<polygon fill="white" stroke="black" points="112.5,-76.5 112.5,-95.5 147.5,-95.5 147.5,-76.5 112.5,-76.5"/>
<text text-anchor="middle" x="130" y="-83.5" font-family="Helvetica,sans-Serif" font-size="10.00">load</text>
</a>
</g>
</g>
<!-- Node1&#45;&gt;Node7 -->
<g id="edge8" class="edge"><title>Node1&#45;&gt;Node7</title>
<path fill="none" stroke="midnightblue" d="M41.6254,-117.03C58.8088,-110.928 83.9121,-102.013 102.807,-95.3023"/>
<polygon fill="midnightblue" stroke="midnightblue" points="104.059,-98.5719 112.311,-91.9271 101.716,-91.9756 104.059,-98.5719"/>
</g>
<!-- Node9 -->
<g id="node9" class="node"><title>Node9</title>
<g id="a_node9"><a xlink:href="../../df/d49/_front_end_8c.html#ade56234c677e9f2fddee149cda63a52b" target="_top" xlink:title="printerror">
<polygon fill="white" stroke="black" points="102.5,-38.5 102.5,-57.5 157.5,-57.5 157.5,-38.5 102.5,-38.5"/>
<text text-anchor="middle" x="130" y="-45.5" font-family="Helvetica,sans-Serif" font-size="10.00">printerror</text>
</a>
</g>
</g>
<!-- Node1&#45;&gt;Node9 -->
<g id="edge10" class="edge"><title>Node1&#45;&gt;Node9</title>
<path fill="none" stroke="midnightblue" d="M29.3228,-114.245C39.1561,-101.748 57.749,-80.136 78,-67 82.6076,-64.0112 87.752,-61.4002 92.952,-59.1494"/>
<polygon fill="midnightblue" stroke="midnightblue" points="94.2442,-62.4022 102.268,-55.4833 91.6808,-55.8884 94.2442,-62.4022"/>
</g>
<!-- Node10 -->
<g id="node10" class="node"><title>Node10</title>
<g id="a_node10"><a xlink:href="../../df/d49/_front_end_8c.html#a1122e9d0c8a9c1c2fd33acf80cb51e44" target="_top" xlink:title="instrucciones">
<polygon fill="white" stroke="black" points="93,-0.5 93,-19.5 167,-19.5 167,-0.5 93,-0.5"/>
<text text-anchor="middle" x="130" y="-7.5" font-family="Helvetica,sans-Serif" font-size="10.00">instrucciones</text>
</a>
</g>
</g>
<!-- Node1&#45;&gt;Node10 -->
<g id="edge11" class="edge"><title>Node1&#45;&gt;Node10</title>
<path fill="none" stroke="midnightblue" d="M25.149,-114.473C31.8702,-95.5466 49.3831,-52.9761 78,-29 79.9962,-27.3275 82.1538,-25.7949 84.4149,-24.3914"/>
<polygon fill="midnightblue" stroke="midnightblue" points="86.3071,-27.3507 93.526,-19.5958 83.0467,-21.1563 86.3071,-27.3507"/>
</g>
<!-- Node3&#45;&gt;Node2 -->
<g id="edge3" class="edge"><title>Node3&#45;&gt;Node2</title>
<path fill="none" stroke="midnightblue" d="M182.038,-200C200.238,-200 220.139,-200 235.996,-200"/>
<polygon fill="midnightblue" stroke="midnightblue" points="236.257,-203.5 246.257,-200 236.257,-196.5 236.257,-203.5"/>
</g>
<!-- Node4&#45;&gt;Node2 -->
<g id="edge5" class="edge"><title>Node4&#45;&gt;Node2</title>
<path fill="none" stroke="midnightblue" d="M164.718,-171.491C186.866,-177.725 215.552,-185.8 236.738,-191.763"/>
<polygon fill="midnightblue" stroke="midnightblue" points="235.9,-195.163 246.475,-194.504 237.797,-188.425 235.9,-195.163"/>
</g>
<!-- Node6 -->
<g id="node6" class="node"><title>Node6</title>
<g id="a_node6"><a xlink:href="../../df/d49/_front_end_8c.html#a639b04a4f1cdc236e6d0ffbd51db0c95" target="_top" xlink:title="validFileName">
<polygon fill="white" stroke="black" points="227.5,-114.5 227.5,-133.5 306.5,-133.5 306.5,-114.5 227.5,-114.5"/>
<text text-anchor="middle" x="267" y="-121.5" font-family="Helvetica,sans-Serif" font-size="10.00">validFileName</text>
</a>
</g>
</g>
<!-- Node5&#45;&gt;Node6 -->
<g id="edge7" class="edge"><title>Node5&#45;&gt;Node6</title>
<path fill="none" stroke="midnightblue" d="M180.502,-124C192.492,-124 205.299,-124 217.254,-124"/>
<polygon fill="midnightblue" stroke="midnightblue" points="217.498,-127.5 227.498,-124 217.498,-120.5 217.498,-127.5"/>
</g>
<!-- Node8 -->
<g id="node8" class="node"><title>Node8</title>
<g id="a_node8"><a xlink:href="../../d0/d58/_back_end_8c.html#a4a69eef058d359d77e17632b3e41807e" target="_top" xlink:title="generarTableroNull">
<polygon fill="white" stroke="black" points="218,-76.5 218,-95.5 316,-95.5 316,-76.5 218,-76.5"/>
<text text-anchor="middle" x="267" y="-83.5" font-family="Helvetica,sans-Serif" font-size="10.00">generarTableroNull</text>
</a>
</g>
</g>
<!-- Node7&#45;&gt;Node8 -->
<g id="edge9" class="edge"><title>Node7&#45;&gt;Node8</title>
<path fill="none" stroke="midnightblue" d="M147.554,-86C162.628,-86 185.806,-86 207.674,-86"/>
<polygon fill="midnightblue" stroke="midnightblue" points="207.929,-89.5001 217.929,-86 207.929,-82.5001 207.929,-89.5001"/>
</g>
</g>
</svg>
