<?xml version="1.0" encoding="UTF-8" standalone="no"?>
<!DOCTYPE svg PUBLIC "-//W3C//DTD SVG 1.1//EN"
 "http://www.w3.org/Graphics/SVG/1.1/DTD/svg11.dtd">
<!-- Generated by graphviz version 2.31.20130601.0447 (20130601.0447)
 -->
<!-- Title: main Pages: 1 -->
<svg width="588pt" height="1268pt"
 viewBox="0.00 0.00 588.00 1267.75" xmlns="http://www.w3.org/2000/svg" xmlns:xlink="http://www.w3.org/1999/xlink">
<g id="graph0" class="graph" transform="scale(1 1) rotate(0) translate(4 1263.75)">
<title>main</title>
<polygon fill="white" stroke="white" points="-4,5 -4,-1263.75 585,-1263.75 585,5 -4,5"/>
<!-- Node1 -->
<g id="node1" class="node"><title>Node1</title>
<polygon fill="#bfbfbf" stroke="black" points="0,-912.5 0,-931.5 38,-931.5 38,-912.5 0,-912.5"/>
<text text-anchor="middle" x="19" y="-919.5" font-family="Helvetica,sans-Serif" font-size="10.00">main</text>
</g>
<!-- Node2 -->
<g id="node2" class="node"><title>Node2</title>
<g id="a_node2"><a xlink:href="../../d0/d58/_back_end_8c.html#ac5da14380ebbd7eb58146932f909ec19" target="_top" xlink:title="cambiarColor">
<polygon fill="white" stroke="black" points="506,-988.5 506,-1007.5 580,-1007.5 580,-988.5 506,-988.5"/>
<text text-anchor="middle" x="543" y="-995.5" font-family="Helvetica,sans-Serif" font-size="10.00">cambiarColor</text>
</a>
</g>
</g>
<!-- Node1&#45;&gt;Node2 -->
<g id="edge1" class="edge"><title>Node1&#45;&gt;Node2</title>
<path fill="none" stroke="midnightblue" d="M32.1087,-931.648C42.5819,-939.477 58.4484,-950.144 74,-956 220.206,-1011.06 409.574,-1007.24 495.702,-1001.83"/>
<polygon fill="midnightblue" stroke="midnightblue" points="496.185,-1005.3 505.93,-1001.15 495.719,-998.32 496.185,-1005.3"/>
</g>
<!-- Node3 -->
<g id="node3" class="node"><title>Node3</title>
<g id="a_node3"><a xlink:href="../../df/d49/_front_end_8c.html#aab334a05bc64bef008da24cca3fd83f2" target="_top" xlink:title="Menu">
<polygon fill="white" stroke="black" points="107.5,-1083.5 107.5,-1102.5 148.5,-1102.5 148.5,-1083.5 107.5,-1083.5"/>
<text text-anchor="middle" x="128" y="-1090.5" font-family="Helvetica,sans-Serif" font-size="10.00">Menu</text>
</a>
</g>
</g>
<!-- Node1&#45;&gt;Node3 -->
<g id="edge2" class="edge"><title>Node1&#45;&gt;Node3</title>
<path fill="none" stroke="midnightblue" d="M22.375,-931.818C28.2004,-954.436 44.8854,-1011.24 74,-1050 81.9254,-1060.55 92.9865,-1070.06 102.955,-1077.44"/>
<polygon fill="midnightblue" stroke="midnightblue" points="101.138,-1080.44 111.327,-1083.34 105.173,-1074.72 101.138,-1080.44"/>
</g>
<!-- Node10 -->
<g id="node10" class="node"><title>Node10</title>
<g id="a_node10"><a xlink:href="../../d0/d58/_back_end_8c.html#a4a69eef058d359d77e17632b3e41807e" target="_top" xlink:title="generarTableroNull">
<polygon fill="white" stroke="black" points="372,-1235.5 372,-1254.5 470,-1254.5 470,-1235.5 372,-1235.5"/>
<text text-anchor="middle" x="421" y="-1242.5" font-family="Helvetica,sans-Serif" font-size="10.00">generarTableroNull</text>
</a>
</g>
</g>
<!-- Node1&#45;&gt;Node10 -->
<g id="edge15" class="edge"><title>Node1&#45;&gt;Node10</title>
<path fill="none" stroke="midnightblue" d="M20.9075,-931.834C23.998,-961.253 36.1183,-1050.35 74,-1112 119.611,-1186.23 136.865,-1213.26 218,-1245 264.012,-1263 320.559,-1261.19 362.11,-1255.92"/>
<polygon fill="midnightblue" stroke="midnightblue" points="362.635,-1259.38 372.067,-1254.55 361.685,-1252.44 362.635,-1259.38"/>
</g>
<!-- Node11 -->
<g id="node11" class="node"><title>Node11</title>
<g id="a_node11"><a xlink:href="../../df/d49/_front_end_8c.html#ade56234c677e9f2fddee149cda63a52b" target="_top" xlink:title="printerror">
<polygon fill="white" stroke="black" points="393.5,-779.5 393.5,-798.5 448.5,-798.5 448.5,-779.5 393.5,-779.5"/>
<text text-anchor="middle" x="421" y="-786.5" font-family="Helvetica,sans-Serif" font-size="10.00">printerror</text>
</a>
</g>
</g>
<!-- Node1&#45;&gt;Node11 -->
<g id="edge14" class="edge"><title>Node1&#45;&gt;Node11</title>
<path fill="none" stroke="midnightblue" d="M22.3066,-912.46C27.6284,-892.721 42.7724,-847.533 74,-827 124.094,-794.062 304.388,-789.354 382.962,-788.903"/>
<polygon fill="midnightblue" stroke="midnightblue" points="383.362,-792.402 393.349,-788.865 383.337,-785.402 383.362,-792.402"/>
</g>
<!-- Node13 -->
<g id="node13" class="node"><title>Node13</title>
<g id="a_node13"><a xlink:href="../../d0/d58/_back_end_8c.html#a37a5c44c29c5bb93cba21bea04d67cf3" target="_top" xlink:title="Crear_Nivel">
<polygon fill="white" stroke="black" points="94,-912.5 94,-931.5 162,-931.5 162,-912.5 94,-912.5"/>
<text text-anchor="middle" x="128" y="-919.5" font-family="Helvetica,sans-Serif" font-size="10.00">Crear_Nivel</text>
</a>
</g>
</g>
<!-- Node1&#45;&gt;Node13 -->
<g id="edge16" class="edge"><title>Node1&#45;&gt;Node13</title>
<path fill="none" stroke="midnightblue" d="M38.1511,-922C50.5743,-922 67.6005,-922 83.4259,-922"/>
<polygon fill="midnightblue" stroke="midnightblue" points="83.5916,-925.5 93.5915,-922 83.5915,-918.5 83.5916,-925.5"/>
</g>
<!-- Node17 -->
<g id="node17" class="node"><title>Node17</title>
<g id="a_node17"><a xlink:href="../../df/d49/_front_end_8c.html#a330ec1027100b0b1f0829b22ee5a5415" target="_top" xlink:title="GuardarMATBitacora">
<polygon fill="white" stroke="black" points="74,-874.5 74,-893.5 182,-893.5 182,-874.5 74,-874.5"/>
<text text-anchor="middle" x="128" y="-881.5" font-family="Helvetica,sans-Serif" font-size="10.00">GuardarMATBitacora</text>
</a>
</g>
</g>
<!-- Node1&#45;&gt;Node17 -->
<g id="edge20" class="edge"><title>Node1&#45;&gt;Node17</title>
<path fill="none" stroke="midnightblue" d="M38.1511,-915.554C52.4385,-910.48 72.8139,-903.244 90.4492,-896.981"/>
<polygon fill="midnightblue" stroke="midnightblue" points="91.6566,-900.266 99.9086,-893.621 89.3139,-893.67 91.6566,-900.266"/>
</g>
<!-- Node18 -->
<g id="node18" class="node"><title>Node18</title>
<g id="a_node18"><a xlink:href="../../df/d49/_front_end_8c.html#aa9153d7104d4019dd7aaf1e8a5718445" target="_top" xlink:title="imprimirEstado">
<polygon fill="white" stroke="black" points="87,-836.5 87,-855.5 169,-855.5 169,-836.5 87,-836.5"/>
<text text-anchor="middle" x="128" y="-843.5" font-family="Helvetica,sans-Serif" font-size="10.00">imprimirEstado</text>
</a>
</g>
</g>
<!-- Node1&#45;&gt;Node18 -->
<g id="edge21" class="edge"><title>Node1&#45;&gt;Node18</title>
<path fill="none" stroke="midnightblue" d="M26.9584,-912.193C36.3294,-899.638 54.1383,-877.965 74,-865 76.9544,-863.071 80.1292,-861.309 83.4036,-859.704"/>
<polygon fill="midnightblue" stroke="midnightblue" points="85.0386,-862.809 92.795,-855.592 82.2308,-856.397 85.0386,-862.809"/>
</g>
<!-- Node19 -->
<g id="node19" class="node"><title>Node19</title>
<g id="a_node19"><a xlink:href="../../df/d49/_front_end_8c.html#a9ef75758f3b47f3c2639f7bb586d0375" target="_top" xlink:title="imprimeTablero">
<polygon fill="white" stroke="black" points="235.5,-912.5 235.5,-931.5 318.5,-931.5 318.5,-912.5 235.5,-912.5"/>
<text text-anchor="middle" x="277" y="-919.5" font-family="Helvetica,sans-Serif" font-size="10.00">imprimeTablero</text>
</a>
</g>
</g>
<!-- Node1&#45;&gt;Node19 -->
<g id="edge22" class="edge"><title>Node1&#45;&gt;Node19</title>
<path fill="none" stroke="midnightblue" d="M38.0835,-930.092C48.3821,-934.256 61.6564,-938.892 74,-941 126.174,-949.911 186.696,-941.815 227.789,-933.607"/>
<polygon fill="midnightblue" stroke="midnightblue" points="228.721,-936.988 237.801,-931.528 227.298,-930.134 228.721,-936.988"/>
</g>
<!-- Node21 -->
<g id="node21" class="node"><title>Node21</title>
<g id="a_node21"><a xlink:href="../../df/d49/_front_end_8c.html#ab336c463d2464cd3ca4bb0f653e93efd" target="_top" xlink:title="AccionesDeJuego">
<polygon fill="white" stroke="black" points="80,-418.5 80,-437.5 176,-437.5 176,-418.5 80,-418.5"/>
<text text-anchor="middle" x="128" y="-425.5" font-family="Helvetica,sans-Serif" font-size="10.00">AccionesDeJuego</text>
</a>
</g>
</g>
<!-- Node1&#45;&gt;Node21 -->
<g id="edge25" class="edge"><title>Node1&#45;&gt;Node21</title>
<path fill="none" stroke="midnightblue" d="M22.1374,-912.132C35.2317,-851.678 104.646,-531.205 122.703,-447.836"/>
<polygon fill="midnightblue" stroke="midnightblue" points="126.161,-448.406 124.858,-437.891 119.32,-446.924 126.161,-448.406"/>
</g>
<!-- Node4 -->
<g id="node4" class="node"><title>Node4</title>
<g id="a_node4"><a xlink:href="../../d4/d3f/getnum_8c.html#a2ceea39e7e1a07e7e4e0f1da5224b36e" target="_top" xlink:title="getint">
<polygon fill="white" stroke="black" points="400.5,-1102.5 400.5,-1121.5 441.5,-1121.5 441.5,-1102.5 400.5,-1102.5"/>
<text text-anchor="middle" x="421" y="-1109.5" font-family="Helvetica,sans-Serif" font-size="10.00">getint</text>
</a>
</g>
</g>
<!-- Node3&#45;&gt;Node4 -->
<g id="edge3" class="edge"><title>Node3&#45;&gt;Node4</title>
<path fill="none" stroke="midnightblue" d="M136.257,-1102.61C149.968,-1119.87 181.59,-1155.57 218,-1169 267.204,-1187.15 285.869,-1184.4 336,-1169 361.823,-1161.07 386.837,-1142.2 402.753,-1128.33"/>
<polygon fill="midnightblue" stroke="midnightblue" points="405.115,-1130.92 410.204,-1121.62 400.43,-1125.72 405.115,-1130.92"/>
</g>
<!-- Node5 -->
<g id="node5" class="node"><title>Node5</title>
<g id="a_node5"><a xlink:href="../../df/d49/_front_end_8c.html#adf030e2911563c8b12da80699b53277d" target="_top" xlink:title="PedidoDimenciones">
<polygon fill="white" stroke="black" points="225,-1102.5 225,-1121.5 329,-1121.5 329,-1102.5 225,-1102.5"/>
<text text-anchor="middle" x="277" y="-1109.5" font-family="Helvetica,sans-Serif" font-size="10.00">PedidoDimenciones</text>
</a>
</g>
</g>
<!-- Node3&#45;&gt;Node5 -->
<g id="edge4" class="edge"><title>Node3&#45;&gt;Node5</title>
<path fill="none" stroke="midnightblue" d="M148.52,-1095.52C165.468,-1097.71 190.949,-1101.01 214.686,-1104.08"/>
<polygon fill="midnightblue" stroke="midnightblue" points="214.356,-1107.56 224.722,-1105.37 215.253,-1100.62 214.356,-1107.56"/>
</g>
<!-- Node6 -->
<g id="node6" class="node"><title>Node6</title>
<g id="a_node6"><a xlink:href="../../df/d49/_front_end_8c.html#a767a1e350b410fc29bc0fc90012f1be9" target="_top" xlink:title="PedidoNivel">
<polygon fill="white" stroke="black" points="242.5,-1064.5 242.5,-1083.5 311.5,-1083.5 311.5,-1064.5 242.5,-1064.5"/>
<text text-anchor="middle" x="277" y="-1071.5" font-family="Helvetica,sans-Serif" font-size="10.00">PedidoNivel</text>
</a>
</g>
</g>
<!-- Node3&#45;&gt;Node6 -->
<g id="edge6" class="edge"><title>Node3&#45;&gt;Node6</title>
<path fill="none" stroke="midnightblue" d="M148.52,-1090.48C169.712,-1087.74 204.245,-1083.27 232.027,-1079.68"/>
<polygon fill="midnightblue" stroke="midnightblue" points="232.834,-1083.11 242.303,-1078.36 231.936,-1076.17 232.834,-1083.11"/>
</g>
<!-- Node7 -->
<g id="node7" class="node"><title>Node7</title>
<g id="a_node7"><a xlink:href="../../df/d49/_front_end_8c.html#a34256005c9f46eff46dddfaf74a73427" target="_top" xlink:title="PedirNombreValido">
<polygon fill="white" stroke="black" points="226.5,-722.5 226.5,-741.5 327.5,-741.5 327.5,-722.5 226.5,-722.5"/>
<text text-anchor="middle" x="277" y="-729.5" font-family="Helvetica,sans-Serif" font-size="10.00">PedirNombreValido</text>
</a>
</g>
</g>
<!-- Node3&#45;&gt;Node7 -->
<g id="edge8" class="edge"><title>Node3&#45;&gt;Node7</title>
<path fill="none" stroke="midnightblue" d="M132.447,-1083.43C141.044,-1059.5 164.029,-995.105 182,-941 198.749,-890.576 195.995,-875.362 218,-827 230.871,-798.712 250.461,-768.473 263.248,-749.898"/>
<polygon fill="midnightblue" stroke="midnightblue" points="266.224,-751.751 269.082,-741.548 260.486,-747.742 266.224,-751.751"/>
</g>
<!-- Node9 -->
<g id="node9" class="node"><title>Node9</title>
<g id="a_node9"><a xlink:href="../../df/d49/_front_end_8c.html#a4e81936deabcba0a90039b3d8fd54a27" target="_top" xlink:title="load">
<polygon fill="white" stroke="black" points="259.5,-1216.5 259.5,-1235.5 294.5,-1235.5 294.5,-1216.5 259.5,-1216.5"/>
<text text-anchor="middle" x="277" y="-1223.5" font-family="Helvetica,sans-Serif" font-size="10.00">load</text>
</a>
</g>
</g>
<!-- Node3&#45;&gt;Node9 -->
<g id="edge10" class="edge"><title>Node3&#45;&gt;Node9</title>
<path fill="none" stroke="midnightblue" d="M134.657,-1102.81C147.168,-1123.72 179.178,-1173.14 218,-1202 227.478,-1209.04 239.325,-1214.43 249.836,-1218.29"/>
<polygon fill="midnightblue" stroke="midnightblue" points="248.79,-1221.63 259.385,-1221.53 251.042,-1215 248.79,-1221.63"/>
</g>
<!-- Node3&#45;&gt;Node11 -->
<g id="edge12" class="edge"><title>Node3&#45;&gt;Node11</title>
<path fill="none" stroke="midnightblue" d="M148.666,-1084.16C194.748,-1063.13 307.934,-1009.62 336,-979 382.816,-927.916 406.674,-846.494 415.665,-809.042"/>
<polygon fill="midnightblue" stroke="midnightblue" points="419.164,-809.443 417.987,-798.913 412.341,-807.879 419.164,-809.443"/>
</g>
<!-- Node12 -->
<g id="node12" class="node"><title>Node12</title>
<g id="a_node12"><a xlink:href="../../df/d49/_front_end_8c.html#a1122e9d0c8a9c1c2fd33acf80cb51e44" target="_top" xlink:title="instrucciones">
<polygon fill="white" stroke="black" points="240,-1140.5 240,-1159.5 314,-1159.5 314,-1140.5 240,-1140.5"/>
<text text-anchor="middle" x="277" y="-1147.5" font-family="Helvetica,sans-Serif" font-size="10.00">instrucciones</text>
</a>
</g>
</g>
<!-- Node3&#45;&gt;Node12 -->
<g id="edge13" class="edge"><title>Node3&#45;&gt;Node12</title>
<path fill="none" stroke="midnightblue" d="M148.596,-1101.95C166.497,-1109.98 193.786,-1121.88 218,-1131 223.59,-1133.1 229.531,-1135.2 235.397,-1137.2"/>
<polygon fill="midnightblue" stroke="midnightblue" points="234.53,-1140.6 245.123,-1140.44 236.741,-1133.96 234.53,-1140.6"/>
</g>
<!-- Node5&#45;&gt;Node4 -->
<g id="edge5" class="edge"><title>Node5&#45;&gt;Node4</title>
<path fill="none" stroke="midnightblue" d="M329.265,-1112C349.659,-1112 372.413,-1112 390.034,-1112"/>
<polygon fill="midnightblue" stroke="midnightblue" points="390.274,-1115.5 400.274,-1112 390.274,-1108.5 390.274,-1115.5"/>
</g>
<!-- Node6&#45;&gt;Node4 -->
<g id="edge7" class="edge"><title>Node6&#45;&gt;Node4</title>
<path fill="none" stroke="midnightblue" d="M311.652,-1083.01C335.549,-1089.4 367.337,-1097.91 390.295,-1104.05"/>
<polygon fill="midnightblue" stroke="midnightblue" points="389.597,-1107.49 400.162,-1106.69 391.407,-1100.73 389.597,-1107.49"/>
</g>
<!-- Node8 -->
<g id="node8" class="node"><title>Node8</title>
<g id="a_node8"><a xlink:href="../../df/d49/_front_end_8c.html#a639b04a4f1cdc236e6d0ffbd51db0c95" target="_top" xlink:title="validFileName">
<polygon fill="white" stroke="black" points="381.5,-646.5 381.5,-665.5 460.5,-665.5 460.5,-646.5 381.5,-646.5"/>
<text text-anchor="middle" x="421" y="-653.5" font-family="Helvetica,sans-Serif" font-size="10.00">validFileName</text>
</a>
</g>
</g>
<!-- Node7&#45;&gt;Node8 -->
<g id="edge9" class="edge"><title>Node7&#45;&gt;Node8</title>
<path fill="none" stroke="midnightblue" d="M312.368,-722.5C320.299,-719.829 328.581,-716.642 336,-713 359.226,-701.597 383.439,-684.527 399.868,-672.039"/>
<polygon fill="midnightblue" stroke="midnightblue" points="402.373,-674.527 408.139,-665.638 398.088,-668.991 402.373,-674.527"/>
</g>
<!-- Node9&#45;&gt;Node10 -->
<g id="edge11" class="edge"><title>Node9&#45;&gt;Node10</title>
<path fill="none" stroke="midnightblue" d="M294.567,-1228.22C311.157,-1230.44 337.655,-1233.98 362.031,-1237.24"/>
<polygon fill="midnightblue" stroke="midnightblue" points="361.579,-1240.71 371.955,-1238.57 362.507,-1233.78 361.579,-1240.71"/>
</g>
<!-- Node14 -->
<g id="node14" class="node"><title>Node14</title>
<g id="a_node14"><a xlink:href="../../d0/d58/_back_end_8c.html#a6d4a41e7bc5f6048526fe21ad6517815" target="_top" xlink:title="bonus">
<polygon fill="white" stroke="black" points="255.5,-874.5 255.5,-893.5 298.5,-893.5 298.5,-874.5 255.5,-874.5"/>
<text text-anchor="middle" x="277" y="-881.5" font-family="Helvetica,sans-Serif" font-size="10.00">bonus</text>
</a>
</g>
</g>
<!-- Node13&#45;&gt;Node14 -->
<g id="edge17" class="edge"><title>Node13&#45;&gt;Node14</title>
<path fill="none" stroke="midnightblue" d="M162.357,-913.377C187.409,-906.901 221.438,-898.104 245.714,-891.829"/>
<polygon fill="midnightblue" stroke="midnightblue" points="246.66,-895.2 255.466,-889.308 244.908,-888.422 246.66,-895.2"/>
</g>
<!-- Node15 -->
<g id="node15" class="node"><title>Node15</title>
<g id="a_node15"><a xlink:href="../../d0/d58/_back_end_8c.html#a30d0a5aa94284ccfc8d3840f436edde7" target="_top" xlink:title="liberarMatriz">
<polygon fill="white" stroke="black" points="242,-836.5 242,-855.5 312,-855.5 312,-836.5 242,-836.5"/>
<text text-anchor="middle" x="277" y="-843.5" font-family="Helvetica,sans-Serif" font-size="10.00">liberarMatriz</text>
</a>
</g>
</g>
<!-- Node13&#45;&gt;Node15 -->
<g id="edge18" class="edge"><title>Node13&#45;&gt;Node15</title>
<path fill="none" stroke="midnightblue" d="M162.09,-912.84C168.959,-910.209 175.943,-906.954 182,-903 201.481,-890.283 198.345,-877.446 218,-865 222.419,-862.202 227.29,-859.777 232.274,-857.684"/>
<polygon fill="midnightblue" stroke="midnightblue" points="233.783,-860.856 241.911,-854.06 231.319,-854.304 233.783,-860.856"/>
</g>
<!-- Node16 -->
<g id="node16" class="node"><title>Node16</title>
<g id="a_node16"><a xlink:href="../../d0/d58/_back_end_8c.html#a6d8e745b1bdf6f3ae9502cc947de72ac" target="_top" xlink:title="generarTablero">
<polygon fill="white" stroke="black" points="236.5,-950.5 236.5,-969.5 317.5,-969.5 317.5,-950.5 236.5,-950.5"/>
<text text-anchor="middle" x="277" y="-957.5" font-family="Helvetica,sans-Serif" font-size="10.00">generarTablero</text>
</a>
</g>
</g>
<!-- Node13&#45;&gt;Node16 -->
<g id="edge19" class="edge"><title>Node13&#45;&gt;Node16</title>
<path fill="none" stroke="midnightblue" d="M162.357,-930.623C182.19,-935.75 207.65,-942.331 229.442,-947.965"/>
<polygon fill="midnightblue" stroke="midnightblue" points="228.606,-951.363 239.164,-950.478 230.358,-944.586 228.606,-951.363"/>
</g>
<!-- Node20 -->
<g id="node20" class="node"><title>Node20</title>
<g id="a_node20"><a xlink:href="../../df/d49/_front_end_8c.html#ad30237987566e160cc3530480d4514fc" target="_top" xlink:title="imprimirColor">
<polygon fill="white" stroke="black" points="384,-950.5 384,-969.5 458,-969.5 458,-950.5 384,-950.5"/>
<text text-anchor="middle" x="421" y="-957.5" font-family="Helvetica,sans-Serif" font-size="10.00">imprimirColor</text>
</a>
</g>
</g>
<!-- Node19&#45;&gt;Node20 -->
<g id="edge23" class="edge"><title>Node19&#45;&gt;Node20</title>
<path fill="none" stroke="midnightblue" d="M313.833,-931.589C332.163,-936.494 354.678,-942.52 374.25,-947.757"/>
<polygon fill="midnightblue" stroke="midnightblue" points="373.614,-951.21 384.179,-950.414 375.424,-944.448 373.614,-951.21"/>
</g>
<!-- Node20&#45;&gt;Node2 -->
<g id="edge24" class="edge"><title>Node20&#45;&gt;Node2</title>
<path fill="none" stroke="midnightblue" d="M452.281,-969.589C467.346,-974.359 485.754,-980.189 501.967,-985.323"/>
<polygon fill="midnightblue" stroke="midnightblue" points="501.139,-988.732 511.729,-988.414 503.252,-982.058 501.139,-988.732"/>
</g>
<!-- Node21&#45;&gt;Node7 -->
<g id="edge47" class="edge"><title>Node21&#45;&gt;Node7</title>
<path fill="none" stroke="midnightblue" d="M129.021,-437.679C129.642,-477.606 137.378,-631.251 218,-713 219.423,-714.443 220.957,-715.776 222.578,-717.008"/>
<polygon fill="midnightblue" stroke="midnightblue" points="220.936,-720.108 231.288,-722.364 224.603,-714.145 220.936,-720.108"/>
</g>
<!-- Node21&#45;&gt;Node8 -->
<g id="edge41" class="edge"><title>Node21&#45;&gt;Node8</title>
<path fill="none" stroke="midnightblue" d="M132.776,-437.648C142.812,-462.047 172.532,-526.699 218,-561 261.985,-594.181 286.481,-574.843 336,-599 359.254,-610.344 383.463,-627.424 399.884,-639.929"/>
<polygon fill="midnightblue" stroke="midnightblue" points="398.102,-642.977 408.149,-646.34 402.393,-637.446 398.102,-642.977"/>
</g>
<!-- Node21&#45;&gt;Node11 -->
<g id="edge48" class="edge"><title>Node21&#45;&gt;Node11</title>
<path fill="none" stroke="midnightblue" d="M130.297,-437.775C137.016,-486.906 169.423,-706.293 218,-751 262.97,-792.388 338.182,-795.405 383.042,-792.869"/>
<polygon fill="midnightblue" stroke="midnightblue" points="383.479,-796.347 393.215,-792.169 382.998,-789.364 383.479,-796.347"/>
</g>
<!-- Node21&#45;&gt;Node19 -->
<g id="edge58" class="edge"><title>Node21&#45;&gt;Node19</title>
<path fill="none" stroke="midnightblue" d="M129.508,-437.812C132.876,-499.165 153.846,-829.813 218,-903 220.486,-905.836 223.402,-908.251 226.58,-910.307"/>
<polygon fill="midnightblue" stroke="midnightblue" points="225.006,-913.433 235.491,-914.953 228.242,-907.226 225.006,-913.433"/>
</g>
<!-- Node22 -->
<g id="node22" class="node"><title>Node22</title>
<g id="a_node22"><a xlink:href="../../df/d49/_front_end_8c.html#a031f798e86eaa72898a0db976fc4566d" target="_top" xlink:title="inputString">
<polygon fill="white" stroke="black" points="245.5,-114.5 245.5,-133.5 308.5,-133.5 308.5,-114.5 245.5,-114.5"/>
<text text-anchor="middle" x="277" y="-121.5" font-family="Helvetica,sans-Serif" font-size="10.00">inputString</text>
</a>
</g>
</g>
<!-- Node21&#45;&gt;Node22 -->
<g id="edge26" class="edge"><title>Node21&#45;&gt;Node22</title>
<path fill="none" stroke="midnightblue" d="M129.021,-418.321C129.642,-378.394 137.378,-224.749 218,-143 222.899,-138.033 229.115,-134.363 235.646,-131.653"/>
<polygon fill="midnightblue" stroke="midnightblue" points="237.003,-134.888 245.324,-128.33 234.729,-128.268 237.003,-134.888"/>
</g>
<!-- Node23 -->
<g id="node23" class="node"><title>Node23</title>
<g id="a_node23"><a xlink:href="../../d0/d58/_back_end_8c.html#a638bacb7948a6f147d6103864d99067c" target="_top" xlink:title="validarEliminar">
<polygon fill="white" stroke="black" points="237,-76.5 237,-95.5 317,-95.5 317,-76.5 237,-76.5"/>
<text text-anchor="middle" x="277" y="-83.5" font-family="Helvetica,sans-Serif" font-size="10.00">validarEliminar</text>
</a>
</g>
</g>
<!-- Node21&#45;&gt;Node23 -->
<g id="edge27" class="edge"><title>Node21&#45;&gt;Node23</title>
<path fill="none" stroke="midnightblue" d="M128.602,-418.254C127.386,-375.084 128.293,-199.091 218,-105 220.799,-102.064 224.058,-99.5816 227.576,-97.4822"/>
<polygon fill="midnightblue" stroke="midnightblue" points="229.288,-100.541 236.744,-93.0134 226.221,-94.2492 229.288,-100.541"/>
</g>
<!-- Node24 -->
<g id="node24" class="node"><title>Node24</title>
<g id="a_node24"><a xlink:href="../../d0/d58/_back_end_8c.html#abb4221a879101cd2370d2d0acc92bf12" target="_top" xlink:title="igualacion">
<polygon fill="white" stroke="black" points="247,-38.5 247,-57.5 307,-57.5 307,-38.5 247,-38.5"/>
<text text-anchor="middle" x="277" y="-45.5" font-family="Helvetica,sans-Serif" font-size="10.00">igualacion</text>
</a>
</g>
</g>
<!-- Node21&#45;&gt;Node24 -->
<g id="edge28" class="edge"><title>Node21&#45;&gt;Node24</title>
<path fill="none" stroke="midnightblue" d="M130.124,-418.269C136.317,-366.222 167.84,-121.063 218,-67 223.153,-61.4462 229.952,-57.5126 237.075,-54.7273"/>
<polygon fill="midnightblue" stroke="midnightblue" points="238.407,-57.9761 246.866,-51.5968 236.275,-51.3086 238.407,-57.9761"/>
</g>
<!-- Node25 -->
<g id="node25" class="node"><title>Node25</title>
<g id="a_node25"><a xlink:href="../../d0/d58/_back_end_8c.html#a434fb24763854229cc6eeced2e45b4bd" target="_top" xlink:title="eliminar">
<polygon fill="white" stroke="black" points="252,-0.5 252,-19.5 302,-19.5 302,-0.5 252,-0.5"/>
<text text-anchor="middle" x="277" y="-7.5" font-family="Helvetica,sans-Serif" font-size="10.00">eliminar</text>
</a>
</g>
</g>
<!-- Node21&#45;&gt;Node25 -->
<g id="edge29" class="edge"><title>Node21&#45;&gt;Node25</title>
<path fill="none" stroke="midnightblue" d="M129.87,-418.36C135.02,-363.347 163.156,-89.4465 218,-29 224.259,-22.1011 233.06,-17.6999 241.918,-14.8944"/>
<polygon fill="midnightblue" stroke="midnightblue" points="242.994,-18.2317 251.811,-12.3569 241.255,-11.4512 242.994,-18.2317"/>
</g>
<!-- Node27 -->
<g id="node27" class="node"><title>Node27</title>
<g id="a_node27"><a xlink:href="../../d0/d58/_back_end_8c.html#adce6d32ded4b58704571dc8a4528a51b" target="_top" xlink:title="validarMartillazo">
<polygon fill="white" stroke="black" points="233.5,-646.5 233.5,-665.5 320.5,-665.5 320.5,-646.5 233.5,-646.5"/>
<text text-anchor="middle" x="277" y="-653.5" font-family="Helvetica,sans-Serif" font-size="10.00">validarMartillazo</text>
</a>
</g>
</g>
<!-- Node21&#45;&gt;Node27 -->
<g id="edge31" class="edge"><title>Node21&#45;&gt;Node27</title>
<path fill="none" stroke="midnightblue" d="M130.31,-437.954C135.212,-471.223 155.522,-579.677 218,-637 219.947,-638.786 222.065,-640.405 224.302,-641.872"/>
<polygon fill="midnightblue" stroke="midnightblue" points="222.954,-645.122 233.413,-646.808 226.288,-638.967 222.954,-645.122"/>
</g>
<!-- Node28 -->
<g id="node28" class="node"><title>Node28</title>
<g id="a_node28"><a xlink:href="../../d0/d58/_back_end_8c.html#a4567ed9e8cee6392fbb432ba9f36bc47" target="_top" xlink:title="martillazo">
<polygon fill="white" stroke="black" points="247.5,-608.5 247.5,-627.5 306.5,-627.5 306.5,-608.5 247.5,-608.5"/>
<text text-anchor="middle" x="277" y="-615.5" font-family="Helvetica,sans-Serif" font-size="10.00">martillazo</text>
</a>
</g>
</g>
<!-- Node21&#45;&gt;Node28 -->
<g id="edge32" class="edge"><title>Node21&#45;&gt;Node28</title>
<path fill="none" stroke="midnightblue" d="M131.656,-437.69C139.812,-465.738 167.081,-547.925 218,-594 223.666,-599.127 230.581,-603.247 237.634,-606.525"/>
<polygon fill="midnightblue" stroke="midnightblue" points="236.655,-609.908 247.233,-610.491 239.327,-603.438 236.655,-609.908"/>
</g>
<!-- Node29 -->
<g id="node29" class="node"><title>Node29</title>
<g id="a_node29"><a xlink:href="../../d0/d58/_back_end_8c.html#a54bfd37e3b34daa01e64883c67722ed4" target="_top" xlink:title="validarColumna">
<polygon fill="white" stroke="black" points="235,-532.5 235,-551.5 319,-551.5 319,-532.5 235,-532.5"/>
<text text-anchor="middle" x="277" y="-539.5" font-family="Helvetica,sans-Serif" font-size="10.00">validarColumna</text>
</a>
</g>
</g>
<!-- Node21&#45;&gt;Node29 -->
<g id="edge33" class="edge"><title>Node21&#45;&gt;Node29</title>
<path fill="none" stroke="midnightblue" d="M136.34,-437.65C150.428,-455.609 182.981,-494.468 218,-518 223.834,-521.92 230.41,-525.389 236.984,-528.384"/>
<polygon fill="midnightblue" stroke="midnightblue" points="235.954,-531.749 246.527,-532.431 238.688,-525.305 235.954,-531.749"/>
</g>
<!-- Node30 -->
<g id="node30" class="node"><title>Node30</title>
<g id="a_node30"><a xlink:href="../../d0/d58/_back_end_8c.html#a899f99bc3a99d14a7ff1029d4c7c5112" target="_top" xlink:title="columna">
<polygon fill="white" stroke="black" points="394.5,-513.5 394.5,-532.5 447.5,-532.5 447.5,-513.5 394.5,-513.5"/>
<text text-anchor="middle" x="421" y="-520.5" font-family="Helvetica,sans-Serif" font-size="10.00">columna</text>
</a>
</g>
</g>
<!-- Node21&#45;&gt;Node30 -->
<g id="edge36" class="edge"><title>Node21&#45;&gt;Node30</title>
<path fill="none" stroke="midnightblue" d="M140.571,-437.512C156.823,-450.358 187.813,-473.02 218,-485 273.532,-507.038 342.828,-516.504 384.132,-520.415"/>
<polygon fill="midnightblue" stroke="midnightblue" points="383.984,-523.916 394.254,-521.315 384.604,-516.943 383.984,-523.916"/>
</g>
<!-- Node31 -->
<g id="node31" class="node"><title>Node31</title>
<g id="a_node31"><a xlink:href="../../d0/d58/_back_end_8c.html#a996a4e78a9c5a3d0bec8d06a6d150359" target="_top" xlink:title="validarHilera">
<polygon fill="white" stroke="black" points="241.5,-418.5 241.5,-437.5 312.5,-437.5 312.5,-418.5 241.5,-418.5"/>
<text text-anchor="middle" x="277" y="-425.5" font-family="Helvetica,sans-Serif" font-size="10.00">validarHilera</text>
</a>
</g>
</g>
<!-- Node21&#45;&gt;Node31 -->
<g id="edge37" class="edge"><title>Node21&#45;&gt;Node31</title>
<path fill="none" stroke="midnightblue" d="M176.321,-428C193.836,-428 213.633,-428 230.942,-428"/>
<polygon fill="midnightblue" stroke="midnightblue" points="231.355,-431.5 241.355,-428 231.355,-424.5 231.355,-431.5"/>
</g>
<!-- Node32 -->
<g id="node32" class="node"><title>Node32</title>
<g id="a_node32"><a xlink:href="../../d0/d58/_back_end_8c.html#a09a5d17b0315f47960b4c7228eb060f3" target="_top" xlink:title="hilera">
<polygon fill="white" stroke="black" points="401,-342.5 401,-361.5 441,-361.5 441,-342.5 401,-342.5"/>
<text text-anchor="middle" x="421" y="-349.5" font-family="Helvetica,sans-Serif" font-size="10.00">hilera</text>
</a>
</g>
</g>
<!-- Node21&#45;&gt;Node32 -->
<g id="edge40" class="edge"><title>Node21&#45;&gt;Node32</title>
<path fill="none" stroke="midnightblue" d="M134.313,-418.321C146.156,-397.893 176.943,-350.796 218,-333 275.651,-308.012 351.038,-327.073 391.452,-340.928"/>
<polygon fill="midnightblue" stroke="midnightblue" points="390.346,-344.25 400.941,-344.309 392.696,-337.656 390.346,-344.25"/>
</g>
<!-- Node33 -->
<g id="node33" class="node"><title>Node33</title>
<g id="a_node33"><a xlink:href="../../df/d49/_front_end_8c.html#a6323e80bca186d3d9839b6a470500a98" target="_top" xlink:title="save">
<polygon fill="white" stroke="black" points="258,-456.5 258,-475.5 296,-475.5 296,-456.5 258,-456.5"/>
<text text-anchor="middle" x="277" y="-463.5" font-family="Helvetica,sans-Serif" font-size="10.00">save</text>
</a>
</g>
</g>
<!-- Node21&#45;&gt;Node33 -->
<g id="edge42" class="edge"><title>Node21&#45;&gt;Node33</title>
<path fill="none" stroke="midnightblue" d="M166.094,-437.589C191.467,-444.148 224.583,-452.709 247.806,-458.712"/>
<polygon fill="midnightblue" stroke="midnightblue" points="247.159,-462.159 257.717,-461.274 248.911,-455.382 247.159,-462.159"/>
</g>
<!-- Node34 -->
<g id="node34" class="node"><title>Node34</title>
<g id="a_node34"><a xlink:href="../../df/d49/_front_end_8c.html#ad75d779851077e6fb6b2fdace3b9f899" target="_top" xlink:title="GuardarAccionBitacora">
<polygon fill="white" stroke="black" points="218.5,-684.5 218.5,-703.5 335.5,-703.5 335.5,-684.5 218.5,-684.5"/>
<text text-anchor="middle" x="277" y="-691.5" font-family="Helvetica,sans-Serif" font-size="10.00">GuardarAccionBitacora</text>
</a>
</g>
</g>
<!-- Node21&#45;&gt;Node34 -->
<g id="edge43" class="edge"><title>Node21&#45;&gt;Node34</title>
<path fill="none" stroke="midnightblue" d="M129.552,-437.629C132.168,-474.136 146.39,-605.456 218,-675 219.637,-676.589 221.408,-678.046 223.281,-679.381"/>
<polygon fill="midnightblue" stroke="midnightblue" points="221.628,-682.468 232.028,-684.486 225.156,-676.423 221.628,-682.468"/>
</g>
<!-- Node35 -->
<g id="node35" class="node"><title>Node35</title>
<g id="a_node35"><a xlink:href="../../df/d49/_front_end_8c.html#ab10f46bf0cd9897c47a726d653728622" target="_top" xlink:title="compBit_File">
<polygon fill="white" stroke="black" points="240,-380.5 240,-399.5 314,-399.5 314,-380.5 240,-380.5"/>
<text text-anchor="middle" x="277" y="-387.5" font-family="Helvetica,sans-Serif" font-size="10.00">compBit_File</text>
</a>
</g>
</g>
<!-- Node21&#45;&gt;Node35 -->
<g id="edge45" class="edge"><title>Node21&#45;&gt;Node35</title>
<path fill="none" stroke="midnightblue" d="M166.094,-418.411C185.537,-413.385 209.527,-407.184 230.128,-401.858"/>
<polygon fill="midnightblue" stroke="midnightblue" points="231.128,-405.215 239.934,-399.323 229.376,-398.437 231.128,-405.215"/>
</g>
<!-- Node36 -->
<g id="node36" class="node"><title>Node36</title>
<g id="a_node36"><a xlink:href="../../df/d49/_front_end_8c.html#a75aefb8f0ed536d9adae0d1722d559e6" target="_top" xlink:title="SaveBitacora">
<polygon fill="white" stroke="black" points="239.5,-342.5 239.5,-361.5 314.5,-361.5 314.5,-342.5 239.5,-342.5"/>
<text text-anchor="middle" x="277" y="-349.5" font-family="Helvetica,sans-Serif" font-size="10.00">SaveBitacora</text>
</a>
</g>
</g>
<!-- Node21&#45;&gt;Node36 -->
<g id="edge46" class="edge"><title>Node21&#45;&gt;Node36</title>
<path fill="none" stroke="midnightblue" d="M141.666,-418.415C158.406,-406.102 189.157,-384.688 218,-371 222.608,-368.813 227.535,-366.777 232.496,-364.912"/>
<polygon fill="midnightblue" stroke="midnightblue" points="233.75,-368.181 242.007,-361.542 231.412,-361.583 233.75,-368.181"/>
</g>
<!-- Node37 -->
<g id="node37" class="node"><title>Node37</title>
<g id="a_node37"><a xlink:href="../../d0/d58/_back_end_8c.html#a72ac91bcdb1237ef5c5e2e8075f420a4" target="_top" xlink:title="Proc_Matriz">
<polygon fill="white" stroke="black" points="242.5,-190.5 242.5,-209.5 311.5,-209.5 311.5,-190.5 242.5,-190.5"/>
<text text-anchor="middle" x="277" y="-197.5" font-family="Helvetica,sans-Serif" font-size="10.00">Proc_Matriz</text>
</a>
</g>
</g>
<!-- Node21&#45;&gt;Node37 -->
<g id="edge49" class="edge"><title>Node21&#45;&gt;Node37</title>
<path fill="none" stroke="midnightblue" d="M130.31,-418.046C135.212,-384.777 155.522,-276.323 218,-219 222.352,-215.008 227.557,-211.853 233.039,-209.36"/>
<polygon fill="midnightblue" stroke="midnightblue" points="234.341,-212.61 242.424,-205.76 231.834,-206.074 234.341,-212.61"/>
</g>
<!-- Node42 -->
<g id="node42" class="node"><title>Node42</title>
<g id="a_node42"><a xlink:href="../../d0/d58/_back_end_8c.html#ad99bc99a3768cdc89f074ba8d5c5fd65" target="_top" xlink:title="nivelTerminado">
<polygon fill="white" stroke="black" points="235.5,-266.5 235.5,-285.5 318.5,-285.5 318.5,-266.5 235.5,-266.5"/>
<text text-anchor="middle" x="277" y="-273.5" font-family="Helvetica,sans-Serif" font-size="10.00">nivelTerminado</text>
</a>
</g>
</g>
<!-- Node21&#45;&gt;Node42 -->
<g id="edge54" class="edge"><title>Node21&#45;&gt;Node42</title>
<path fill="none" stroke="midnightblue" d="M133.361,-418.243C144.315,-394.752 175.2,-334.454 218,-300 222.958,-296.009 228.673,-292.59 234.541,-289.689"/>
<polygon fill="midnightblue" stroke="midnightblue" points="236.1,-292.826 243.801,-285.55 233.244,-286.435 236.1,-292.826"/>
</g>
<!-- Node43 -->
<g id="node43" class="node"><title>Node43</title>
<g id="a_node43"><a xlink:href="../../df/d49/_front_end_8c.html#aa2c9f30c45a8afbc629eca6c5866cc00" target="_top" xlink:title="resultadoFindelNivel">
<polygon fill="white" stroke="black" points="224.5,-228.5 224.5,-247.5 329.5,-247.5 329.5,-228.5 224.5,-228.5"/>
<text text-anchor="middle" x="277" y="-235.5" font-family="Helvetica,sans-Serif" font-size="10.00">resultadoFindelNivel</text>
</a>
</g>
</g>
<!-- Node21&#45;&gt;Node43 -->
<g id="edge55" class="edge"><title>Node21&#45;&gt;Node43</title>
<path fill="none" stroke="midnightblue" d="M131.292,-418.242C138.611,-389.231 164.16,-302.694 218,-257 220.015,-255.29 222.187,-253.733 224.468,-252.315"/>
<polygon fill="midnightblue" stroke="midnightblue" points="226.442,-255.233 233.693,-247.509 223.208,-249.025 226.442,-255.233"/>
</g>
<!-- Node44 -->
<g id="node44" class="node"><title>Node44</title>
<g id="a_node44"><a xlink:href="../../d0/d58/_back_end_8c.html#a77f81f8f05fac2b77ac925185e15ae1c" target="_top" xlink:title="analisisMatriz">
<polygon fill="white" stroke="black" points="238.5,-152.5 238.5,-171.5 315.5,-171.5 315.5,-152.5 238.5,-152.5"/>
<text text-anchor="middle" x="277" y="-159.5" font-family="Helvetica,sans-Serif" font-size="10.00">analisisMatriz</text>
</a>
</g>
</g>
<!-- Node21&#45;&gt;Node44 -->
<g id="edge56" class="edge"><title>Node21&#45;&gt;Node44</title>
<path fill="none" stroke="midnightblue" d="M129.552,-418.371C132.168,-381.864 146.39,-250.544 218,-181 221.252,-177.842 225.037,-175.209 229.086,-173.013"/>
<polygon fill="midnightblue" stroke="midnightblue" points="230.59,-176.174 238.266,-168.872 227.712,-169.793 230.59,-176.174"/>
</g>
<!-- Node26 -->
<g id="node26" class="node"><title>Node26</title>
<g id="a_node26"><a xlink:href="../../d0/d58/_back_end_8c.html#a173f42259c2058a7251f21420b9bac1b" target="_top" xlink:title="elimAd">
<polygon fill="white" stroke="black" points="397.5,-0.5 397.5,-19.5 444.5,-19.5 444.5,-0.5 397.5,-0.5"/>
<text text-anchor="middle" x="421" y="-7.5" font-family="Helvetica,sans-Serif" font-size="10.00">elimAd</text>
</a>
</g>
</g>
<!-- Node25&#45;&gt;Node26 -->
<g id="edge30" class="edge"><title>Node25&#45;&gt;Node26</title>
<path fill="none" stroke="midnightblue" d="M302.088,-10C325.456,-10 361.094,-10 387.074,-10"/>
<polygon fill="midnightblue" stroke="midnightblue" points="387.205,-13.5001 397.205,-10 387.205,-6.5001 387.205,-13.5001"/>
</g>
<!-- Node29&#45;&gt;Node30 -->
<g id="edge34" class="edge"><title>Node29&#45;&gt;Node30</title>
<path fill="none" stroke="midnightblue" d="M319.072,-536.504C339.624,-533.755 364.271,-530.457 384.064,-527.808"/>
<polygon fill="midnightblue" stroke="midnightblue" points="384.765,-531.246 394.213,-526.45 383.837,-524.308 384.765,-531.246"/>
</g>
<!-- Node30&#45;&gt;Node30 -->
<g id="edge35" class="edge"><title>Node30&#45;&gt;Node30</title>
<path fill="none" stroke="midnightblue" d="M402.196,-532.757C393.048,-541.565 399.316,-551 421,-551 434.891,-551 442.456,-547.128 443.693,-542.029"/>
<polygon fill="midnightblue" stroke="midnightblue" points="446.9,-540.625 439.804,-532.757 440.445,-543.332 446.9,-540.625"/>
</g>
<!-- Node31&#45;&gt;Node32 -->
<g id="edge38" class="edge"><title>Node31&#45;&gt;Node32</title>
<path fill="none" stroke="midnightblue" d="M312.368,-418.5C320.299,-415.829 328.581,-412.642 336,-409 359.226,-397.597 383.439,-380.527 399.868,-368.039"/>
<polygon fill="midnightblue" stroke="midnightblue" points="402.373,-370.527 408.139,-361.638 398.088,-364.991 402.373,-370.527"/>
</g>
<!-- Node32&#45;&gt;Node32 -->
<g id="edge39" class="edge"><title>Node32&#45;&gt;Node32</title>
<path fill="none" stroke="midnightblue" d="M402.196,-361.757C393.048,-370.565 399.316,-380 421,-380 434.891,-380 442.456,-376.128 443.693,-371.029"/>
<polygon fill="midnightblue" stroke="midnightblue" points="446.9,-369.625 439.804,-361.757 440.445,-372.332 446.9,-369.625"/>
</g>
<!-- Node34&#45;&gt;Node11 -->
<g id="edge44" class="edge"><title>Node34&#45;&gt;Node11</title>
<path fill="none" stroke="midnightblue" d="M314.897,-703.508C322.135,-706.079 329.494,-709.223 336,-713 363.332,-728.868 389.451,-754.763 405.108,-771.843"/>
<polygon fill="midnightblue" stroke="midnightblue" points="402.634,-774.326 411.914,-779.437 407.847,-769.654 402.634,-774.326"/>
</g>
<!-- Node38 -->
<g id="node38" class="node"><title>Node38</title>
<g id="a_node38"><a xlink:href="../../d0/d58/_back_end_8c.html#a30778fe7f3a7111df0132951b5a8cb9f" target="_top" xlink:title="gravedad">
<polygon fill="white" stroke="black" points="393,-209.5 393,-228.5 449,-228.5 449,-209.5 393,-209.5"/>
<text text-anchor="middle" x="421" y="-216.5" font-family="Helvetica,sans-Serif" font-size="10.00">gravedad</text>
</a>
</g>
</g>
<!-- Node37&#45;&gt;Node38 -->
<g id="edge50" class="edge"><title>Node37&#45;&gt;Node38</title>
<path fill="none" stroke="midnightblue" d="M311.652,-204.503C333.034,-207.364 360.734,-211.07 382.773,-214.019"/>
<polygon fill="midnightblue" stroke="midnightblue" points="382.395,-217.499 392.771,-215.357 383.323,-210.561 382.395,-217.499"/>
</g>
<!-- Node40 -->
<g id="node40" class="node"><title>Node40</title>
<g id="a_node40"><a xlink:href="../../d0/d58/_back_end_8c.html#add1cf658d13603c789cb641681a863cc" target="_top" xlink:title="nullCols">
<polygon fill="white" stroke="black" points="395,-171.5 395,-190.5 447,-190.5 447,-171.5 395,-171.5"/>
<text text-anchor="middle" x="421" y="-178.5" font-family="Helvetica,sans-Serif" font-size="10.00">nullCols</text>
</a>
</g>
</g>
<!-- Node37&#45;&gt;Node40 -->
<g id="edge52" class="edge"><title>Node37&#45;&gt;Node40</title>
<path fill="none" stroke="midnightblue" d="M311.652,-195.497C333.6,-192.561 362.206,-188.733 384.512,-185.748"/>
<polygon fill="midnightblue" stroke="midnightblue" points="385.138,-189.196 394.585,-184.401 384.209,-182.258 385.138,-189.196"/>
</g>
<!-- Node41 -->
<g id="node41" class="node"><title>Node41</title>
<g id="a_node41"><a xlink:href="../../d0/d58/_back_end_8c.html#a7966b82c6fb095984645478900337cd4" target="_top" xlink:title="calcularPuntaje">
<polygon fill="white" stroke="black" points="379.5,-247.5 379.5,-266.5 462.5,-266.5 462.5,-247.5 379.5,-247.5"/>
<text text-anchor="middle" x="421" y="-254.5" font-family="Helvetica,sans-Serif" font-size="10.00">calcularPuntaje</text>
</a>
</g>
</g>
<!-- Node37&#45;&gt;Node41 -->
<g id="edge53" class="edge"><title>Node37&#45;&gt;Node41</title>
<path fill="none" stroke="midnightblue" d="M310.57,-209.599C318.96,-212.362 327.903,-215.566 336,-219 352.656,-226.063 355.565,-230.437 372,-238 376.142,-239.906 380.534,-241.805 384.912,-243.624"/>
<polygon fill="midnightblue" stroke="midnightblue" points="383.79,-246.946 394.373,-247.451 386.415,-240.457 383.79,-246.946"/>
</g>
<!-- Node39 -->
<g id="node39" class="node"><title>Node39</title>
<g id="a_node39"><a xlink:href="../../d0/d58/_back_end_8c.html#af6e26bc55afeec730efa1a694027de82" target="_top" xlink:title="decalarFils">
<polygon fill="white" stroke="black" points="511,-209.5 511,-228.5 575,-228.5 575,-209.5 511,-209.5"/>
<text text-anchor="middle" x="543" y="-216.5" font-family="Helvetica,sans-Serif" font-size="10.00">decalarFils</text>
</a>
</g>
</g>
<!-- Node38&#45;&gt;Node39 -->
<g id="edge51" class="edge"><title>Node38&#45;&gt;Node39</title>
<path fill="none" stroke="midnightblue" d="M449.23,-219C464.348,-219 483.47,-219 500.42,-219"/>
<polygon fill="midnightblue" stroke="midnightblue" points="500.638,-222.5 510.638,-219 500.638,-215.5 500.638,-222.5"/>
</g>
<!-- Node45 -->
<g id="node45" class="node"><title>Node45</title>
<g id="a_node45"><a xlink:href="../../d0/d58/_back_end_8c.html#ac7c84a2ee121281c8f0d9c49c3dbb58e" target="_top" xlink:title="algunAdyacente">
<polygon fill="white" stroke="black" points="378,-133.5 378,-152.5 464,-152.5 464,-133.5 378,-133.5"/>
<text text-anchor="middle" x="421" y="-140.5" font-family="Helvetica,sans-Serif" font-size="10.00">algunAdyacente</text>
</a>
</g>
</g>
<!-- Node44&#45;&gt;Node45 -->
<g id="edge57" class="edge"><title>Node44&#45;&gt;Node45</title>
<path fill="none" stroke="midnightblue" d="M315.681,-156.958C331.684,-154.817 350.608,-152.285 367.915,-149.969"/>
<polygon fill="midnightblue" stroke="midnightblue" points="368.437,-153.431 377.884,-148.635 367.508,-146.492 368.437,-153.431"/>
</g>
</g>
</svg>
