<?xml version="1.0" encoding="UTF-8" standalone="no"?>
<!DOCTYPE svg PUBLIC "-//W3C//DTD SVG 1.1//EN"
 "http://www.w3.org/Graphics/SVG/1.1/DTD/svg11.dtd">
<!-- Generated by graphviz version 2.31.20130601.0447 (20130601.0447)
 -->
<!-- Title: tilesBack.h Pages: 1 -->
<svg width="194pt" height="140pt"
 viewBox="0.00 0.00 194.00 140.00" xmlns="http://www.w3.org/2000/svg" xmlns:xlink="http://www.w3.org/1999/xlink">
<g id="graph0" class="graph" transform="scale(1 1) rotate(0) translate(4 136)">
<title>tilesBack.h</title>
<polygon fill="white" stroke="white" points="-4,5 -4,-136 191,-136 191,5 -4,5"/>
<!-- Node1 -->
<g id="node1" class="node"><title>Node1</title>
<polygon fill="#bfbfbf" stroke="black" points="60.5,-112.5 60.5,-131.5 125.5,-131.5 125.5,-112.5 60.5,-112.5"/>
<text text-anchor="middle" x="93" y="-119.5" font-family="Helvetica,sans-Serif" font-size="10.00">tilesBack.h</text>
</g>
<!-- Node2 -->
<g id="node2" class="node"><title>Node2</title>
<g id="a_node2"><a xlink:href="../../d0/d58/_back_end_8c.html" target="_top" xlink:title="BackEnd.c">
<polygon fill="white" stroke="black" points="-0.5,-56.5 -0.5,-75.5 64.5,-75.5 64.5,-56.5 -0.5,-56.5"/>
<text text-anchor="middle" x="32" y="-63.5" font-family="Helvetica,sans-Serif" font-size="10.00">BackEnd.c</text>
</a>
</g>
</g>
<!-- Node1&#45;&gt;Node2 -->
<g id="edge1" class="edge"><title>Node1&#45;&gt;Node2</title>
<path fill="none" stroke="midnightblue" d="M75.5328,-105.537C64.6562,-95.9087 51.0561,-83.8694 41.979,-75.8339"/>
<polygon fill="midnightblue" stroke="midnightblue" points="73.3917,-108.316 83.1993,-112.324 78.0316,-103.075 73.3917,-108.316"/>
</g>
<!-- Node3 -->
<g id="node3" class="node"><title>Node3</title>
<g id="a_node3"><a xlink:href="../../df/d49/_front_end_8c.html" target="_top" xlink:title="FrontEnd.c">
<polygon fill="white" stroke="black" points="90.5,-0.5 90.5,-19.5 155.5,-19.5 155.5,-0.5 90.5,-0.5"/>
<text text-anchor="middle" x="123" y="-7.5" font-family="Helvetica,sans-Serif" font-size="10.00">FrontEnd.c</text>
</a>
</g>
</g>
<!-- Node1&#45;&gt;Node3 -->
<g id="edge2" class="edge"><title>Node1&#45;&gt;Node3</title>
<path fill="none" stroke="midnightblue" d="M97.998,-102.674C104.557,-78.6248 115.803,-37.3881 120.657,-19.5914"/>
<polygon fill="midnightblue" stroke="midnightblue" points="94.6086,-101.8 95.354,-112.368 101.362,-103.642 94.6086,-101.8"/>
</g>
<!-- Node4 -->
<g id="node4" class="node"><title>Node4</title>
<g id="a_node4"><a xlink:href="../../d5/dd8/tiles_front_8h.html" target="_top" xlink:title="tilesFront.h">
<polygon fill="white" stroke="black" points="121.5,-56.5 121.5,-75.5 186.5,-75.5 186.5,-56.5 121.5,-56.5"/>
<text text-anchor="middle" x="154" y="-63.5" font-family="Helvetica,sans-Serif" font-size="10.00">tilesFront.h</text>
</a>
</g>
</g>
<!-- Node1&#45;&gt;Node4 -->
<g id="edge3" class="edge"><title>Node1&#45;&gt;Node4</title>
<path fill="none" stroke="midnightblue" d="M110.467,-105.537C121.344,-95.9087 134.944,-83.8694 144.021,-75.8339"/>
<polygon fill="midnightblue" stroke="midnightblue" points="107.968,-103.075 102.801,-112.324 112.608,-108.316 107.968,-103.075"/>
</g>
<!-- Node4&#45;&gt;Node3 -->
<g id="edge4" class="edge"><title>Node4&#45;&gt;Node3</title>
<path fill="none" stroke="midnightblue" d="M143.824,-47.2747C138.526,-38.0454 132.283,-27.1703 128.024,-19.7511"/>
<polygon fill="midnightblue" stroke="midnightblue" points="140.867,-49.153 148.881,-56.083 146.938,-45.6679 140.867,-49.153"/>
</g>
</g>
</svg>
