<?xml version="1.0" encoding="UTF-8" standalone="no"?>
<!DOCTYPE svg PUBLIC "-//W3C//DTD SVG 1.1//EN"
 "http://www.w3.org/Graphics/SVG/1.1/DTD/svg11.dtd">
<!-- Generated by graphviz version 2.31.20130601.0447 (20130601.0447)
 -->
<!-- Title: main Pages: 1 -->
<svg width="588pt" height="1307pt"
 viewBox="0.00 0.00 588.00 1306.90" xmlns="http://www.w3.org/2000/svg" xmlns:xlink="http://www.w3.org/1999/xlink">
<g id="graph0" class="graph" transform="scale(1 1) rotate(0) translate(4 1302.9)">
<title>main</title>
<!-- Node1 -->
<g id="node1" class="node"><title>Node1</title>
<polygon fill="#bfbfbf" stroke="black" points="0,-931.5 0,-950.5 38,-950.5 38,-931.5 0,-931.5"/>
<text text-anchor="middle" x="19" y="-938.5" font-family="Helvetica,sans-Serif" font-size="10.00">main</text>
</g>
<!-- Node2 -->
<g id="node2" class="node"><title>Node2</title>
<g id="a_node2"><a xlink:href="../../df/d49/_front_end_8c.html#ac5da14380ebbd7eb58146932f909ec19" target="_top" xlink:title="cambiarColor">
<polygon fill="none" stroke="black" points="506,-1254.5 506,-1273.5 580,-1273.5 580,-1254.5 506,-1254.5"/>
<text text-anchor="middle" x="543" y="-1261.5" font-family="Helvetica,sans-Serif" font-size="10.00">cambiarColor</text>
</a>
</g>
</g>
<!-- Node1&#45;&gt;Node2 -->
<g id="edge1" class="edge"><title>Node1&#45;&gt;Node2</title>
<path fill="none" stroke="midnightblue" d="M20.5197,-950.72C23.0885,-995.054 35.8724,-1177.63 74,-1217 186.226,-1332.88 403.939,-1297.9 497.503,-1275.89"/>
<polygon fill="midnightblue" stroke="midnightblue" points="498.326,-1279.29 507.225,-1273.54 496.683,-1272.49 498.326,-1279.29"/>
</g>
<!-- Node3 -->
<g id="node3" class="node"><title>Node3</title>
<g id="a_node3"><a xlink:href="../../df/d49/_front_end_8c.html#ad02d883b4d6a33d8c18505cb21bc1c99" target="_top" xlink:title="Presentacion">
<polygon fill="none" stroke="black" points="91,-1188.5 91,-1207.5 165,-1207.5 165,-1188.5 91,-1188.5"/>
<text text-anchor="middle" x="128" y="-1195.5" font-family="Helvetica,sans-Serif" font-size="10.00">Presentacion</text>
</a>
</g>
</g>
<!-- Node1&#45;&gt;Node3 -->
<g id="edge2" class="edge"><title>Node1&#45;&gt;Node3</title>
<path fill="none" stroke="midnightblue" d="M22.1419,-950.57C28.2486,-977.031 47.0587,-1053.11 74,-1112 85.3281,-1136.76 102.409,-1163.12 114.098,-1180.03"/>
<polygon fill="midnightblue" stroke="midnightblue" points="111.354,-1182.21 119.967,-1188.38 117.082,-1178.19 111.354,-1182.21"/>
</g>
<!-- Node4 -->
<g id="node4" class="node"><title>Node4</title>
<g id="a_node4"><a xlink:href="../../df/d49/_front_end_8c.html#aab334a05bc64bef008da24cca3fd83f2" target="_top" xlink:title="Menu">
<polygon fill="none" stroke="black" points="107.5,-1083.5 107.5,-1102.5 148.5,-1102.5 148.5,-1083.5 107.5,-1083.5"/>
<text text-anchor="middle" x="128" y="-1090.5" font-family="Helvetica,sans-Serif" font-size="10.00">Menu</text>
</a>
</g>
</g>
<!-- Node1&#45;&gt;Node4 -->
<g id="edge4" class="edge"><title>Node1&#45;&gt;Node4</title>
<path fill="none" stroke="midnightblue" d="M23.1421,-950.523C30.0452,-970.476 48.0157,-1017.51 74,-1050 82.3567,-1060.45 93.6534,-1070.05 103.67,-1077.51"/>
<polygon fill="midnightblue" stroke="midnightblue" points="101.866,-1080.52 112.038,-1083.49 105.935,-1074.83 101.866,-1080.52"/>
</g>
<!-- Node11 -->
<g id="node11" class="node"><title>Node11</title>
<g id="a_node11"><a xlink:href="../../d0/d58/_back_end_8c.html#a4a69eef058d359d77e17632b3e41807e" target="_top" xlink:title="generarTableroNull">
<polygon fill="none" stroke="black" points="372,-1045.5 372,-1064.5 470,-1064.5 470,-1045.5 372,-1045.5"/>
<text text-anchor="middle" x="421" y="-1052.5" font-family="Helvetica,sans-Serif" font-size="10.00">generarTableroNull</text>
</a>
</g>
</g>
<!-- Node1&#45;&gt;Node11 -->
<g id="edge17" class="edge"><title>Node1&#45;&gt;Node11</title>
<path fill="none" stroke="midnightblue" d="M38.3154,-948.692C48.6866,-952.903 61.9562,-958.052 74,-962 177.307,-995.861 300.829,-1026.84 368.81,-1043.08"/>
<polygon fill="midnightblue" stroke="midnightblue" points="368.292,-1046.56 378.83,-1045.46 369.912,-1039.75 368.292,-1046.56"/>
</g>
<!-- Node12 -->
<g id="node12" class="node"><title>Node12</title>
<g id="a_node12"><a xlink:href="../../df/d49/_front_end_8c.html#ade56234c677e9f2fddee149cda63a52b" target="_top" xlink:title="printerror">
<polygon fill="none" stroke="black" points="393.5,-893.5 393.5,-912.5 448.5,-912.5 448.5,-893.5 393.5,-893.5"/>
<text text-anchor="middle" x="421" y="-900.5" font-family="Helvetica,sans-Serif" font-size="10.00">printerror</text>
</a>
</g>
</g>
<!-- Node1&#45;&gt;Node12 -->
<g id="edge16" class="edge"><title>Node1&#45;&gt;Node12</title>
<path fill="none" stroke="midnightblue" d="M38.2266,-939.268C99.7113,-933.427 300.271,-914.374 383.397,-906.477"/>
<polygon fill="midnightblue" stroke="midnightblue" points="383.774,-909.957 393.398,-905.527 383.112,-902.989 383.774,-909.957"/>
</g>
<!-- Node14 -->
<g id="node14" class="node"><title>Node14</title>
<g id="a_node14"><a xlink:href="../../d0/d58/_back_end_8c.html#a37a5c44c29c5bb93cba21bea04d67cf3" target="_top" xlink:title="Crear_Nivel">
<polygon fill="none" stroke="black" points="94,-285.5 94,-304.5 162,-304.5 162,-285.5 94,-285.5"/>
<text text-anchor="middle" x="128" y="-292.5" font-family="Helvetica,sans-Serif" font-size="10.00">Crear_Nivel</text>
</a>
</g>
</g>
<!-- Node1&#45;&gt;Node14 -->
<g id="edge18" class="edge"><title>Node1&#45;&gt;Node14</title>
<path fill="none" stroke="midnightblue" d="M20.8982,-931.224C25.2091,-885.135 44.778,-685.024 74,-523 88.0135,-445.301 111.282,-354.221 121.687,-314.819"/>
<polygon fill="midnightblue" stroke="midnightblue" points="125.13,-315.49 124.317,-304.927 118.365,-313.692 125.13,-315.49"/>
</g>
<!-- Node18 -->
<g id="node18" class="node"><title>Node18</title>
<g id="a_node18"><a xlink:href="../../df/d49/_front_end_8c.html#a330ec1027100b0b1f0829b22ee5a5415" target="_top" xlink:title="GuardarMATBitacora">
<polygon fill="none" stroke="black" points="74,-247.5 74,-266.5 182,-266.5 182,-247.5 74,-247.5"/>
<text text-anchor="middle" x="128" y="-254.5" font-family="Helvetica,sans-Serif" font-size="10.00">GuardarMATBitacora</text>
</a>
</g>
</g>
<!-- Node1&#45;&gt;Node18 -->
<g id="edge22" class="edge"><title>Node1&#45;&gt;Node18</title>
<path fill="none" stroke="midnightblue" d="M20.1584,-931.455C21.5222,-854.039 32.2586,-330.477 74,-276 74.9289,-274.788 75.9419,-273.653 77.0252,-272.59"/>
<polygon fill="midnightblue" stroke="midnightblue" points="79.149,-275.372 85.05,-266.573 74.9496,-269.771 79.149,-275.372"/>
</g>
<!-- Node19 -->
<g id="node19" class="node"><title>Node19</title>
<g id="a_node19"><a xlink:href="../../df/d49/_front_end_8c.html#aa9153d7104d4019dd7aaf1e8a5718445" target="_top" xlink:title="imprimirEstado">
<polygon fill="none" stroke="black" points="87,-209.5 87,-228.5 169,-228.5 169,-209.5 87,-209.5"/>
<text text-anchor="middle" x="128" y="-216.5" font-family="Helvetica,sans-Serif" font-size="10.00">imprimirEstado</text>
</a>
</g>
</g>
<!-- Node1&#45;&gt;Node19 -->
<g id="edge23" class="edge"><title>Node1&#45;&gt;Node19</title>
<path fill="none" stroke="midnightblue" d="M20.1147,-931.422C21.152,-851.418 29.9215,-295.788 74,-238 75.2671,-236.339 76.6922,-234.822 78.2399,-233.438"/>
<polygon fill="midnightblue" stroke="midnightblue" points="80.5563,-236.095 86.838,-227.563 76.6069,-230.315 80.5563,-236.095"/>
</g>
<!-- Node20 -->
<g id="node20" class="node"><title>Node20</title>
<g id="a_node20"><a xlink:href="../../df/d49/_front_end_8c.html#a9ef75758f3b47f3c2639f7bb586d0375" target="_top" xlink:title="imprimeTablero">
<polygon fill="none" stroke="black" points="235.5,-950.5 235.5,-969.5 318.5,-969.5 318.5,-950.5 235.5,-950.5"/>
<text text-anchor="middle" x="277" y="-957.5" font-family="Helvetica,sans-Serif" font-size="10.00">imprimeTablero</text>
</a>
</g>
</g>
<!-- Node1&#45;&gt;Node20 -->
<g id="edge24" class="edge"><title>Node1&#45;&gt;Node20</title>
<path fill="none" stroke="midnightblue" d="M38.0014,-942.336C76.4378,-945.189 167.719,-951.964 225.407,-956.245"/>
<polygon fill="midnightblue" stroke="midnightblue" points="225.185,-959.738 235.416,-956.988 225.703,-952.757 225.185,-959.738"/>
</g>
<!-- Node22 -->
<g id="node22" class="node"><title>Node22</title>
<g id="a_node22"><a xlink:href="../../df/d49/_front_end_8c.html#ab336c463d2464cd3ca4bb0f653e93efd" target="_top" xlink:title="AccionesDeJuego">
<polygon fill="none" stroke="black" points="80,-532.5 80,-551.5 176,-551.5 176,-532.5 80,-532.5"/>
<text text-anchor="middle" x="128" y="-539.5" font-family="Helvetica,sans-Serif" font-size="10.00">AccionesDeJuego</text>
</a>
</g>
</g>
<!-- Node1&#45;&gt;Node22 -->
<g id="edge27" class="edge"><title>Node1&#45;&gt;Node22</title>
<path fill="none" stroke="midnightblue" d="M22.645,-931.137C36.6969,-878.738 102.678,-632.696 121.797,-561.403"/>
<polygon fill="midnightblue" stroke="midnightblue" points="125.238,-562.084 124.447,-551.518 118.477,-560.27 125.238,-562.084"/>
</g>
<!-- Node3&#45;&gt;Node2 -->
<g id="edge3" class="edge"><title>Node3&#45;&gt;Node2</title>
<path fill="none" stroke="midnightblue" d="M153.947,-1207.62C171.586,-1214.06 195.928,-1222.2 218,-1227 315.469,-1248.22 432.246,-1257.76 495.584,-1261.64"/>
<polygon fill="midnightblue" stroke="midnightblue" points="495.463,-1265.14 505.653,-1262.24 495.878,-1258.15 495.463,-1265.14"/>
</g>
<!-- Node5 -->
<g id="node5" class="node"><title>Node5</title>
<g id="a_node5"><a xlink:href="../../d4/d3f/getnum_8c.html#a2ceea39e7e1a07e7e4e0f1da5224b36e" target="_top" xlink:title="getint">
<polygon fill="none" stroke="black" points="400.5,-1178.5 400.5,-1197.5 441.5,-1197.5 441.5,-1178.5 400.5,-1178.5"/>
<text text-anchor="middle" x="421" y="-1185.5" font-family="Helvetica,sans-Serif" font-size="10.00">getint</text>
</a>
</g>
</g>
<!-- Node4&#45;&gt;Node5 -->
<g id="edge5" class="edge"><title>Node4&#45;&gt;Node5</title>
<path fill="none" stroke="midnightblue" d="M134.967,-1102.68C150.869,-1128.1 194.644,-1195.6 218,-1207 274.324,-1234.48 349.93,-1214.59 390.809,-1199.89"/>
<polygon fill="midnightblue" stroke="midnightblue" points="392.279,-1203.08 400.421,-1196.3 389.829,-1196.52 392.279,-1203.08"/>
</g>
<!-- Node6 -->
<g id="node6" class="node"><title>Node6</title>
<g id="a_node6"><a xlink:href="../../df/d49/_front_end_8c.html#adf030e2911563c8b12da80699b53277d" target="_top" xlink:title="PedidoDimenciones">
<polygon fill="none" stroke="black" points="225,-1178.5 225,-1197.5 329,-1197.5 329,-1178.5 225,-1178.5"/>
<text text-anchor="middle" x="277" y="-1185.5" font-family="Helvetica,sans-Serif" font-size="10.00">PedidoDimenciones</text>
</a>
</g>
</g>
<!-- Node4&#45;&gt;Node6 -->
<g id="edge6" class="edge"><title>Node4&#45;&gt;Node6</title>
<path fill="none" stroke="midnightblue" d="M137.691,-1102.53C152.652,-1118.42 184.871,-1150.4 218,-1169 221.742,-1171.1 225.751,-1173.01 229.85,-1174.74"/>
<polygon fill="midnightblue" stroke="midnightblue" points="228.902,-1178.13 239.492,-1178.45 231.416,-1171.6 228.902,-1178.13"/>
</g>
<!-- Node7 -->
<g id="node7" class="node"><title>Node7</title>
<g id="a_node7"><a xlink:href="../../df/d49/_front_end_8c.html#a767a1e350b410fc29bc0fc90012f1be9" target="_top" xlink:title="PedidoNivel">
<polygon fill="none" stroke="black" points="242.5,-1102.5 242.5,-1121.5 311.5,-1121.5 311.5,-1102.5 242.5,-1102.5"/>
<text text-anchor="middle" x="277" y="-1109.5" font-family="Helvetica,sans-Serif" font-size="10.00">PedidoNivel</text>
</a>
</g>
</g>
<!-- Node4&#45;&gt;Node7 -->
<g id="edge8" class="edge"><title>Node4&#45;&gt;Node7</title>
<path fill="none" stroke="midnightblue" d="M148.52,-1095.52C169.712,-1098.26 204.245,-1102.73 232.027,-1106.32"/>
<polygon fill="midnightblue" stroke="midnightblue" points="231.936,-1109.83 242.303,-1107.64 232.834,-1102.89 231.936,-1109.83"/>
</g>
<!-- Node8 -->
<g id="node8" class="node"><title>Node8</title>
<g id="a_node8"><a xlink:href="../../df/d49/_front_end_8c.html#a34256005c9f46eff46dddfaf74a73427" target="_top" xlink:title="PedirNombreValido">
<polygon fill="none" stroke="black" points="226.5,-836.5 226.5,-855.5 327.5,-855.5 327.5,-836.5 226.5,-836.5"/>
<text text-anchor="middle" x="277" y="-843.5" font-family="Helvetica,sans-Serif" font-size="10.00">PedirNombreValido</text>
</a>
</g>
</g>
<!-- Node4&#45;&gt;Node8 -->
<g id="edge10" class="edge"><title>Node4&#45;&gt;Node8</title>
<path fill="none" stroke="midnightblue" d="M134.562,-1083.36C148.478,-1059.27 185.985,-994.541 218,-941 234.034,-914.185 252.95,-883.347 264.712,-864.264"/>
<polygon fill="midnightblue" stroke="midnightblue" points="267.74,-866.022 270.013,-855.674 261.783,-862.346 267.74,-866.022"/>
</g>
<!-- Node10 -->
<g id="node10" class="node"><title>Node10</title>
<g id="a_node10"><a xlink:href="../../df/d49/_front_end_8c.html#a4e81936deabcba0a90039b3d8fd54a27" target="_top" xlink:title="load">
<polygon fill="none" stroke="black" points="259.5,-1064.5 259.5,-1083.5 294.5,-1083.5 294.5,-1064.5 259.5,-1064.5"/>
<text text-anchor="middle" x="277" y="-1071.5" font-family="Helvetica,sans-Serif" font-size="10.00">load</text>
</a>
</g>
</g>
<!-- Node4&#45;&gt;Node10 -->
<g id="edge12" class="edge"><title>Node4&#45;&gt;Node10</title>
<path fill="none" stroke="midnightblue" d="M148.52,-1090.48C174.282,-1087.15 219.762,-1081.27 248.86,-1077.51"/>
<polygon fill="midnightblue" stroke="midnightblue" points="249.666,-1080.93 259.135,-1076.18 248.769,-1073.99 249.666,-1080.93"/>
</g>
<!-- Node4&#45;&gt;Node12 -->
<g id="edge14" class="edge"><title>Node4&#45;&gt;Node12</title>
<path fill="none" stroke="midnightblue" d="M148.725,-1084.04C186.614,-1066.42 271.529,-1024.97 336,-979 361.32,-960.946 387.409,-936.199 403.657,-919.916"/>
<polygon fill="midnightblue" stroke="midnightblue" points="406.272,-922.249 410.796,-912.668 401.285,-917.336 406.272,-922.249"/>
</g>
<!-- Node13 -->
<g id="node13" class="node"><title>Node13</title>
<g id="a_node13"><a xlink:href="../../df/d49/_front_end_8c.html#a1122e9d0c8a9c1c2fd33acf80cb51e44" target="_top" xlink:title="instrucciones">
<polygon fill="none" stroke="black" points="240,-1140.5 240,-1159.5 314,-1159.5 314,-1140.5 240,-1140.5"/>
<text text-anchor="middle" x="277" y="-1147.5" font-family="Helvetica,sans-Serif" font-size="10.00">instrucciones</text>
</a>
</g>
</g>
<!-- Node4&#45;&gt;Node13 -->
<g id="edge15" class="edge"><title>Node4&#45;&gt;Node13</title>
<path fill="none" stroke="midnightblue" d="M148.596,-1101.95C166.497,-1109.98 193.786,-1121.88 218,-1131 223.59,-1133.1 229.531,-1135.2 235.397,-1137.2"/>
<polygon fill="midnightblue" stroke="midnightblue" points="234.53,-1140.6 245.123,-1140.44 236.741,-1133.96 234.53,-1140.6"/>
</g>
<!-- Node6&#45;&gt;Node5 -->
<g id="edge7" class="edge"><title>Node6&#45;&gt;Node5</title>
<path fill="none" stroke="midnightblue" d="M329.265,-1188C349.659,-1188 372.413,-1188 390.034,-1188"/>
<polygon fill="midnightblue" stroke="midnightblue" points="390.274,-1191.5 400.274,-1188 390.274,-1184.5 390.274,-1191.5"/>
</g>
<!-- Node7&#45;&gt;Node5 -->
<g id="edge9" class="edge"><title>Node7&#45;&gt;Node5</title>
<path fill="none" stroke="midnightblue" d="M311.758,-1121.3C319.873,-1124.01 328.391,-1127.26 336,-1131 359.226,-1142.4 383.439,-1159.47 399.868,-1171.96"/>
<polygon fill="midnightblue" stroke="midnightblue" points="398.088,-1175.01 408.139,-1178.36 402.373,-1169.47 398.088,-1175.01"/>
</g>
<!-- Node9 -->
<g id="node9" class="node"><title>Node9</title>
<g id="a_node9"><a xlink:href="../../df/d49/_front_end_8c.html#a639b04a4f1cdc236e6d0ffbd51db0c95" target="_top" xlink:title="validFileName">
<polygon fill="none" stroke="black" points="381.5,-646.5 381.5,-665.5 460.5,-665.5 460.5,-646.5 381.5,-646.5"/>
<text text-anchor="middle" x="421" y="-653.5" font-family="Helvetica,sans-Serif" font-size="10.00">validFileName</text>
</a>
</g>
</g>
<!-- Node8&#45;&gt;Node9 -->
<g id="edge11" class="edge"><title>Node8&#45;&gt;Node9</title>
<path fill="none" stroke="midnightblue" d="M320.687,-836.456C326.226,-833.99 331.521,-830.892 336,-827 383.536,-785.695 406.827,-711.244 415.643,-675.797"/>
<polygon fill="midnightblue" stroke="midnightblue" points="419.124,-676.286 418.009,-665.75 412.31,-674.682 419.124,-676.286"/>
</g>
<!-- Node10&#45;&gt;Node11 -->
<g id="edge13" class="edge"><title>Node10&#45;&gt;Node11</title>
<path fill="none" stroke="midnightblue" d="M294.567,-1071.78C311.157,-1069.56 337.655,-1066.02 362.031,-1062.76"/>
<polygon fill="midnightblue" stroke="midnightblue" points="362.507,-1066.22 371.955,-1061.43 361.579,-1059.29 362.507,-1066.22"/>
</g>
<!-- Node15 -->
<g id="node15" class="node"><title>Node15</title>
<g id="a_node15"><a xlink:href="../../d0/d58/_back_end_8c.html#a6d4a41e7bc5f6048526fe21ad6517815" target="_top" xlink:title="bonus">
<polygon fill="none" stroke="black" points="255.5,-76.5 255.5,-95.5 298.5,-95.5 298.5,-76.5 255.5,-76.5"/>
<text text-anchor="middle" x="277" y="-83.5" font-family="Helvetica,sans-Serif" font-size="10.00">bonus</text>
</a>
</g>
</g>
<!-- Node14&#45;&gt;Node15 -->
<g id="edge19" class="edge"><title>Node14&#45;&gt;Node15</title>
<path fill="none" stroke="midnightblue" d="M162.146,-288.869C169.58,-286.061 176.797,-281.968 182,-276 233.039,-217.459 166.157,-162.83 218,-105 225.108,-97.0708 235.574,-92.439 245.666,-89.7377"/>
<polygon fill="midnightblue" stroke="midnightblue" points="246.452,-93.1489 255.495,-87.6293 244.983,-86.3046 246.452,-93.1489"/>
</g>
<!-- Node16 -->
<g id="node16" class="node"><title>Node16</title>
<g id="a_node16"><a xlink:href="../../d0/d58/_back_end_8c.html#a30d0a5aa94284ccfc8d3840f436edde7" target="_top" xlink:title="liberarMatriz">
<polygon fill="none" stroke="black" points="242,-38.5 242,-57.5 312,-57.5 312,-38.5 242,-38.5"/>
<text text-anchor="middle" x="277" y="-45.5" font-family="Helvetica,sans-Serif" font-size="10.00">liberarMatriz</text>
</a>
</g>
</g>
<!-- Node14&#45;&gt;Node16 -->
<g id="edge20" class="edge"><title>Node14&#45;&gt;Node16</title>
<path fill="none" stroke="midnightblue" d="M162.026,-289.106C169.555,-286.293 176.845,-282.138 182,-276 242.619,-203.822 156.389,-138.333 218,-67 221.905,-62.4793 226.902,-59.0283 232.322,-56.395"/>
<polygon fill="midnightblue" stroke="midnightblue" points="233.702,-59.613 241.723,-52.691 231.136,-53.1003 233.702,-59.613"/>
</g>
<!-- Node17 -->
<g id="node17" class="node"><title>Node17</title>
<g id="a_node17"><a xlink:href="../../d0/d58/_back_end_8c.html#a6d8e745b1bdf6f3ae9502cc947de72ac" target="_top" xlink:title="generarTablero">
<polygon fill="none" stroke="black" points="236.5,-0.5 236.5,-19.5 317.5,-19.5 317.5,-0.5 236.5,-0.5"/>
<text text-anchor="middle" x="277" y="-7.5" font-family="Helvetica,sans-Serif" font-size="10.00">generarTablero</text>
</a>
</g>
</g>
<!-- Node14&#45;&gt;Node17 -->
<g id="edge21" class="edge"><title>Node14&#45;&gt;Node17</title>
<path fill="none" stroke="midnightblue" d="M162.136,-289.198C169.663,-286.383 176.925,-282.204 182,-276 252.243,-190.134 146.576,-113.887 218,-29 220.649,-25.8519 223.828,-23.2217 227.317,-21.0246"/>
<polygon fill="midnightblue" stroke="midnightblue" points="229.136,-24.0273 236.498,-16.4075 225.991,-17.7736 229.136,-24.0273"/>
</g>
<!-- Node21 -->
<g id="node21" class="node"><title>Node21</title>
<g id="a_node21"><a xlink:href="../../df/d49/_front_end_8c.html#ad30237987566e160cc3530480d4514fc" target="_top" xlink:title="imprimirColor">
<polygon fill="none" stroke="black" points="384,-979.5 384,-998.5 458,-998.5 458,-979.5 384,-979.5"/>
<text text-anchor="middle" x="421" y="-986.5" font-family="Helvetica,sans-Serif" font-size="10.00">imprimirColor</text>
</a>
</g>
</g>
<!-- Node20&#45;&gt;Node21 -->
<g id="edge25" class="edge"><title>Node20&#45;&gt;Node21</title>
<path fill="none" stroke="midnightblue" d="M318.692,-968.31C335.819,-971.808 355.843,-975.897 373.545,-979.513"/>
<polygon fill="midnightblue" stroke="midnightblue" points="373.162,-983.007 383.66,-981.579 374.563,-976.148 373.162,-983.007"/>
</g>
<!-- Node21&#45;&gt;Node2 -->
<g id="edge26" class="edge"><title>Node21&#45;&gt;Node2</title>
<path fill="none" stroke="midnightblue" d="M435.163,-998.834C445.937,-1007.52 460.842,-1021.09 470,-1036 512.702,-1105.51 532.273,-1202.66 539.062,-1244.05"/>
<polygon fill="midnightblue" stroke="midnightblue" points="535.642,-1244.84 540.646,-1254.18 542.558,-1243.76 535.642,-1244.84"/>
</g>
<!-- Node22&#45;&gt;Node8 -->
<g id="edge45" class="edge"><title>Node22&#45;&gt;Node8</title>
<path fill="none" stroke="midnightblue" d="M129.021,-551.679C129.642,-591.606 137.378,-745.251 218,-827 219.423,-828.443 220.957,-829.776 222.578,-831.008"/>
<polygon fill="midnightblue" stroke="midnightblue" points="220.936,-834.108 231.288,-836.364 224.603,-828.145 220.936,-834.108"/>
</g>
<!-- Node22&#45;&gt;Node9 -->
<g id="edge39" class="edge"><title>Node22&#45;&gt;Node9</title>
<path fill="none" stroke="midnightblue" d="M139.494,-532.365C155.18,-518.69 186.303,-494.28 218,-485 268.332,-470.264 291.485,-457.271 336,-485 390.193,-518.757 410.419,-598.83 417.09,-636.179"/>
<polygon fill="midnightblue" stroke="midnightblue" points="413.677,-636.997 418.748,-646.3 420.585,-635.866 413.677,-636.997"/>
</g>
<!-- Node22&#45;&gt;Node12 -->
<g id="edge46" class="edge"><title>Node22&#45;&gt;Node12</title>
<path fill="none" stroke="midnightblue" d="M130.297,-551.775C137.016,-600.906 169.423,-820.293 218,-865 262.97,-906.388 338.182,-909.405 383.042,-906.869"/>
<polygon fill="midnightblue" stroke="midnightblue" points="383.479,-910.347 393.215,-906.169 382.998,-903.364 383.479,-910.347"/>
</g>
<!-- Node22&#45;&gt;Node20 -->
<g id="edge56" class="edge"><title>Node22&#45;&gt;Node20</title>
<path fill="none" stroke="midnightblue" d="M129.647,-551.71C132.877,-594.9 149.92,-772.944 218,-898 227.597,-915.628 243.395,-932.045 256.081,-943.552"/>
<polygon fill="midnightblue" stroke="midnightblue" points="254.041,-946.417 263.872,-950.367 258.65,-941.149 254.041,-946.417"/>
</g>
<!-- Node23 -->
<g id="node23" class="node"><title>Node23</title>
<g id="a_node23"><a xlink:href="../../df/d49/_front_end_8c.html#a031f798e86eaa72898a0db976fc4566d" target="_top" xlink:title="inputString">
<polygon fill="none" stroke="black" points="245.5,-532.5 245.5,-551.5 308.5,-551.5 308.5,-532.5 245.5,-532.5"/>
<text text-anchor="middle" x="277" y="-539.5" font-family="Helvetica,sans-Serif" font-size="10.00">inputString</text>
</a>
</g>
</g>
<!-- Node22&#45;&gt;Node23 -->
<g id="edge28" class="edge"><title>Node22&#45;&gt;Node23</title>
<path fill="none" stroke="midnightblue" d="M176.321,-542C195.353,-542 217.079,-542 235.379,-542"/>
<polygon fill="midnightblue" stroke="midnightblue" points="235.433,-545.5 245.433,-542 235.433,-538.5 235.433,-545.5"/>
</g>
<!-- Node24 -->
<g id="node24" class="node"><title>Node24</title>
<g id="a_node24"><a xlink:href="../../d0/d58/_back_end_8c.html#a638bacb7948a6f147d6103864d99067c" target="_top" xlink:title="validarEliminar">
<polygon fill="none" stroke="black" points="237,-494.5 237,-513.5 317,-513.5 317,-494.5 237,-494.5"/>
<text text-anchor="middle" x="277" y="-501.5" font-family="Helvetica,sans-Serif" font-size="10.00">validarEliminar</text>
</a>
</g>
</g>
<!-- Node22&#45;&gt;Node24 -->
<g id="edge29" class="edge"><title>Node22&#45;&gt;Node24</title>
<path fill="none" stroke="midnightblue" d="M166.094,-532.411C185.318,-527.442 208.986,-521.323 229.429,-516.039"/>
<polygon fill="midnightblue" stroke="midnightblue" points="230.367,-519.412 239.172,-513.52 228.615,-512.634 230.367,-519.412"/>
</g>
<!-- Node25 -->
<g id="node25" class="node"><title>Node25</title>
<g id="a_node25"><a xlink:href="../../d0/d58/_back_end_8c.html#abb4221a879101cd2370d2d0acc92bf12" target="_top" xlink:title="igualacion">
<polygon fill="none" stroke="black" points="247,-418.5 247,-437.5 307,-437.5 307,-418.5 247,-418.5"/>
<text text-anchor="middle" x="277" y="-425.5" font-family="Helvetica,sans-Serif" font-size="10.00">igualacion</text>
</a>
</g>
</g>
<!-- Node22&#45;&gt;Node25 -->
<g id="edge30" class="edge"><title>Node22&#45;&gt;Node25</title>
<path fill="none" stroke="midnightblue" d="M136.34,-532.35C150.428,-514.391 182.981,-475.532 218,-452 223.895,-448.039 230.547,-444.539 237.189,-441.523"/>
<polygon fill="midnightblue" stroke="midnightblue" points="238.975,-444.568 246.824,-437.451 236.251,-438.12 238.975,-444.568"/>
</g>
<!-- Node26 -->
<g id="node26" class="node"><title>Node26</title>
<g id="a_node26"><a xlink:href="../../d0/d58/_back_end_8c.html#a434fb24763854229cc6eeced2e45b4bd" target="_top" xlink:title="eliminar">
<polygon fill="none" stroke="black" points="252,-342.5 252,-361.5 302,-361.5 302,-342.5 252,-342.5"/>
<text text-anchor="middle" x="277" y="-349.5" font-family="Helvetica,sans-Serif" font-size="10.00">eliminar</text>
</a>
</g>
</g>
<!-- Node22&#45;&gt;Node26 -->
<g id="edge31" class="edge"><title>Node22&#45;&gt;Node26</title>
<path fill="none" stroke="midnightblue" d="M131.292,-532.242C138.611,-503.231 164.16,-416.694 218,-371 224.852,-365.185 233.53,-361.138 242.071,-358.325"/>
<polygon fill="midnightblue" stroke="midnightblue" points="243.238,-361.632 251.919,-355.558 241.345,-354.893 243.238,-361.632"/>
</g>
<!-- Node28 -->
<g id="node28" class="node"><title>Node28</title>
<g id="a_node28"><a xlink:href="../../d0/d58/_back_end_8c.html#adce6d32ded4b58704571dc8a4528a51b" target="_top" xlink:title="validarMartillazo">
<polygon fill="none" stroke="black" points="233.5,-380.5 233.5,-399.5 320.5,-399.5 320.5,-380.5 233.5,-380.5"/>
<text text-anchor="middle" x="277" y="-387.5" font-family="Helvetica,sans-Serif" font-size="10.00">validarMartillazo</text>
</a>
</g>
</g>
<!-- Node22&#45;&gt;Node28 -->
<g id="edge33" class="edge"><title>Node22&#45;&gt;Node28</title>
<path fill="none" stroke="midnightblue" d="M132.786,-532.365C142.847,-507.999 172.618,-443.415 218,-409 220.454,-407.139 223.098,-405.456 225.857,-403.934"/>
<polygon fill="midnightblue" stroke="midnightblue" points="227.443,-407.056 234.973,-399.603 224.439,-400.733 227.443,-407.056"/>
</g>
<!-- Node29 -->
<g id="node29" class="node"><title>Node29</title>
<g id="a_node29"><a xlink:href="../../d0/d58/_back_end_8c.html#a4567ed9e8cee6392fbb432ba9f36bc47" target="_top" xlink:title="martillazo">
<polygon fill="none" stroke="black" points="247.5,-266.5 247.5,-285.5 306.5,-285.5 306.5,-266.5 247.5,-266.5"/>
<text text-anchor="middle" x="277" y="-273.5" font-family="Helvetica,sans-Serif" font-size="10.00">martillazo</text>
</a>
</g>
</g>
<!-- Node22&#45;&gt;Node29 -->
<g id="edge34" class="edge"><title>Node22&#45;&gt;Node29</title>
<path fill="none" stroke="midnightblue" d="M129.552,-532.371C132.168,-495.864 146.39,-364.544 218,-295 223.435,-289.722 230.358,-285.91 237.515,-283.157"/>
<polygon fill="midnightblue" stroke="midnightblue" points="238.845,-286.406 247.3,-280.021 236.709,-279.74 238.845,-286.406"/>
</g>
<!-- Node30 -->
<g id="node30" class="node"><title>Node30</title>
<g id="a_node30"><a xlink:href="../../d0/d58/_back_end_8c.html#ae0bf64ce84dd0f847d76ee9c386db12d" target="_top" xlink:title="validarColumna">
<polygon fill="none" stroke="black" points="235,-228.5 235,-247.5 319,-247.5 319,-228.5 235,-228.5"/>
<text text-anchor="middle" x="277" y="-235.5" font-family="Helvetica,sans-Serif" font-size="10.00">validarColumna</text>
</a>
</g>
</g>
<!-- Node22&#45;&gt;Node30 -->
<g id="edge35" class="edge"><title>Node22&#45;&gt;Node30</title>
<path fill="none" stroke="midnightblue" d="M130.798,-532.301C139.333,-487.211 177.052,-298.52 218,-257 220.344,-254.624 222.989,-252.544 225.826,-250.725"/>
<polygon fill="midnightblue" stroke="midnightblue" points="227.576,-253.759 234.802,-246.01 224.321,-247.562 227.576,-253.759"/>
</g>
<!-- Node31 -->
<g id="node31" class="node"><title>Node31</title>
<g id="a_node31"><a xlink:href="../../d0/d58/_back_end_8c.html#a816db612551a36031d61664fed48a215" target="_top" xlink:title="columna">
<polygon fill="none" stroke="black" points="250.5,-190.5 250.5,-209.5 303.5,-209.5 303.5,-190.5 250.5,-190.5"/>
<text text-anchor="middle" x="277" y="-197.5" font-family="Helvetica,sans-Serif" font-size="10.00">columna</text>
</a>
</g>
</g>
<!-- Node22&#45;&gt;Node31 -->
<g id="edge36" class="edge"><title>Node22&#45;&gt;Node31</title>
<path fill="none" stroke="midnightblue" d="M131.067,-532.452C142.168,-481.499 195.072,-243.049 218,-219 224.044,-212.661 232.231,-208.435 240.548,-205.618"/>
<polygon fill="midnightblue" stroke="midnightblue" points="241.555,-208.97 250.25,-202.916 239.677,-202.227 241.555,-208.97"/>
</g>
<!-- Node32 -->
<g id="node32" class="node"><title>Node32</title>
<g id="a_node32"><a xlink:href="../../d0/d58/_back_end_8c.html#a8e2f13efac8977bc5082d97d90788f5e" target="_top" xlink:title="validarHilera">
<polygon fill="none" stroke="black" points="241.5,-152.5 241.5,-171.5 312.5,-171.5 312.5,-152.5 241.5,-152.5"/>
<text text-anchor="middle" x="277" y="-159.5" font-family="Helvetica,sans-Serif" font-size="10.00">validarHilera</text>
</a>
</g>
</g>
<!-- Node22&#45;&gt;Node32 -->
<g id="edge37" class="edge"><title>Node22&#45;&gt;Node32</title>
<path fill="none" stroke="midnightblue" d="M131.285,-532.171C144.587,-475.022 211.675,-187.817 218,-181 221.874,-176.825 226.678,-173.565 231.85,-171.021"/>
<polygon fill="midnightblue" stroke="midnightblue" points="233.463,-174.145 241.438,-167.171 230.854,-167.65 233.463,-174.145"/>
</g>
<!-- Node33 -->
<g id="node33" class="node"><title>Node33</title>
<g id="a_node33"><a xlink:href="../../d0/d58/_back_end_8c.html#a00ed018131a51a0fefae11dfb9005c0d" target="_top" xlink:title="hilera">
<polygon fill="none" stroke="black" points="257,-760.5 257,-779.5 297,-779.5 297,-760.5 257,-760.5"/>
<text text-anchor="middle" x="277" y="-767.5" font-family="Helvetica,sans-Serif" font-size="10.00">hilera</text>
</a>
</g>
</g>
<!-- Node22&#45;&gt;Node33 -->
<g id="edge38" class="edge"><title>Node22&#45;&gt;Node33</title>
<path fill="none" stroke="midnightblue" d="M130.31,-551.954C135.212,-585.223 155.522,-693.677 218,-751 226.022,-758.36 236.948,-762.873 247.155,-765.639"/>
<polygon fill="midnightblue" stroke="midnightblue" points="246.462,-769.07 256.987,-767.862 248.006,-762.242 246.462,-769.07"/>
</g>
<!-- Node34 -->
<g id="node34" class="node"><title>Node34</title>
<g id="a_node34"><a xlink:href="../../df/d49/_front_end_8c.html#a6323e80bca186d3d9839b6a470500a98" target="_top" xlink:title="save">
<polygon fill="none" stroke="black" points="258,-722.5 258,-741.5 296,-741.5 296,-722.5 258,-722.5"/>
<text text-anchor="middle" x="277" y="-729.5" font-family="Helvetica,sans-Serif" font-size="10.00">save</text>
</a>
</g>
</g>
<!-- Node22&#45;&gt;Node34 -->
<g id="edge40" class="edge"><title>Node22&#45;&gt;Node34</title>
<path fill="none" stroke="midnightblue" d="M131.292,-551.758C138.611,-580.769 164.16,-667.306 218,-713 226.422,-720.148 237.603,-724.625 247.899,-727.421"/>
<polygon fill="midnightblue" stroke="midnightblue" points="247.235,-730.86 257.766,-729.694 248.807,-724.038 247.235,-730.86"/>
</g>
<!-- Node35 -->
<g id="node35" class="node"><title>Node35</title>
<g id="a_node35"><a xlink:href="../../df/d49/_front_end_8c.html#ad75d779851077e6fb6b2fdace3b9f899" target="_top" xlink:title="GuardarAccionBitacora">
<polygon fill="none" stroke="black" points="218.5,-798.5 218.5,-817.5 335.5,-817.5 335.5,-798.5 218.5,-798.5"/>
<text text-anchor="middle" x="277" y="-805.5" font-family="Helvetica,sans-Serif" font-size="10.00">GuardarAccionBitacora</text>
</a>
</g>
</g>
<!-- Node22&#45;&gt;Node35 -->
<g id="edge41" class="edge"><title>Node22&#45;&gt;Node35</title>
<path fill="none" stroke="midnightblue" d="M129.552,-551.629C132.168,-588.136 146.39,-719.456 218,-789 219.637,-790.589 221.408,-792.046 223.281,-793.381"/>
<polygon fill="midnightblue" stroke="midnightblue" points="221.628,-796.468 232.028,-798.486 225.156,-790.423 221.628,-796.468"/>
</g>
<!-- Node36 -->
<g id="node36" class="node"><title>Node36</title>
<g id="a_node36"><a xlink:href="../../df/d49/_front_end_8c.html#ab10f46bf0cd9897c47a726d653728622" target="_top" xlink:title="compBit_File">
<polygon fill="none" stroke="black" points="240,-684.5 240,-703.5 314,-703.5 314,-684.5 240,-684.5"/>
<text text-anchor="middle" x="277" y="-691.5" font-family="Helvetica,sans-Serif" font-size="10.00">compBit_File</text>
</a>
</g>
</g>
<!-- Node22&#45;&gt;Node36 -->
<g id="edge43" class="edge"><title>Node22&#45;&gt;Node36</title>
<path fill="none" stroke="midnightblue" d="M132.786,-551.635C142.847,-576.001 172.618,-640.585 218,-675 221.81,-677.889 226.079,-680.35 230.526,-682.444"/>
<polygon fill="midnightblue" stroke="midnightblue" points="229.236,-685.698 239.817,-686.246 231.888,-679.219 229.236,-685.698"/>
</g>
<!-- Node37 -->
<g id="node37" class="node"><title>Node37</title>
<g id="a_node37"><a xlink:href="../../df/d49/_front_end_8c.html#a75aefb8f0ed536d9adae0d1722d559e6" target="_top" xlink:title="SaveBitacora">
<polygon fill="none" stroke="black" points="239.5,-646.5 239.5,-665.5 314.5,-665.5 314.5,-646.5 239.5,-646.5"/>
<text text-anchor="middle" x="277" y="-653.5" font-family="Helvetica,sans-Serif" font-size="10.00">SaveBitacora</text>
</a>
</g>
</g>
<!-- Node22&#45;&gt;Node37 -->
<g id="edge44" class="edge"><title>Node22&#45;&gt;Node37</title>
<path fill="none" stroke="midnightblue" d="M135.421,-551.578C148.648,-570.594 180.833,-613.319 218,-637 221.771,-639.403 225.876,-641.53 230.1,-643.407"/>
<polygon fill="midnightblue" stroke="midnightblue" points="228.874,-646.685 239.459,-647.126 231.459,-640.18 228.874,-646.685"/>
</g>
<!-- Node38 -->
<g id="node38" class="node"><title>Node38</title>
<g id="a_node38"><a xlink:href="../../d0/d58/_back_end_8c.html#a72ac91bcdb1237ef5c5e2e8075f420a4" target="_top" xlink:title="Proc_Matriz">
<polygon fill="none" stroke="black" points="242.5,-304.5 242.5,-323.5 311.5,-323.5 311.5,-304.5 242.5,-304.5"/>
<text text-anchor="middle" x="277" y="-311.5" font-family="Helvetica,sans-Serif" font-size="10.00">Proc_Matriz</text>
</a>
</g>
</g>
<!-- Node22&#45;&gt;Node38 -->
<g id="edge47" class="edge"><title>Node22&#45;&gt;Node38</title>
<path fill="none" stroke="midnightblue" d="M130.31,-532.046C135.212,-498.777 155.522,-390.323 218,-333 222.352,-329.008 227.557,-325.853 233.039,-323.36"/>
<polygon fill="midnightblue" stroke="midnightblue" points="234.341,-326.61 242.424,-319.76 231.834,-320.074 234.341,-326.61"/>
</g>
<!-- Node43 -->
<g id="node43" class="node"><title>Node43</title>
<g id="a_node43"><a xlink:href="../../d0/d58/_back_end_8c.html#ad99bc99a3768cdc89f074ba8d5c5fd65" target="_top" xlink:title="nivelTerminado">
<polygon fill="none" stroke="black" points="235.5,-608.5 235.5,-627.5 318.5,-627.5 318.5,-608.5 235.5,-608.5"/>
<text text-anchor="middle" x="277" y="-615.5" font-family="Helvetica,sans-Serif" font-size="10.00">nivelTerminado</text>
</a>
</g>
</g>
<!-- Node22&#45;&gt;Node43 -->
<g id="edge52" class="edge"><title>Node22&#45;&gt;Node43</title>
<path fill="none" stroke="midnightblue" d="M141.666,-551.585C158.406,-563.898 189.157,-585.312 218,-599 222.608,-601.187 227.535,-603.223 232.496,-605.088"/>
<polygon fill="midnightblue" stroke="midnightblue" points="231.412,-608.417 242.007,-608.458 233.75,-601.819 231.412,-608.417"/>
</g>
<!-- Node44 -->
<g id="node44" class="node"><title>Node44</title>
<g id="a_node44"><a xlink:href="../../df/d49/_front_end_8c.html#aa2c9f30c45a8afbc629eca6c5866cc00" target="_top" xlink:title="resultadoFindelNivel">
<polygon fill="none" stroke="black" points="224.5,-570.5 224.5,-589.5 329.5,-589.5 329.5,-570.5 224.5,-570.5"/>
<text text-anchor="middle" x="277" y="-577.5" font-family="Helvetica,sans-Serif" font-size="10.00">resultadoFindelNivel</text>
</a>
</g>
</g>
<!-- Node22&#45;&gt;Node44 -->
<g id="edge53" class="edge"><title>Node22&#45;&gt;Node44</title>
<path fill="none" stroke="midnightblue" d="M166.094,-551.589C185.318,-556.558 208.986,-562.677 229.429,-567.961"/>
<polygon fill="midnightblue" stroke="midnightblue" points="228.615,-571.366 239.172,-570.48 230.367,-564.588 228.615,-571.366"/>
</g>
<!-- Node45 -->
<g id="node45" class="node"><title>Node45</title>
<g id="a_node45"><a xlink:href="../../d0/d58/_back_end_8c.html#a77f81f8f05fac2b77ac925185e15ae1c" target="_top" xlink:title="analisisMatriz">
<polygon fill="none" stroke="black" points="238.5,-114.5 238.5,-133.5 315.5,-133.5 315.5,-114.5 238.5,-114.5"/>
<text text-anchor="middle" x="277" y="-121.5" font-family="Helvetica,sans-Serif" font-size="10.00">analisisMatriz</text>
</a>
</g>
</g>
<!-- Node22&#45;&gt;Node45 -->
<g id="edge54" class="edge"><title>Node22&#45;&gt;Node45</title>
<path fill="none" stroke="midnightblue" d="M131.293,-532.459C138.794,-501.185 163.195,-398.91 182,-314 198.793,-238.171 166.157,-200.83 218,-143 221.108,-139.533 224.857,-136.697 228.936,-134.377"/>
<polygon fill="midnightblue" stroke="midnightblue" points="230.654,-137.439 238.273,-130.077 227.726,-131.081 230.654,-137.439"/>
</g>
<!-- Node27 -->
<g id="node27" class="node"><title>Node27</title>
<g id="a_node27"><a xlink:href="../../d0/d58/_back_end_8c.html#a173f42259c2058a7251f21420b9bac1b" target="_top" xlink:title="elimAd">
<polygon fill="none" stroke="black" points="397.5,-361.5 397.5,-380.5 444.5,-380.5 444.5,-361.5 397.5,-361.5"/>
<text text-anchor="middle" x="421" y="-368.5" font-family="Helvetica,sans-Serif" font-size="10.00">elimAd</text>
</a>
</g>
</g>
<!-- Node26&#45;&gt;Node27 -->
<g id="edge32" class="edge"><title>Node26&#45;&gt;Node27</title>
<path fill="none" stroke="midnightblue" d="M302.088,-355.223C325.456,-358.35 361.094,-363.118 387.074,-366.594"/>
<polygon fill="midnightblue" stroke="midnightblue" points="386.829,-370.093 397.205,-367.95 387.757,-363.155 386.829,-370.093"/>
</g>
<!-- Node35&#45;&gt;Node12 -->
<g id="edge42" class="edge"><title>Node35&#45;&gt;Node12</title>
<path fill="none" stroke="midnightblue" d="M314.897,-817.508C322.135,-820.079 329.494,-823.223 336,-827 363.332,-842.868 389.451,-868.763 405.108,-885.843"/>
<polygon fill="midnightblue" stroke="midnightblue" points="402.634,-888.326 411.914,-893.437 407.847,-883.654 402.634,-888.326"/>
</g>
<!-- Node39 -->
<g id="node39" class="node"><title>Node39</title>
<g id="a_node39"><a xlink:href="../../d0/d58/_back_end_8c.html#a30778fe7f3a7111df0132951b5a8cb9f" target="_top" xlink:title="gravedad">
<polygon fill="none" stroke="black" points="393,-247.5 393,-266.5 449,-266.5 449,-247.5 393,-247.5"/>
<text text-anchor="middle" x="421" y="-254.5" font-family="Helvetica,sans-Serif" font-size="10.00">gravedad</text>
</a>
</g>
</g>
<!-- Node38&#45;&gt;Node39 -->
<g id="edge48" class="edge"><title>Node38&#45;&gt;Node39</title>
<path fill="none" stroke="midnightblue" d="M310.57,-304.401C318.96,-301.638 327.903,-298.434 336,-295 352.656,-287.937 355.565,-283.563 372,-276 376.142,-274.094 380.534,-272.195 384.912,-270.376"/>
<polygon fill="midnightblue" stroke="midnightblue" points="386.415,-273.543 394.373,-266.549 383.79,-267.054 386.415,-273.543"/>
</g>
<!-- Node41 -->
<g id="node41" class="node"><title>Node41</title>
<g id="a_node41"><a xlink:href="../../d0/d58/_back_end_8c.html#add1cf658d13603c789cb641681a863cc" target="_top" xlink:title="nullCols">
<polygon fill="none" stroke="black" points="395,-323.5 395,-342.5 447,-342.5 447,-323.5 395,-323.5"/>
<text text-anchor="middle" x="421" y="-330.5" font-family="Helvetica,sans-Serif" font-size="10.00">nullCols</text>
</a>
</g>
</g>
<!-- Node38&#45;&gt;Node41 -->
<g id="edge50" class="edge"><title>Node38&#45;&gt;Node41</title>
<path fill="none" stroke="midnightblue" d="M311.652,-318.503C333.6,-321.439 362.206,-325.267 384.512,-328.252"/>
<polygon fill="midnightblue" stroke="midnightblue" points="384.209,-331.742 394.585,-329.599 385.138,-324.804 384.209,-331.742"/>
</g>
<!-- Node42 -->
<g id="node42" class="node"><title>Node42</title>
<g id="a_node42"><a xlink:href="../../d0/d58/_back_end_8c.html#a7966b82c6fb095984645478900337cd4" target="_top" xlink:title="calcularPuntaje">
<polygon fill="none" stroke="black" points="379.5,-285.5 379.5,-304.5 462.5,-304.5 462.5,-285.5 379.5,-285.5"/>
<text text-anchor="middle" x="421" y="-292.5" font-family="Helvetica,sans-Serif" font-size="10.00">calcularPuntaje</text>
</a>
</g>
</g>
<!-- Node38&#45;&gt;Node42 -->
<g id="edge51" class="edge"><title>Node38&#45;&gt;Node42</title>
<path fill="none" stroke="midnightblue" d="M311.652,-309.497C328.823,-307.2 350.069,-304.357 369.186,-301.799"/>
<polygon fill="midnightblue" stroke="midnightblue" points="369.803,-305.248 379.251,-300.452 368.875,-298.31 369.803,-305.248"/>
</g>
<!-- Node40 -->
<g id="node40" class="node"><title>Node40</title>
<g id="a_node40"><a xlink:href="../../d0/d58/_back_end_8c.html#af6e26bc55afeec730efa1a694027de82" target="_top" xlink:title="decalarFils">
<polygon fill="none" stroke="black" points="511,-247.5 511,-266.5 575,-266.5 575,-247.5 511,-247.5"/>
<text text-anchor="middle" x="543" y="-254.5" font-family="Helvetica,sans-Serif" font-size="10.00">decalarFils</text>
</a>
</g>
</g>
<!-- Node39&#45;&gt;Node40 -->
<g id="edge49" class="edge"><title>Node39&#45;&gt;Node40</title>
<path fill="none" stroke="midnightblue" d="M449.23,-257C464.348,-257 483.47,-257 500.42,-257"/>
<polygon fill="midnightblue" stroke="midnightblue" points="500.638,-260.5 510.638,-257 500.638,-253.5 500.638,-260.5"/>
</g>
<!-- Node46 -->
<g id="node46" class="node"><title>Node46</title>
<g id="a_node46"><a xlink:href="../../d0/d58/_back_end_8c.html#ac7c84a2ee121281c8f0d9c49c3dbb58e" target="_top" xlink:title="algunAdyacente">
<polygon fill="none" stroke="black" points="378,-114.5 378,-133.5 464,-133.5 464,-114.5 378,-114.5"/>
<text text-anchor="middle" x="421" y="-121.5" font-family="Helvetica,sans-Serif" font-size="10.00">algunAdyacente</text>
</a>
</g>
</g>
<!-- Node45&#45;&gt;Node46 -->
<g id="edge55" class="edge"><title>Node45&#45;&gt;Node46</title>
<path fill="none" stroke="midnightblue" d="M315.681,-124C331.534,-124 350.255,-124 367.43,-124"/>
<polygon fill="midnightblue" stroke="midnightblue" points="367.884,-127.5 377.884,-124 367.884,-120.5 367.884,-127.5"/>
</g>
</g>
</svg>
