<?xml version="1.0" encoding="UTF-8" standalone="no"?>
<!DOCTYPE svg PUBLIC "-//W3C//DTD SVG 1.1//EN"
 "http://www.w3.org/Graphics/SVG/1.1/DTD/svg11.dtd">
<!-- Generated by graphviz version 2.31.20130601.0447 (20130601.0447)
 -->
<!-- Title: FrontEnd.c Pages: 1 -->
<svg width="397pt" height="140pt"
 viewBox="0.00 0.00 396.59 140.00" xmlns="http://www.w3.org/2000/svg" xmlns:xlink="http://www.w3.org/1999/xlink">
<g id="graph0" class="graph" transform="scale(1 1) rotate(0) translate(4 136)">
<title>FrontEnd.c</title>
<polygon fill="white" stroke="white" points="-4,5 -4,-136 393.591,-136 393.591,5 -4,5"/>
<!-- Node1 -->
<g id="node1" class="node"><title>Node1</title>
<polygon fill="#bfbfbf" stroke="black" points="137.091,-112.5 137.091,-131.5 202.091,-131.5 202.091,-112.5 137.091,-112.5"/>
<text text-anchor="middle" x="169.591" y="-119.5" font-family="Helvetica,sans-Serif" font-size="10.00">FrontEnd.c</text>
</g>
<!-- Node2 -->
<g id="node2" class="node"><title>Node2</title>
<polygon fill="white" stroke="#bfbfbf" points="53.5908,-0.5 53.5908,-19.5 99.5908,-19.5 99.5908,-0.5 53.5908,-0.5"/>
<text text-anchor="middle" x="76.5908" y="-7.5" font-family="Helvetica,sans-Serif" font-size="10.00">stdio.h</text>
</g>
<!-- Node1&#45;&gt;Node2 -->
<g id="edge1" class="edge"><title>Node1&#45;&gt;Node2</title>
<path fill="none" stroke="midnightblue" d="M137.074,-116.809C93.7237,-110.477 20.5861,-96.9419 4.59082,-76 -11.25,-55.2604 18.4716,-35.8112 44.3982,-23.69"/>
<polygon fill="midnightblue" stroke="midnightblue" points="45.9669,-26.8231 53.687,-19.5671 43.127,-20.425 45.9669,-26.8231"/>
</g>
<!-- Node3 -->
<g id="node3" class="node"><title>Node3</title>
<polygon fill="white" stroke="#bfbfbf" points="13.5908,-56.5 13.5908,-75.5 61.5908,-75.5 61.5908,-56.5 13.5908,-56.5"/>
<text text-anchor="middle" x="37.5908" y="-63.5" font-family="Helvetica,sans-Serif" font-size="10.00">stdlib.h</text>
</g>
<!-- Node1&#45;&gt;Node3 -->
<g id="edge2" class="edge"><title>Node1&#45;&gt;Node3</title>
<path fill="none" stroke="midnightblue" d="M148.675,-112.444C126.855,-103.517 92.441,-89.4387 67.6986,-79.3168"/>
<polygon fill="midnightblue" stroke="midnightblue" points="68.9895,-76.0634 58.4088,-75.5164 66.339,-82.5422 68.9895,-76.0634"/>
</g>
<!-- Node4 -->
<g id="node4" class="node"><title>Node4</title>
<polygon fill="white" stroke="#bfbfbf" points="80.0908,-56.5 80.0908,-75.5 129.091,-75.5 129.091,-56.5 80.0908,-56.5"/>
<text text-anchor="middle" x="104.591" y="-63.5" font-family="Helvetica,sans-Serif" font-size="10.00">string.h</text>
</g>
<!-- Node1&#45;&gt;Node4 -->
<g id="edge3" class="edge"><title>Node1&#45;&gt;Node4</title>
<path fill="none" stroke="midnightblue" d="M159.147,-112.324C149.445,-104.263 134.776,-92.0765 123.091,-82.3695"/>
<polygon fill="midnightblue" stroke="midnightblue" points="125.153,-79.532 115.224,-75.8339 120.68,-84.9163 125.153,-79.532"/>
</g>
<!-- Node5 -->
<g id="node5" class="node"><title>Node5</title>
<polygon fill="white" stroke="#bfbfbf" points="147.591,-56.5 147.591,-75.5 191.591,-75.5 191.591,-56.5 147.591,-56.5"/>
<text text-anchor="middle" x="169.591" y="-63.5" font-family="Helvetica,sans-Serif" font-size="10.00">time.h</text>
</g>
<!-- Node1&#45;&gt;Node5 -->
<g id="edge4" class="edge"><title>Node1&#45;&gt;Node5</title>
<path fill="none" stroke="midnightblue" d="M169.591,-112.083C169.591,-105.006 169.591,-94.8611 169.591,-85.9865"/>
<polygon fill="midnightblue" stroke="midnightblue" points="173.091,-85.751 169.591,-75.7511 166.091,-85.7511 173.091,-85.751"/>
</g>
<!-- Node6 -->
<g id="node6" class="node"><title>Node6</title>
<g id="a_node6"><a xlink:href="../../d5/dd5/tiles_back_8h.html" target="_top" xlink:title="tilesBack.h">
<polygon fill="white" stroke="black" points="230.091,-0.5 230.091,-19.5 295.091,-19.5 295.091,-0.5 230.091,-0.5"/>
<text text-anchor="middle" x="262.591" y="-7.5" font-family="Helvetica,sans-Serif" font-size="10.00">tilesBack.h</text>
</a>
</g>
</g>
<!-- Node1&#45;&gt;Node6 -->
<g id="edge5" class="edge"><title>Node1&#45;&gt;Node6</title>
<path fill="none" stroke="midnightblue" d="M202.272,-117.906C229.103,-113.447 265.518,-102.564 283.591,-76 293.55,-61.3615 284.751,-41.6898 275.685,-27.8343"/>
<polygon fill="midnightblue" stroke="midnightblue" points="278.533,-25.7996 269.884,-19.6805 272.829,-29.8577 278.533,-25.7996"/>
</g>
<!-- Node7 -->
<g id="node7" class="node"><title>Node7</title>
<g id="a_node7"><a xlink:href="../../d5/dd8/tiles_front_8h.html" target="_top" xlink:title="tilesFront.h">
<polygon fill="white" stroke="black" points="210.091,-56.5 210.091,-75.5 275.091,-75.5 275.091,-56.5 210.091,-56.5"/>
<text text-anchor="middle" x="242.591" y="-63.5" font-family="Helvetica,sans-Serif" font-size="10.00">tilesFront.h</text>
</a>
</g>
</g>
<!-- Node1&#45;&gt;Node7 -->
<g id="edge6" class="edge"><title>Node1&#45;&gt;Node7</title>
<path fill="none" stroke="midnightblue" d="M181.32,-112.324C192.428,-104.107 209.333,-91.6017 222.574,-81.8069"/>
<polygon fill="midnightblue" stroke="midnightblue" points="224.691,-84.5948 230.649,-75.8339 220.528,-78.9671 224.691,-84.5948"/>
</g>
<!-- Node8 -->
<g id="node8" class="node"><title>Node8</title>
<g id="a_node8"><a xlink:href="../../da/de1/getnum_8h.html" target="_top" xlink:title="getnum.h">
<polygon fill="white" stroke="black" points="332.091,-56.5 332.091,-75.5 389.091,-75.5 389.091,-56.5 332.091,-56.5"/>
<text text-anchor="middle" x="360.591" y="-63.5" font-family="Helvetica,sans-Serif" font-size="10.00">getnum.h</text>
</a>
</g>
</g>
<!-- Node1&#45;&gt;Node8 -->
<g id="edge9" class="edge"><title>Node1&#45;&gt;Node8</title>
<path fill="none" stroke="midnightblue" d="M199.855,-112.444C233.027,-103.065 286.313,-88.0001 322.351,-77.8112"/>
<polygon fill="midnightblue" stroke="midnightblue" points="323.357,-81.1641 332.028,-75.0755 321.453,-74.4281 323.357,-81.1641"/>
</g>
<!-- Node7&#45;&gt;Node2 -->
<g id="edge8" class="edge"><title>Node7&#45;&gt;Node2</title>
<path fill="none" stroke="midnightblue" d="M216.288,-56.4435C187.333,-47.0244 140.744,-31.869 109.417,-21.6785"/>
<polygon fill="midnightblue" stroke="midnightblue" points="110.417,-18.3232 99.8246,-18.558 108.251,-24.9798 110.417,-18.3232"/>
</g>
<!-- Node7&#45;&gt;Node6 -->
<g id="edge7" class="edge"><title>Node7&#45;&gt;Node6</title>
<path fill="none" stroke="midnightblue" d="M245.893,-56.083C248.573,-48.8486 252.439,-38.4087 255.777,-29.3968"/>
<polygon fill="midnightblue" stroke="midnightblue" points="259.159,-30.3442 259.35,-19.7511 252.594,-27.9129 259.159,-30.3442"/>
</g>
<!-- Node9 -->
<g id="node9" class="node"><title>Node9</title>
<polygon fill="white" stroke="#bfbfbf" points="334.591,-0.5 334.591,-19.5 386.591,-19.5 386.591,-0.5 334.591,-0.5"/>
<text text-anchor="middle" x="360.591" y="-7.5" font-family="Helvetica,sans-Serif" font-size="10.00">stdarg.h</text>
</g>
<!-- Node8&#45;&gt;Node9 -->
<g id="edge10" class="edge"><title>Node8&#45;&gt;Node9</title>
<path fill="none" stroke="midnightblue" d="M360.591,-56.083C360.591,-49.0059 360.591,-38.8611 360.591,-29.9865"/>
<polygon fill="midnightblue" stroke="midnightblue" points="364.091,-29.751 360.591,-19.7511 357.091,-29.7511 364.091,-29.751"/>
</g>
</g>
</svg>
