<?xml version="1.0" encoding="UTF-8" standalone="no"?>
<!DOCTYPE svg PUBLIC "-//W3C//DTD SVG 1.1//EN"
 "http://www.w3.org/Graphics/SVG/1.1/DTD/svg11.dtd">
<!-- Generated by graphviz version 2.31.20130601.0447 (20130601.0447)
 -->
<!-- Title: hilera Pages: 1 -->
<svg width="156pt" height="46pt"
 viewBox="0.00 0.00 156.00 46.00" xmlns="http://www.w3.org/2000/svg" xmlns:xlink="http://www.w3.org/1999/xlink">
<g id="graph0" class="graph" transform="scale(1 1) rotate(0) translate(4 42)">
<title>hilera</title>
<polygon fill="white" stroke="white" points="-4,5 -4,-42 153,-42 153,5 -4,5"/>
<!-- Node1 -->
<g id="node1" class="node"><title>Node1</title>
<polygon fill="#bfbfbf" stroke="black" points="0,-0.5 0,-19.5 40,-19.5 40,-0.5 0,-0.5"/>
<text text-anchor="middle" x="20" y="-7.5" font-family="Helvetica,sans-Serif" font-size="10.00">hilera</text>
</g>
<!-- Node1&#45;&gt;Node1 -->
<g id="edge3" class="edge"><title>Node1&#45;&gt;Node1</title>
<path fill="none" stroke="midnightblue" d="M5.82013,-19.7571C-1.07819,-28.5653 3.64844,-38 20,-38 30.2197,-38 35.8985,-34.3146 37.0362,-29.4"/>
<polygon fill="midnightblue" stroke="midnightblue" points="40.3759,-28.3512 34.1799,-19.7571 33.6642,-30.3393 40.3759,-28.3512"/>
</g>
<!-- Node2 -->
<g id="node2" class="node"><title>Node2</title>
<g id="a_node2"><a xlink:href="../../d0/d58/_back_end_8c.html#a2282e1ad01efd232ad71f53149715428" target="_top" xlink:title="validarHilera">
<polygon fill="white" stroke="black" points="76.5,-0.5 76.5,-19.5 147.5,-19.5 147.5,-0.5 76.5,-0.5"/>
<text text-anchor="middle" x="112" y="-7.5" font-family="Helvetica,sans-Serif" font-size="10.00">validarHilera</text>
</a>
</g>
</g>
<!-- Node1&#45;&gt;Node2 -->
<g id="edge1" class="edge"><title>Node1&#45;&gt;Node2</title>
<path fill="none" stroke="midnightblue" d="M40.0867,-4.36401C47.7346,-3.61979 56.8974,-3.24846 66.057,-3.25"/>
<polygon fill="midnightblue" stroke="midnightblue" points="66.2628,-6.75355 76.3163,-3.41019 66.3722,0.245597 66.2628,-6.75355"/>
</g>
<!-- Node2&#45;&gt;Node1 -->
<g id="edge2" class="edge"><title>Node2&#45;&gt;Node1</title>
<path fill="none" stroke="midnightblue" d="M76.3163,-16.5898C67.6625,-16.8629 58.4707,-16.7868 50.1168,-16.3615"/>
<polygon fill="midnightblue" stroke="midnightblue" points="50.3132,-12.8666 40.0867,-15.636 49.8081,-19.8484 50.3132,-12.8666"/>
</g>
</g>
</svg>
