<?xml version="1.0" encoding="UTF-8" standalone="no"?>
<!DOCTYPE svg PUBLIC "-//W3C//DTD SVG 1.1//EN"
 "http://www.w3.org/Graphics/SVG/1.1/DTD/svg11.dtd">
<!-- Generated by graphviz version 2.31.20130601.0447 (20130601.0447)
 -->
<!-- Title: columna Pages: 1 -->
<svg width="182pt" height="46pt"
 viewBox="0.00 0.00 182.00 46.00" xmlns="http://www.w3.org/2000/svg" xmlns:xlink="http://www.w3.org/1999/xlink">
<g id="graph0" class="graph" transform="scale(1 1) rotate(0) translate(4 42)">
<title>columna</title>
<polygon fill="white" stroke="white" points="-4,5 -4,-42 179,-42 179,5 -4,5"/>
<!-- Node1 -->
<g id="node1" class="node"><title>Node1</title>
<polygon fill="#bfbfbf" stroke="black" points="0.5,-0.5 0.5,-19.5 53.5,-19.5 53.5,-0.5 0.5,-0.5"/>
<text text-anchor="middle" x="27" y="-7.5" font-family="Helvetica,sans-Serif" font-size="10.00">columna</text>
</g>
<!-- Node1&#45;&gt;Node1 -->
<g id="edge3" class="edge"><title>Node1&#45;&gt;Node1</title>
<path fill="none" stroke="midnightblue" d="M10.9706,-19.7571C3.17249,-28.5653 8.51562,-38 27,-38 38.5527,-38 44.9722,-34.3146 46.2583,-29.4"/>
<polygon fill="midnightblue" stroke="midnightblue" points="49.5235,-28.1283 43.0294,-19.7571 42.8858,-30.3509 49.5235,-28.1283"/>
</g>
<!-- Node2 -->
<g id="node2" class="node"><title>Node2</title>
<g id="a_node2"><a xlink:href="../../d0/d58/_back_end_8c.html#a46f1634881e03d6ecb9fd358e9c9bacb" target="_top" xlink:title="validarColumna">
<polygon fill="white" stroke="black" points="90,-0.5 90,-19.5 174,-19.5 174,-0.5 90,-0.5"/>
<text text-anchor="middle" x="132" y="-7.5" font-family="Helvetica,sans-Serif" font-size="10.00">validarColumna</text>
</a>
</g>
</g>
<!-- Node1&#45;&gt;Node2 -->
<g id="edge1" class="edge"><title>Node1&#45;&gt;Node2</title>
<path fill="none" stroke="midnightblue" d="M53.7256,-4.06584C61.6914,-3.51533 70.7658,-3.24343 79.8266,-3.25012"/>
<polygon fill="midnightblue" stroke="midnightblue" points="79.9485,-6.7518 89.9911,-3.37606 80.0353,0.247661 79.9485,-6.7518"/>
</g>
<!-- Node2&#45;&gt;Node1 -->
<g id="edge2" class="edge"><title>Node2&#45;&gt;Node1</title>
<path fill="none" stroke="midnightblue" d="M89.9911,-16.6239C81.3861,-16.8334 72.3731,-16.7819 63.9688,-16.4694"/>
<polygon fill="midnightblue" stroke="midnightblue" points="63.8946,-12.9609 53.7256,-15.9342 63.5293,-19.9513 63.8946,-12.9609"/>
</g>
</g>
</svg>
