<?xml version="1.0" encoding="UTF-8" standalone="no"?>
<!DOCTYPE svg PUBLIC "-//W3C//DTD SVG 1.1//EN"
 "http://www.w3.org/Graphics/SVG/1.1/DTD/svg11.dtd">
<!-- Generated by graphviz version 2.31.20130601.0447 (20130601.0447)
 -->
<!-- Title: validarHilera Pages: 1 -->
<svg width="156pt" height="46pt"
 viewBox="0.00 0.00 156.00 46.00" xmlns="http://www.w3.org/2000/svg" xmlns:xlink="http://www.w3.org/1999/xlink">
<g id="graph0" class="graph" transform="scale(1 1) rotate(0) translate(4 42)">
<title>validarHilera</title>
<polygon fill="white" stroke="white" points="-4,5 -4,-42 153,-42 153,5 -4,5"/>
<!-- Node1 -->
<g id="node1" class="node"><title>Node1</title>
<polygon fill="#bfbfbf" stroke="black" points="0.5,-0.5 0.5,-19.5 71.5,-19.5 71.5,-0.5 0.5,-0.5"/>
<text text-anchor="middle" x="36" y="-7.5" font-family="Helvetica,sans-Serif" font-size="10.00">validarHilera</text>
</g>
<!-- Node2 -->
<g id="node2" class="node"><title>Node2</title>
<g id="a_node2"><a xlink:href="../../d0/d58/_back_end_8c.html#a09a5d17b0315f47960b4c7228eb060f3" target="_top" xlink:title="hilera">
<polygon fill="white" stroke="black" points="108,-0.5 108,-19.5 148,-19.5 148,-0.5 108,-0.5"/>
<text text-anchor="middle" x="128" y="-7.5" font-family="Helvetica,sans-Serif" font-size="10.00">hilera</text>
</a>
</g>
</g>
<!-- Node1&#45;&gt;Node2 -->
<g id="edge1" class="edge"><title>Node1&#45;&gt;Node2</title>
<path fill="none" stroke="midnightblue" d="M71.539,-3.41479C80.1829,-3.13791 89.3721,-3.20994 97.7325,-3.63087"/>
<polygon fill="midnightblue" stroke="midnightblue" points="97.5509,-7.12675 107.776,-4.35066 98.0514,-0.144659 97.5509,-7.12675"/>
</g>
<!-- Node2&#45;&gt;Node1 -->
<g id="edge2" class="edge"><title>Node2&#45;&gt;Node1</title>
<path fill="none" stroke="midnightblue" d="M107.776,-15.6493C100.113,-16.3888 90.9457,-16.7556 81.7901,-16.7499"/>
<polygon fill="midnightblue" stroke="midnightblue" points="81.5939,-13.2464 71.539,-16.5852 81.4814,-20.2455 81.5939,-13.2464"/>
</g>
<!-- Node2&#45;&gt;Node2 -->
<g id="edge3" class="edge"><title>Node2&#45;&gt;Node2</title>
<path fill="none" stroke="midnightblue" d="M113.82,-19.7571C106.922,-28.5653 111.648,-38 128,-38 138.22,-38 143.898,-34.3146 145.036,-29.4"/>
<polygon fill="midnightblue" stroke="midnightblue" points="148.376,-28.3512 142.18,-19.7571 141.664,-30.3393 148.376,-28.3512"/>
</g>
</g>
</svg>
