<?xml version="1.0" encoding="UTF-8" standalone="no"?>
<!DOCTYPE svg PUBLIC "-//W3C//DTD SVG 1.1//EN"
 "http://www.w3.org/Graphics/SVG/1.1/DTD/svg11.dtd">
<!-- Generated by graphviz version 2.31.20130601.0447 (20130601.0447)
 -->
<!-- Title: Crear_Nivel Pages: 1 -->
<svg width="322pt" height="104pt"
 viewBox="0.00 0.00 322.00 104.00" xmlns="http://www.w3.org/2000/svg" xmlns:xlink="http://www.w3.org/1999/xlink">
<g id="graph0" class="graph" transform="scale(1 1) rotate(0) translate(4 100)">
<title>Crear_Nivel</title>
<polygon fill="white" stroke="white" points="-4,5 -4,-100 319,-100 319,5 -4,5"/>
<!-- Node1 -->
<g id="node1" class="node"><title>Node1</title>
<polygon fill="#bfbfbf" stroke="black" points="0,-38.5 0,-57.5 68,-57.5 68,-38.5 0,-38.5"/>
<text text-anchor="middle" x="34" y="-45.5" font-family="Helvetica,sans-Serif" font-size="10.00">Crear_Nivel</text>
</g>
<!-- Node2 -->
<g id="node2" class="node"><title>Node2</title>
<g id="a_node2"><a xlink:href="../../d0/d58/_back_end_8c.html#a6d4a41e7bc5f6048526fe21ad6517815" target="_top" xlink:title="bonus">
<polygon fill="white" stroke="black" points="123.5,-76.5 123.5,-95.5 166.5,-95.5 166.5,-76.5 123.5,-76.5"/>
<text text-anchor="middle" x="145" y="-83.5" font-family="Helvetica,sans-Serif" font-size="10.00">bonus</text>
</a>
</g>
</g>
<!-- Node1&#45;&gt;Node2 -->
<g id="edge1" class="edge"><title>Node1&#45;&gt;Node2</title>
<path fill="none" stroke="midnightblue" d="M62.5053,-57.589C78.1735,-63.0513 97.8241,-69.902 113.903,-75.5076"/>
<polygon fill="midnightblue" stroke="midnightblue" points="112.791,-78.8263 123.386,-78.8134 115.095,-72.2165 112.791,-78.8263"/>
</g>
<!-- Node3 -->
<g id="node3" class="node"><title>Node3</title>
<g id="a_node3"><a xlink:href="../../d0/d58/_back_end_8c.html#a30d0a5aa94284ccfc8d3840f436edde7" target="_top" xlink:title="liberarMatriz">
<polygon fill="white" stroke="black" points="110,-38.5 110,-57.5 180,-57.5 180,-38.5 110,-38.5"/>
<text text-anchor="middle" x="145" y="-45.5" font-family="Helvetica,sans-Serif" font-size="10.00">liberarMatriz</text>
</a>
</g>
</g>
<!-- Node1&#45;&gt;Node3 -->
<g id="edge2" class="edge"><title>Node1&#45;&gt;Node3</title>
<path fill="none" stroke="midnightblue" d="M68.2959,-48C78.1565,-48 89.1143,-48 99.5611,-48"/>
<polygon fill="midnightblue" stroke="midnightblue" points="99.7781,-51.5001 109.778,-48 99.7781,-44.5001 99.7781,-51.5001"/>
</g>
<!-- Node4 -->
<g id="node4" class="node"><title>Node4</title>
<g id="a_node4"><a xlink:href="../../d0/d58/_back_end_8c.html#a6d8e745b1bdf6f3ae9502cc947de72ac" target="_top" xlink:title="generarTablero">
<polygon fill="white" stroke="black" points="104.5,-0.5 104.5,-19.5 185.5,-19.5 185.5,-0.5 104.5,-0.5"/>
<text text-anchor="middle" x="145" y="-7.5" font-family="Helvetica,sans-Serif" font-size="10.00">generarTablero</text>
</a>
</g>
</g>
<!-- Node1&#45;&gt;Node4 -->
<g id="edge3" class="edge"><title>Node1&#45;&gt;Node4</title>
<path fill="none" stroke="midnightblue" d="M62.5053,-38.411C75.9307,-33.7306 92.28,-28.0308 106.801,-22.9685"/>
<polygon fill="midnightblue" stroke="midnightblue" points="108.213,-26.1828 116.503,-19.5859 105.909,-19.573 108.213,-26.1828"/>
</g>
<!-- Node5 -->
<g id="node5" class="node"><title>Node5</title>
<g id="a_node5"><a xlink:href="../../d0/d58/_back_end_8c.html#a37f705505d292b616db1c978b42dcee1" target="_top" xlink:title="coloresPresentes">
<polygon fill="white" stroke="black" points="222,-0.5 222,-19.5 314,-19.5 314,-0.5 222,-0.5"/>
<text text-anchor="middle" x="268" y="-7.5" font-family="Helvetica,sans-Serif" font-size="10.00">coloresPresentes</text>
</a>
</g>
</g>
<!-- Node4&#45;&gt;Node5 -->
<g id="edge4" class="edge"><title>Node4&#45;&gt;Node5</title>
<path fill="none" stroke="midnightblue" d="M185.62,-10C193.942,-10 202.866,-10 211.644,-10"/>
<polygon fill="midnightblue" stroke="midnightblue" points="211.837,-13.5001 221.837,-10 211.837,-6.5001 211.837,-13.5001"/>
</g>
</g>
</svg>
