<?xml version="1.0" encoding="UTF-8" standalone="no"?>
<!DOCTYPE svg PUBLIC "-//W3C//DTD SVG 1.1//EN"
 "http://www.w3.org/Graphics/SVG/1.1/DTD/svg11.dtd">
<!-- Generated by graphviz version 2.31.20130601.0447 (20130601.0447)
 -->
<!-- Title: getnum.h Pages: 1 -->
<svg width="147pt" height="84pt"
 viewBox="0.00 0.00 147.00 84.00" xmlns="http://www.w3.org/2000/svg" xmlns:xlink="http://www.w3.org/1999/xlink">
<g id="graph0" class="graph" transform="scale(1 1) rotate(0) translate(4 80)">
<title>getnum.h</title>
<polygon fill="white" stroke="white" points="-4,5 -4,-80 144,-80 144,5 -4,5"/>
<!-- Node1 -->
<g id="node1" class="node"><title>Node1</title>
<polygon fill="#bfbfbf" stroke="black" points="42.5,-56.5 42.5,-75.5 99.5,-75.5 99.5,-56.5 42.5,-56.5"/>
<text text-anchor="middle" x="71" y="-63.5" font-family="Helvetica,sans-Serif" font-size="10.00">getnum.h</text>
</g>
<!-- Node2 -->
<g id="node2" class="node"><title>Node2</title>
<g id="a_node2"><a xlink:href="../../df/d49/_front_end_8c.html" target="_top" xlink:title="FrontEnd.c">
<polygon fill="white" stroke="black" points="-0.5,-0.5 -0.5,-19.5 64.5,-19.5 64.5,-0.5 -0.5,-0.5"/>
<text text-anchor="middle" x="32" y="-7.5" font-family="Helvetica,sans-Serif" font-size="10.00">FrontEnd.c</text>
</a>
</g>
</g>
<!-- Node1&#45;&gt;Node2 -->
<g id="edge1" class="edge"><title>Node1&#45;&gt;Node2</title>
<path fill="none" stroke="midnightblue" d="M58.6178,-47.8554C51.8646,-38.5048 43.7914,-27.3265 38.3202,-19.7511"/>
<polygon fill="midnightblue" stroke="midnightblue" points="55.8676,-50.0254 64.5599,-56.083 61.5424,-45.927 55.8676,-50.0254"/>
</g>
<!-- Node3 -->
<g id="node3" class="node"><title>Node3</title>
<g id="a_node3"><a xlink:href="../../d4/d3f/getnum_8c.html" target="_top" xlink:title="getnum.c">
<polygon fill="white" stroke="black" points="82.5,-0.5 82.5,-19.5 139.5,-19.5 139.5,-0.5 82.5,-0.5"/>
<text text-anchor="middle" x="111" y="-7.5" font-family="Helvetica,sans-Serif" font-size="10.00">getnum.c</text>
</a>
</g>
</g>
<!-- Node1&#45;&gt;Node3 -->
<g id="edge2" class="edge"><title>Node1&#45;&gt;Node3</title>
<path fill="none" stroke="midnightblue" d="M83.6997,-47.8554C90.626,-38.5048 98.9063,-27.3265 104.518,-19.7511"/>
<polygon fill="midnightblue" stroke="midnightblue" points="80.745,-45.9641 77.6052,-56.083 86.37,-50.1307 80.745,-45.9641"/>
</g>
</g>
</svg>
