<?xml version="1.0" encoding="UTF-8" standalone="no"?>
<!DOCTYPE svg PUBLIC "-//W3C//DTD SVG 1.1//EN"
 "http://www.w3.org/Graphics/SVG/1.1/DTD/svg11.dtd">
<!-- Generated by graphviz version 2.31.20130601.0447 (20130601.0447)
 -->
<!-- Title: Proc_Matriz Pages: 1 -->
<svg width="298pt" height="104pt"
 viewBox="0.00 0.00 298.00 104.00" xmlns="http://www.w3.org/2000/svg" xmlns:xlink="http://www.w3.org/1999/xlink">
<g id="graph0" class="graph" transform="scale(1 1) rotate(0) translate(4 100)">
<title>Proc_Matriz</title>
<!-- Node1 -->
<g id="node1" class="node"><title>Node1</title>
<polygon fill="#bfbfbf" stroke="black" points="0.5,-38.5 0.5,-57.5 69.5,-57.5 69.5,-38.5 0.5,-38.5"/>
<text text-anchor="middle" x="35" y="-45.5" font-family="Helvetica,sans-Serif" font-size="10.00">Proc_Matriz</text>
</g>
<!-- Node2 -->
<g id="node2" class="node"><title>Node2</title>
<g id="a_node2"><a xlink:href="../../d0/d58/_back_end_8c.html#a30778fe7f3a7111df0132951b5a8cb9f" target="_top" xlink:title="gravedad">
<polygon fill="none" stroke="black" points="120,-76.5 120,-95.5 176,-95.5 176,-76.5 120,-76.5"/>
<text text-anchor="middle" x="148" y="-83.5" font-family="Helvetica,sans-Serif" font-size="10.00">gravedad</text>
</a>
</g>
</g>
<!-- Node1&#45;&gt;Node2 -->
<g id="edge1" class="edge"><title>Node1&#45;&gt;Node2</title>
<path fill="none" stroke="midnightblue" d="M64.01,-57.589C78.0239,-62.3866 95.1663,-68.2551 110.225,-73.4104"/>
<polygon fill="midnightblue" stroke="midnightblue" points="109.172,-76.7492 119.766,-76.6768 111.439,-70.1265 109.172,-76.7492"/>
</g>
<!-- Node4 -->
<g id="node4" class="node"><title>Node4</title>
<g id="a_node4"><a xlink:href="../../d0/d58/_back_end_8c.html#add1cf658d13603c789cb641681a863cc" target="_top" xlink:title="nullCols">
<polygon fill="none" stroke="black" points="122,-38.5 122,-57.5 174,-57.5 174,-38.5 122,-38.5"/>
<text text-anchor="middle" x="148" y="-45.5" font-family="Helvetica,sans-Serif" font-size="10.00">nullCols</text>
</a>
</g>
</g>
<!-- Node1&#45;&gt;Node4 -->
<g id="edge3" class="edge"><title>Node1&#45;&gt;Node4</title>
<path fill="none" stroke="midnightblue" d="M69.6049,-48C82.8971,-48 98.1848,-48 111.644,-48"/>
<polygon fill="midnightblue" stroke="midnightblue" points="111.973,-51.5001 121.973,-48 111.973,-44.5001 111.973,-51.5001"/>
</g>
<!-- Node5 -->
<g id="node5" class="node"><title>Node5</title>
<g id="a_node5"><a xlink:href="../../d0/d58/_back_end_8c.html#a7966b82c6fb095984645478900337cd4" target="_top" xlink:title="calcularPuntaje">
<polygon fill="none" stroke="black" points="106.5,-0.5 106.5,-19.5 189.5,-19.5 189.5,-0.5 106.5,-0.5"/>
<text text-anchor="middle" x="148" y="-7.5" font-family="Helvetica,sans-Serif" font-size="10.00">calcularPuntaje</text>
</a>
</g>
</g>
<!-- Node1&#45;&gt;Node5 -->
<g id="edge4" class="edge"><title>Node1&#45;&gt;Node5</title>
<path fill="none" stroke="midnightblue" d="M64.01,-38.411C77.6817,-33.7306 94.331,-28.0308 109.118,-22.9685"/>
<polygon fill="midnightblue" stroke="midnightblue" points="110.672,-26.1362 118.999,-19.5859 108.404,-19.5136 110.672,-26.1362"/>
</g>
<!-- Node3 -->
<g id="node3" class="node"><title>Node3</title>
<g id="a_node3"><a xlink:href="../../d0/d58/_back_end_8c.html#af6e26bc55afeec730efa1a694027de82" target="_top" xlink:title="decalarFils">
<polygon fill="none" stroke="black" points="226,-76.5 226,-95.5 290,-95.5 290,-76.5 226,-76.5"/>
<text text-anchor="middle" x="258" y="-83.5" font-family="Helvetica,sans-Serif" font-size="10.00">decalarFils</text>
</a>
</g>
</g>
<!-- Node2&#45;&gt;Node3 -->
<g id="edge2" class="edge"><title>Node2&#45;&gt;Node3</title>
<path fill="none" stroke="midnightblue" d="M176.253,-86C188.185,-86 202.449,-86 215.645,-86"/>
<polygon fill="midnightblue" stroke="midnightblue" points="215.934,-89.5001 225.934,-86 215.934,-82.5001 215.934,-89.5001"/>
</g>
</g>
</svg>
