<?xml version="1.0" encoding="UTF-8" standalone="no"?>
<!DOCTYPE svg PUBLIC "-//W3C//DTD SVG 1.1//EN"
 "http://www.w3.org/Graphics/SVG/1.1/DTD/svg11.dtd">
<!-- Generated by graphviz version 2.31.20130601.0447 (20130601.0447)
 -->
<!-- Title: hilera Pages: 1 -->
<svg width="124pt" height="46pt"
 viewBox="0.00 0.00 124.00 46.00" xmlns="http://www.w3.org/2000/svg" xmlns:xlink="http://www.w3.org/1999/xlink">
<g id="graph0" class="graph" transform="scale(1 1) rotate(0) translate(4 42)">
<title>hilera</title>
<polygon fill="white" stroke="white" points="-4,5 -4,-42 121,-42 121,5 -4,5"/>
<!-- Node1 -->
<g id="node1" class="node"><title>Node1</title>
<polygon fill="#bfbfbf" stroke="black" points="0,-0.5 0,-19.5 40,-19.5 40,-0.5 0,-0.5"/>
<text text-anchor="middle" x="20" y="-7.5" font-family="Helvetica,sans-Serif" font-size="10.00">hilera</text>
</g>
<!-- Node2 -->
<g id="node2" class="node"><title>Node2</title>
<g id="a_node2"><a xlink:href="../../d0/d58/_back_end_8c.html#a09a5d17b0315f47960b4c7228eb060f3" target="_top" xlink:title="hilera">
<polygon fill="white" stroke="black" points="76,-0.5 76,-19.5 116,-19.5 116,-0.5 76,-0.5"/>
<text text-anchor="middle" x="96" y="-7.5" font-family="Helvetica,sans-Serif" font-size="10.00">hilera</text>
</a>
</g>
</g>
<!-- Node1&#45;&gt;Node2 -->
<g id="edge1" class="edge"><title>Node1&#45;&gt;Node2</title>
<path fill="none" stroke="midnightblue" d="M40.0568,-10C47.8507,-10 57.0462,-10 65.6619,-10"/>
<polygon fill="midnightblue" stroke="midnightblue" points="65.7506,-13.5001 75.7505,-10 65.7505,-6.5001 65.7506,-13.5001"/>
</g>
<!-- Node2&#45;&gt;Node2 -->
<g id="edge2" class="edge"><title>Node2&#45;&gt;Node2</title>
<path fill="none" stroke="midnightblue" d="M84.2862,-19.7571C78.5876,-28.5653 82.4922,-38 96,-38 104.231,-38 108.897,-34.4965 109.996,-29.7663"/>
<polygon fill="midnightblue" stroke="midnightblue" points="113.349,-28.7288 107.714,-19.7571 106.524,-30.2849 113.349,-28.7288"/>
</g>
</g>
</svg>
