<?xml version="1.0" encoding="UTF-8" standalone="no"?>
<!DOCTYPE svg PUBLIC "-//W3C//DTD SVG 1.1//EN"
 "http://www.w3.org/Graphics/SVG/1.1/DTD/svg11.dtd">
<!-- Generated by graphviz version 2.31.20130601.0447 (20130601.0447)
 -->
<!-- Title: columna Pages: 1 -->
<svg width="152pt" height="46pt"
 viewBox="0.00 0.00 152.00 46.00" xmlns="http://www.w3.org/2000/svg" xmlns:xlink="http://www.w3.org/1999/xlink">
<g id="graph0" class="graph" transform="scale(1 1) rotate(0) translate(4 42)">
<title>columna</title>
<polygon fill="white" stroke="white" points="-4,5 -4,-42 149,-42 149,5 -4,5"/>
<!-- Node1 -->
<g id="node1" class="node"><title>Node1</title>
<polygon fill="#bfbfbf" stroke="black" points="0.5,-0.5 0.5,-19.5 53.5,-19.5 53.5,-0.5 0.5,-0.5"/>
<text text-anchor="middle" x="27" y="-7.5" font-family="Helvetica,sans-Serif" font-size="10.00">columna</text>
</g>
<!-- Node2 -->
<g id="node2" class="node"><title>Node2</title>
<g id="a_node2"><a xlink:href="../../d0/d58/_back_end_8c.html#a899f99bc3a99d14a7ff1029d4c7c5112" target="_top" xlink:title="columna">
<polygon fill="white" stroke="black" points="90.5,-0.5 90.5,-19.5 143.5,-19.5 143.5,-0.5 90.5,-0.5"/>
<text text-anchor="middle" x="117" y="-7.5" font-family="Helvetica,sans-Serif" font-size="10.00">columna</text>
</a>
</g>
</g>
<!-- Node1&#45;&gt;Node2 -->
<g id="edge1" class="edge"><title>Node1&#45;&gt;Node2</title>
<path fill="none" stroke="midnightblue" d="M53.9269,-10C62.1623,-10 71.4201,-10 80.2226,-10"/>
<polygon fill="midnightblue" stroke="midnightblue" points="80.2584,-13.5001 90.2584,-10 80.2583,-6.5001 80.2584,-13.5001"/>
</g>
<!-- Node2&#45;&gt;Node2 -->
<g id="edge2" class="edge"><title>Node2&#45;&gt;Node2</title>
<path fill="none" stroke="midnightblue" d="M103.128,-19.7571C96.38,-28.5653 101.004,-38 117,-38 126.998,-38 132.553,-34.3146 133.666,-29.4"/>
<polygon fill="midnightblue" stroke="midnightblue" points="137.017,-28.3878 130.872,-19.7571 130.293,-30.3361 137.017,-28.3878"/>
</g>
</g>
</svg>
