<?xml version="1.0" encoding="UTF-8" standalone="no"?>
<!DOCTYPE svg PUBLIC "-//W3C//DTD SVG 1.1//EN"
 "http://www.w3.org/Graphics/SVG/1.1/DTD/svg11.dtd">
<!-- Generated by graphviz version 2.31.20130601.0447 (20130601.0447)
 -->
<!-- Title: AccionesDeJuego Pages: 1 -->
<svg width="492pt" height="710pt"
 viewBox="0.00 0.00 492.00 710.00" xmlns="http://www.w3.org/2000/svg" xmlns:xlink="http://www.w3.org/1999/xlink">
<g id="graph0" class="graph" transform="scale(1 1) rotate(0) translate(4 706)">
<title>AccionesDeJuego</title>
<polygon fill="white" stroke="white" points="-4,5 -4,-706 489,-706 489,5 -4,5"/>
<!-- Node1 -->
<g id="node1" class="node"><title>Node1</title>
<polygon fill="#bfbfbf" stroke="black" points="0,-323.5 0,-342.5 96,-342.5 96,-323.5 0,-323.5"/>
<text text-anchor="middle" x="48" y="-330.5" font-family="Helvetica,sans-Serif" font-size="10.00">AccionesDeJuego</text>
</g>
<!-- Node2 -->
<g id="node2" class="node"><title>Node2</title>
<g id="a_node2"><a xlink:href="../../df/d49/_front_end_8c.html#a031f798e86eaa72898a0db976fc4566d" target="_top" xlink:title="inputString">
<polygon fill="white" stroke="black" points="159.5,-682.5 159.5,-701.5 222.5,-701.5 222.5,-682.5 159.5,-682.5"/>
<text text-anchor="middle" x="191" y="-689.5" font-family="Helvetica,sans-Serif" font-size="10.00">inputString</text>
</a>
</g>
</g>
<!-- Node1&#45;&gt;Node2 -->
<g id="edge1" class="edge"><title>Node1&#45;&gt;Node2</title>
<path fill="none" stroke="midnightblue" d="M50.1113,-342.818C55.9977,-393.196 85.0485,-622.28 132,-673 136.788,-678.172 143.003,-681.939 149.581,-684.682"/>
<polygon fill="midnightblue" stroke="midnightblue" points="148.759,-688.1 159.354,-688.013 151.017,-681.474 148.759,-688.1"/>
</g>
<!-- Node3 -->
<g id="node3" class="node"><title>Node3</title>
<g id="a_node3"><a xlink:href="../../d0/d58/_back_end_8c.html#abb4221a879101cd2370d2d0acc92bf12" target="_top" xlink:title="igualacion">
<polygon fill="white" stroke="black" points="161,-644.5 161,-663.5 221,-663.5 221,-644.5 161,-644.5"/>
<text text-anchor="middle" x="191" y="-651.5" font-family="Helvetica,sans-Serif" font-size="10.00">igualacion</text>
</a>
</g>
</g>
<!-- Node1&#45;&gt;Node3 -->
<g id="edge2" class="edge"><title>Node1&#45;&gt;Node3</title>
<path fill="none" stroke="midnightblue" d="M48.6046,-342.661C47.4596,-383.943 48.5449,-547.408 132,-635 137.226,-640.485 144.057,-644.388 151.189,-647.166"/>
<polygon fill="midnightblue" stroke="midnightblue" points="150.388,-650.584 160.979,-650.297 152.521,-643.917 150.388,-650.584"/>
</g>
<!-- Node4 -->
<g id="node4" class="node"><title>Node4</title>
<g id="a_node4"><a xlink:href="../../d0/d58/_back_end_8c.html#a434fb24763854229cc6eeced2e45b4bd" target="_top" xlink:title="eliminar">
<polygon fill="white" stroke="black" points="166,-606.5 166,-625.5 216,-625.5 216,-606.5 166,-606.5"/>
<text text-anchor="middle" x="191" y="-613.5" font-family="Helvetica,sans-Serif" font-size="10.00">eliminar</text>
</a>
</g>
</g>
<!-- Node1&#45;&gt;Node4 -->
<g id="edge3" class="edge"><title>Node1&#45;&gt;Node4</title>
<path fill="none" stroke="midnightblue" d="M49.055,-342.733C49.8077,-380.883 57.7076,-521.814 132,-597 138.493,-603.571 147.291,-607.871 156.071,-610.683"/>
<polygon fill="midnightblue" stroke="midnightblue" points="155.289,-614.097 165.852,-613.268 157.078,-607.329 155.289,-614.097"/>
</g>
<!-- Node7 -->
<g id="node7" class="node"><title>Node7</title>
<g id="a_node7"><a xlink:href="../../df/d49/_front_end_8c.html#ade56234c677e9f2fddee149cda63a52b" target="_top" xlink:title="printerror">
<polygon fill="white" stroke="black" points="302.5,-399.5 302.5,-418.5 357.5,-418.5 357.5,-399.5 302.5,-399.5"/>
<text text-anchor="middle" x="330" y="-406.5" font-family="Helvetica,sans-Serif" font-size="10.00">printerror</text>
</a>
</g>
</g>
<!-- Node1&#45;&gt;Node7 -->
<g id="edge6" class="edge"><title>Node1&#45;&gt;Node7</title>
<path fill="none" stroke="midnightblue" d="M55.6082,-342.596C68.1345,-359.829 97.2173,-395.481 132,-409 184.786,-429.516 251.706,-423.492 292.391,-416.677"/>
<polygon fill="midnightblue" stroke="midnightblue" points="293.161,-420.095 302.393,-414.897 291.934,-413.204 293.161,-420.095"/>
</g>
<!-- Node8 -->
<g id="node8" class="node"><title>Node8</title>
<g id="a_node8"><a xlink:href="../../d0/d58/_back_end_8c.html#a4567ed9e8cee6392fbb432ba9f36bc47" target="_top" xlink:title="martillazo">
<polygon fill="white" stroke="black" points="161.5,-568.5 161.5,-587.5 220.5,-587.5 220.5,-568.5 161.5,-568.5"/>
<text text-anchor="middle" x="191" y="-575.5" font-family="Helvetica,sans-Serif" font-size="10.00">martillazo</text>
</a>
</g>
</g>
<!-- Node1&#45;&gt;Node8 -->
<g id="edge7" class="edge"><title>Node1&#45;&gt;Node8</title>
<path fill="none" stroke="midnightblue" d="M49.6481,-342.751C52.4784,-377.422 66.7385,-496.009 132,-559 137.451,-564.261 144.382,-568.066 151.54,-570.817"/>
<polygon fill="midnightblue" stroke="midnightblue" points="150.734,-574.234 161.325,-573.953 152.871,-567.568 150.734,-574.234"/>
</g>
<!-- Node10 -->
<g id="node10" class="node"><title>Node10</title>
<g id="a_node10"><a xlink:href="../../d0/d58/_back_end_8c.html#a899f99bc3a99d14a7ff1029d4c7c5112" target="_top" xlink:title="columna">
<polygon fill="white" stroke="black" points="164.5,-512.5 164.5,-531.5 217.5,-531.5 217.5,-512.5 164.5,-512.5"/>
<text text-anchor="middle" x="191" y="-519.5" font-family="Helvetica,sans-Serif" font-size="10.00">columna</text>
</a>
</g>
</g>
<!-- Node1&#45;&gt;Node10 -->
<g id="edge9" class="edge"><title>Node1&#45;&gt;Node10</title>
<path fill="none" stroke="midnightblue" d="M50.9483,-342.692C57.2438,-371.511 79.744,-457.483 132,-503 138.419,-508.591 146.521,-512.544 154.617,-515.337"/>
<polygon fill="midnightblue" stroke="midnightblue" points="153.796,-518.743 164.377,-518.199 155.767,-512.026 153.796,-518.743"/>
</g>
<!-- Node12 -->
<g id="node12" class="node"><title>Node12</title>
<g id="a_node12"><a xlink:href="../../d0/d58/_back_end_8c.html#a09a5d17b0315f47960b4c7228eb060f3" target="_top" xlink:title="hilera">
<polygon fill="white" stroke="black" points="171,-456.5 171,-475.5 211,-475.5 211,-456.5 171,-456.5"/>
<text text-anchor="middle" x="191" y="-463.5" font-family="Helvetica,sans-Serif" font-size="10.00">hilera</text>
</a>
</g>
</g>
<!-- Node1&#45;&gt;Node12 -->
<g id="edge13" class="edge"><title>Node1&#45;&gt;Node12</title>
<path fill="none" stroke="midnightblue" d="M53.9342,-342.51C65.1454,-363.276 94.4965,-413.123 132,-442 140.678,-448.682 151.481,-453.816 161.403,-457.588"/>
<polygon fill="midnightblue" stroke="midnightblue" points="160.326,-460.919 170.921,-460.913 162.635,-454.311 160.326,-460.919"/>
</g>
<!-- Node14 -->
<g id="node14" class="node"><title>Node14</title>
<g id="a_node14"><a xlink:href="../../df/d49/_front_end_8c.html#a639b04a4f1cdc236e6d0ffbd51db0c95" target="_top" xlink:title="validFileName">
<polygon fill="white" stroke="black" points="290.5,-266.5 290.5,-285.5 369.5,-285.5 369.5,-266.5 290.5,-266.5"/>
<text text-anchor="middle" x="330" y="-273.5" font-family="Helvetica,sans-Serif" font-size="10.00">validFileName</text>
</a>
</g>
</g>
<!-- Node1&#45;&gt;Node14 -->
<g id="edge17" class="edge"><title>Node1&#45;&gt;Node14</title>
<path fill="none" stroke="midnightblue" d="M55.6082,-323.404C68.1345,-306.171 97.2173,-270.519 132,-257 185.734,-236.115 253.654,-250.767 294.084,-263.346"/>
<polygon fill="midnightblue" stroke="midnightblue" points="293.153,-266.723 303.745,-266.476 295.311,-260.064 293.153,-266.723"/>
</g>
<!-- Node15 -->
<g id="node15" class="node"><title>Node15</title>
<g id="a_node15"><a xlink:href="../../df/d49/_front_end_8c.html#a6323e80bca186d3d9839b6a470500a98" target="_top" xlink:title="save">
<polygon fill="white" stroke="black" points="172,-342.5 172,-361.5 210,-361.5 210,-342.5 172,-342.5"/>
<text text-anchor="middle" x="191" y="-349.5" font-family="Helvetica,sans-Serif" font-size="10.00">save</text>
</a>
</g>
</g>
<!-- Node1&#45;&gt;Node15 -->
<g id="edge18" class="edge"><title>Node1&#45;&gt;Node15</title>
<path fill="none" stroke="midnightblue" d="M96.3432,-339.38C118.113,-342.313 143.197,-345.693 161.923,-348.217"/>
<polygon fill="midnightblue" stroke="midnightblue" points="161.498,-351.691 171.876,-349.558 162.433,-344.754 161.498,-351.691"/>
</g>
<!-- Node16 -->
<g id="node16" class="node"><title>Node16</title>
<g id="a_node16"><a xlink:href="../../df/d49/_front_end_8c.html#ab10f46bf0cd9897c47a726d653728622" target="_top" xlink:title="compBit_File">
<polygon fill="white" stroke="black" points="154,-304.5 154,-323.5 228,-323.5 228,-304.5 154,-304.5"/>
<text text-anchor="middle" x="191" y="-311.5" font-family="Helvetica,sans-Serif" font-size="10.00">compBit_File</text>
</a>
</g>
</g>
<!-- Node1&#45;&gt;Node16 -->
<g id="edge19" class="edge"><title>Node1&#45;&gt;Node16</title>
<path fill="none" stroke="midnightblue" d="M96.3432,-326.62C111.554,-324.571 128.383,-322.303 143.53,-320.262"/>
<polygon fill="midnightblue" stroke="midnightblue" points="144.265,-323.695 153.708,-318.89 143.33,-316.757 144.265,-323.695"/>
</g>
<!-- Node17 -->
<g id="node17" class="node"><title>Node17</title>
<g id="a_node17"><a xlink:href="../../df/d49/_front_end_8c.html#a465ec56f1287c2830b732ebc5850b9df" target="_top" xlink:title="SaveBitacora">
<polygon fill="white" stroke="black" points="153.5,-380.5 153.5,-399.5 228.5,-399.5 228.5,-380.5 153.5,-380.5"/>
<text text-anchor="middle" x="191" y="-387.5" font-family="Helvetica,sans-Serif" font-size="10.00">SaveBitacora</text>
</a>
</g>
</g>
<!-- Node1&#45;&gt;Node17 -->
<g id="edge20" class="edge"><title>Node1&#45;&gt;Node17</title>
<path fill="none" stroke="midnightblue" d="M68.1877,-342.533C84.8419,-350.626 109.714,-362.28 132,-371 137.5,-373.152 143.354,-375.267 149.147,-377.26"/>
<polygon fill="midnightblue" stroke="midnightblue" points="148.173,-380.625 158.767,-380.483 150.397,-373.988 148.173,-380.625"/>
</g>
<!-- Node18 -->
<g id="node18" class="node"><title>Node18</title>
<g id="a_node18"><a xlink:href="../../df/d49/_front_end_8c.html#a34256005c9f46eff46dddfaf74a73427" target="_top" xlink:title="PedirNombreValido">
<polygon fill="white" stroke="black" points="140.5,-266.5 140.5,-285.5 241.5,-285.5 241.5,-266.5 140.5,-266.5"/>
<text text-anchor="middle" x="191" y="-273.5" font-family="Helvetica,sans-Serif" font-size="10.00">PedirNombreValido</text>
</a>
</g>
</g>
<!-- Node1&#45;&gt;Node18 -->
<g id="edge22" class="edge"><title>Node1&#45;&gt;Node18</title>
<path fill="none" stroke="midnightblue" d="M68.1877,-323.467C84.8419,-315.374 109.714,-303.72 132,-295 137.5,-292.848 143.354,-290.733 149.147,-288.74"/>
<polygon fill="midnightblue" stroke="midnightblue" points="150.397,-292.012 158.767,-285.517 148.173,-285.375 150.397,-292.012"/>
</g>
<!-- Node19 -->
<g id="node19" class="node"><title>Node19</title>
<g id="a_node19"><a xlink:href="../../d0/d58/_back_end_8c.html#a72ac91bcdb1237ef5c5e2e8075f420a4" target="_top" xlink:title="Proc_Matriz">
<polygon fill="white" stroke="black" points="156.5,-190.5 156.5,-209.5 225.5,-209.5 225.5,-190.5 156.5,-190.5"/>
<text text-anchor="middle" x="191" y="-197.5" font-family="Helvetica,sans-Serif" font-size="10.00">Proc_Matriz</text>
</a>
</g>
</g>
<!-- Node1&#45;&gt;Node19 -->
<g id="edge24" class="edge"><title>Node1&#45;&gt;Node19</title>
<path fill="none" stroke="midnightblue" d="M53.9342,-323.49C65.1454,-302.724 94.4965,-252.877 132,-224 137.156,-220.03 143.063,-216.606 149.09,-213.689"/>
<polygon fill="midnightblue" stroke="midnightblue" points="150.825,-216.75 158.568,-209.518 148.006,-210.343 150.825,-216.75"/>
</g>
<!-- Node24 -->
<g id="node24" class="node"><title>Node24</title>
<g id="a_node24"><a xlink:href="../../d0/d58/_back_end_8c.html#ad99bc99a3768cdc89f074ba8d5c5fd65" target="_top" xlink:title="nivelTerminado">
<polygon fill="white" stroke="black" points="149.5,-152.5 149.5,-171.5 232.5,-171.5 232.5,-152.5 149.5,-152.5"/>
<text text-anchor="middle" x="191" y="-159.5" font-family="Helvetica,sans-Serif" font-size="10.00">nivelTerminado</text>
</a>
</g>
</g>
<!-- Node1&#45;&gt;Node24 -->
<g id="edge29" class="edge"><title>Node1&#45;&gt;Node24</title>
<path fill="none" stroke="midnightblue" d="M51.5885,-323.19C59.1762,-296.34 83.9178,-220.99 132,-181 134.525,-178.9 137.29,-177.029 140.198,-175.364"/>
<polygon fill="midnightblue" stroke="midnightblue" points="141.796,-178.479 149.26,-170.959 138.736,-172.183 141.796,-178.479"/>
</g>
<!-- Node25 -->
<g id="node25" class="node"><title>Node25</title>
<g id="a_node25"><a xlink:href="../../df/d49/_front_end_8c.html#aa2c9f30c45a8afbc629eca6c5866cc00" target="_top" xlink:title="resultadoFindelNivel">
<polygon fill="white" stroke="black" points="138.5,-114.5 138.5,-133.5 243.5,-133.5 243.5,-114.5 138.5,-114.5"/>
<text text-anchor="middle" x="191" y="-121.5" font-family="Helvetica,sans-Serif" font-size="10.00">resultadoFindelNivel</text>
</a>
</g>
</g>
<!-- Node1&#45;&gt;Node25 -->
<g id="edge30" class="edge"><title>Node1&#45;&gt;Node25</title>
<path fill="none" stroke="midnightblue" d="M50.4364,-323.084C55.4814,-291.857 75.2643,-194.572 132,-143 133.72,-141.436 135.571,-140.001 137.518,-138.684"/>
<polygon fill="midnightblue" stroke="midnightblue" points="139.539,-141.565 146.562,-133.632 136.125,-135.454 139.539,-141.565"/>
</g>
<!-- Node26 -->
<g id="node26" class="node"><title>Node26</title>
<g id="a_node26"><a xlink:href="../../d0/d58/_back_end_8c.html#a77f81f8f05fac2b77ac925185e15ae1c" target="_top" xlink:title="analisisMatriz">
<polygon fill="white" stroke="black" points="152.5,-76.5 152.5,-95.5 229.5,-95.5 229.5,-76.5 152.5,-76.5"/>
<text text-anchor="middle" x="191" y="-83.5" font-family="Helvetica,sans-Serif" font-size="10.00">analisisMatriz</text>
</a>
</g>
</g>
<!-- Node1&#45;&gt;Node26 -->
<g id="edge31" class="edge"><title>Node1&#45;&gt;Node26</title>
<path fill="none" stroke="midnightblue" d="M49.619,-323.164C52.3508,-288.194 66.3196,-168.576 132,-105 135.257,-101.847 139.045,-99.2176 143.096,-97.0243"/>
<polygon fill="midnightblue" stroke="midnightblue" points="144.601,-100.185 152.28,-92.886 141.725,-93.8034 144.601,-100.185"/>
</g>
<!-- Node28 -->
<g id="node28" class="node"><title>Node28</title>
<g id="a_node28"><a xlink:href="../../df/d49/_front_end_8c.html#a9ef75758f3b47f3c2639f7bb586d0375" target="_top" xlink:title="imprimeTablero">
<polygon fill="white" stroke="black" points="149.5,-38.5 149.5,-57.5 232.5,-57.5 232.5,-38.5 149.5,-38.5"/>
<text text-anchor="middle" x="191" y="-45.5" font-family="Helvetica,sans-Serif" font-size="10.00">imprimeTablero</text>
</a>
</g>
</g>
<!-- Node1&#45;&gt;Node28 -->
<g id="edge33" class="edge"><title>Node1&#45;&gt;Node28</title>
<path fill="none" stroke="midnightblue" d="M49.025,-323.455C49.6523,-285.408 57.1069,-142.958 132,-67 134.493,-64.4712 137.328,-62.2789 140.372,-60.3783"/>
<polygon fill="midnightblue" stroke="midnightblue" points="142.089,-63.4311 149.394,-55.7572 138.898,-57.2008 142.089,-63.4311"/>
</g>
<!-- Node31 -->
<g id="node31" class="node"><title>Node31</title>
<g id="a_node31"><a xlink:href="../../df/d49/_front_end_8c.html#a99f4a365d05d0d035bf72f78397effca" target="_top" xlink:title="GuardarAccionBitacora">
<polygon fill="white" stroke="black" points="132.5,-0.5 132.5,-19.5 249.5,-19.5 249.5,-0.5 132.5,-0.5"/>
<text text-anchor="middle" x="191" y="-7.5" font-family="Helvetica,sans-Serif" font-size="10.00">GuardarAccionBitacora</text>
</a>
</g>
</g>
<!-- Node1&#45;&gt;Node31 -->
<g id="edge36" class="edge"><title>Node1&#45;&gt;Node31</title>
<path fill="none" stroke="midnightblue" d="M48.582,-323.276C47.3445,-281.727 48.1051,-117.202 132,-29 133.397,-27.5317 134.908,-26.1767 136.51,-24.9263"/>
<polygon fill="midnightblue" stroke="midnightblue" points="138.541,-27.7839 145.153,-19.5057 134.822,-21.8536 138.541,-27.7839"/>
</g>
<!-- Node5 -->
<g id="node5" class="node"><title>Node5</title>
<g id="a_node5"><a xlink:href="../../d0/d58/_back_end_8c.html#ae6a7cdeddbc37697910cb072a1b0b7c2" target="_top" xlink:title="validarEliminar">
<polygon fill="white" stroke="black" points="290,-644.5 290,-663.5 370,-663.5 370,-644.5 290,-644.5"/>
<text text-anchor="middle" x="330" y="-651.5" font-family="Helvetica,sans-Serif" font-size="10.00">validarEliminar</text>
</a>
</g>
</g>
<!-- Node4&#45;&gt;Node5 -->
<g id="edge4" class="edge"><title>Node4&#45;&gt;Node5</title>
<path fill="none" stroke="midnightblue" d="M216.177,-622.706C235.114,-627.959 261.971,-635.408 284.731,-641.721"/>
<polygon fill="midnightblue" stroke="midnightblue" points="283.955,-645.138 294.527,-644.438 285.826,-638.392 283.955,-645.138"/>
</g>
<!-- Node6 -->
<g id="node6" class="node"><title>Node6</title>
<g id="a_node6"><a xlink:href="../../d0/d58/_back_end_8c.html#a173f42259c2058a7251f21420b9bac1b" target="_top" xlink:title="elimAd">
<polygon fill="white" stroke="black" points="306.5,-606.5 306.5,-625.5 353.5,-625.5 353.5,-606.5 306.5,-606.5"/>
<text text-anchor="middle" x="330" y="-613.5" font-family="Helvetica,sans-Serif" font-size="10.00">elimAd</text>
</a>
</g>
</g>
<!-- Node4&#45;&gt;Node6 -->
<g id="edge5" class="edge"><title>Node4&#45;&gt;Node6</title>
<path fill="none" stroke="midnightblue" d="M216.177,-616C238.393,-616 271.508,-616 296.122,-616"/>
<polygon fill="midnightblue" stroke="midnightblue" points="296.428,-619.5 306.428,-616 296.428,-612.5 296.428,-619.5"/>
</g>
<!-- Node9 -->
<g id="node9" class="node"><title>Node9</title>
<g id="a_node9"><a xlink:href="../../d0/d58/_back_end_8c.html#a818bbb097438668351dadec2823c7ba7" target="_top" xlink:title="validarMartillazo">
<polygon fill="white" stroke="black" points="286.5,-568.5 286.5,-587.5 373.5,-587.5 373.5,-568.5 286.5,-568.5"/>
<text text-anchor="middle" x="330" y="-575.5" font-family="Helvetica,sans-Serif" font-size="10.00">validarMartillazo</text>
</a>
</g>
</g>
<!-- Node8&#45;&gt;Node9 -->
<g id="edge8" class="edge"><title>Node8&#45;&gt;Node9</title>
<path fill="none" stroke="midnightblue" d="M220.72,-578C236.741,-578 257.205,-578 276.02,-578"/>
<polygon fill="midnightblue" stroke="midnightblue" points="276.264,-581.5 286.264,-578 276.264,-574.5 276.264,-581.5"/>
</g>
<!-- Node10&#45;&gt;Node10 -->
<g id="edge12" class="edge"><title>Node10&#45;&gt;Node10</title>
<path fill="none" stroke="midnightblue" d="M169.73,-531.757C159.383,-540.565 166.473,-550 191,-550 206.713,-550 215.269,-546.128 216.67,-541.029"/>
<polygon fill="midnightblue" stroke="midnightblue" points="219.719,-539.291 212.27,-531.757 213.395,-542.292 219.719,-539.291"/>
</g>
<!-- Node11 -->
<g id="node11" class="node"><title>Node11</title>
<g id="a_node11"><a xlink:href="../../d0/d58/_back_end_8c.html#a46f1634881e03d6ecb9fd358e9c9bacb" target="_top" xlink:title="validarColumna">
<polygon fill="white" stroke="black" points="288,-512.5 288,-531.5 372,-531.5 372,-512.5 288,-512.5"/>
<text text-anchor="middle" x="330" y="-519.5" font-family="Helvetica,sans-Serif" font-size="10.00">validarColumna</text>
</a>
</g>
</g>
<!-- Node10&#45;&gt;Node11 -->
<g id="edge10" class="edge"><title>Node10&#45;&gt;Node11</title>
<path fill="none" stroke="midnightblue" d="M217.769,-516.589C234.677,-515.355 257.369,-514.974 277.847,-515.446"/>
<polygon fill="midnightblue" stroke="midnightblue" points="277.895,-518.949 287.998,-515.759 278.111,-511.953 277.895,-518.949"/>
</g>
<!-- Node11&#45;&gt;Node10 -->
<g id="edge11" class="edge"><title>Node11&#45;&gt;Node10</title>
<path fill="none" stroke="midnightblue" d="M287.998,-528.241C268.853,-528.988 246.271,-528.913 227.821,-528.015"/>
<polygon fill="midnightblue" stroke="midnightblue" points="227.96,-524.517 217.769,-527.411 227.541,-531.504 227.96,-524.517"/>
</g>
<!-- Node12&#45;&gt;Node12 -->
<g id="edge16" class="edge"><title>Node12&#45;&gt;Node12</title>
<path fill="none" stroke="midnightblue" d="M170.81,-474.888C158.934,-483.933 165.664,-494 191,-494 208.418,-494 217.043,-489.242 216.873,-483.329"/>
<polygon fill="midnightblue" stroke="midnightblue" points="219.678,-481.229 211.19,-474.888 213.871,-485.138 219.678,-481.229"/>
</g>
<!-- Node13 -->
<g id="node13" class="node"><title>Node13</title>
<g id="a_node13"><a xlink:href="../../d0/d58/_back_end_8c.html#a2282e1ad01efd232ad71f53149715428" target="_top" xlink:title="validarHilera">
<polygon fill="white" stroke="black" points="294.5,-456.5 294.5,-475.5 365.5,-475.5 365.5,-456.5 294.5,-456.5"/>
<text text-anchor="middle" x="330" y="-463.5" font-family="Helvetica,sans-Serif" font-size="10.00">validarHilera</text>
</a>
</g>
</g>
<!-- Node12&#45;&gt;Node13 -->
<g id="edge14" class="edge"><title>Node12&#45;&gt;Node13</title>
<path fill="none" stroke="midnightblue" d="M211.049,-461.155C229.834,-459.328 259.244,-458.815 283.996,-459.616"/>
<polygon fill="midnightblue" stroke="midnightblue" points="284.138,-463.125 294.274,-460.04 284.427,-456.131 284.138,-463.125"/>
</g>
<!-- Node13&#45;&gt;Node12 -->
<g id="edge15" class="edge"><title>Node13&#45;&gt;Node12</title>
<path fill="none" stroke="midnightblue" d="M294.274,-471.96C271.68,-473.11 242.548,-473.004 221.159,-471.643"/>
<polygon fill="midnightblue" stroke="midnightblue" points="221.294,-468.143 211.049,-470.845 220.743,-475.121 221.294,-468.143"/>
</g>
<!-- Node17&#45;&gt;Node7 -->
<g id="edge21" class="edge"><title>Node17&#45;&gt;Node7</title>
<path fill="none" stroke="midnightblue" d="M228.713,-395.092C248.332,-397.812 272.419,-401.153 292.07,-403.878"/>
<polygon fill="midnightblue" stroke="midnightblue" points="291.797,-407.374 302.183,-405.281 292.759,-400.44 291.797,-407.374"/>
</g>
<!-- Node18&#45;&gt;Node14 -->
<g id="edge23" class="edge"><title>Node18&#45;&gt;Node14</title>
<path fill="none" stroke="midnightblue" d="M241.848,-276C254.28,-276 267.6,-276 279.991,-276"/>
<polygon fill="midnightblue" stroke="midnightblue" points="280.142,-279.5 290.142,-276 280.142,-272.5 280.142,-279.5"/>
</g>
<!-- Node20 -->
<g id="node20" class="node"><title>Node20</title>
<g id="a_node20"><a xlink:href="../../d0/d58/_back_end_8c.html#a30778fe7f3a7111df0132951b5a8cb9f" target="_top" xlink:title="gravedad">
<polygon fill="white" stroke="black" points="302,-228.5 302,-247.5 358,-247.5 358,-228.5 302,-228.5"/>
<text text-anchor="middle" x="330" y="-235.5" font-family="Helvetica,sans-Serif" font-size="10.00">gravedad</text>
</a>
</g>
</g>
<!-- Node19&#45;&gt;Node20 -->
<g id="edge25" class="edge"><title>Node19&#45;&gt;Node20</title>
<path fill="none" stroke="midnightblue" d="M225.514,-209.296C245.665,-214.885 271.337,-222.006 292.07,-227.757"/>
<polygon fill="midnightblue" stroke="midnightblue" points="291.234,-231.157 301.805,-230.457 293.105,-224.411 291.234,-231.157"/>
</g>
<!-- Node22 -->
<g id="node22" class="node"><title>Node22</title>
<g id="a_node22"><a xlink:href="../../d0/d58/_back_end_8c.html#add1cf658d13603c789cb641681a863cc" target="_top" xlink:title="nullCols">
<polygon fill="white" stroke="black" points="304,-190.5 304,-209.5 356,-209.5 356,-190.5 304,-190.5"/>
<text text-anchor="middle" x="330" y="-197.5" font-family="Helvetica,sans-Serif" font-size="10.00">nullCols</text>
</a>
</g>
</g>
<!-- Node19&#45;&gt;Node22 -->
<g id="edge27" class="edge"><title>Node19&#45;&gt;Node22</title>
<path fill="none" stroke="midnightblue" d="M225.514,-200C246.251,-200 272.835,-200 293.866,-200"/>
<polygon fill="midnightblue" stroke="midnightblue" points="293.995,-203.5 303.995,-200 293.995,-196.5 293.995,-203.5"/>
</g>
<!-- Node23 -->
<g id="node23" class="node"><title>Node23</title>
<g id="a_node23"><a xlink:href="../../d0/d58/_back_end_8c.html#a7966b82c6fb095984645478900337cd4" target="_top" xlink:title="calcularPuntaje">
<polygon fill="white" stroke="black" points="288.5,-152.5 288.5,-171.5 371.5,-171.5 371.5,-152.5 288.5,-152.5"/>
<text text-anchor="middle" x="330" y="-159.5" font-family="Helvetica,sans-Serif" font-size="10.00">calcularPuntaje</text>
</a>
</g>
</g>
<!-- Node19&#45;&gt;Node23 -->
<g id="edge28" class="edge"><title>Node19&#45;&gt;Node23</title>
<path fill="none" stroke="midnightblue" d="M225.514,-190.704C243.323,-185.764 265.444,-179.629 284.657,-174.299"/>
<polygon fill="midnightblue" stroke="midnightblue" points="285.701,-177.642 294.401,-171.597 283.83,-170.897 285.701,-177.642"/>
</g>
<!-- Node21 -->
<g id="node21" class="node"><title>Node21</title>
<g id="a_node21"><a xlink:href="../../d0/d58/_back_end_8c.html#af6e26bc55afeec730efa1a694027de82" target="_top" xlink:title="decalarFils">
<polygon fill="white" stroke="black" points="415,-228.5 415,-247.5 479,-247.5 479,-228.5 415,-228.5"/>
<text text-anchor="middle" x="447" y="-235.5" font-family="Helvetica,sans-Serif" font-size="10.00">decalarFils</text>
</a>
</g>
</g>
<!-- Node20&#45;&gt;Node21 -->
<g id="edge26" class="edge"><title>Node20&#45;&gt;Node21</title>
<path fill="none" stroke="midnightblue" d="M358.253,-238C372.069,-238 389.141,-238 404.543,-238"/>
<polygon fill="midnightblue" stroke="midnightblue" points="404.879,-241.5 414.879,-238 404.879,-234.5 404.879,-241.5"/>
</g>
<!-- Node27 -->
<g id="node27" class="node"><title>Node27</title>
<g id="a_node27"><a xlink:href="../../d0/d58/_back_end_8c.html#ac7c84a2ee121281c8f0d9c49c3dbb58e" target="_top" xlink:title="algunAdyacente">
<polygon fill="white" stroke="black" points="287,-76.5 287,-95.5 373,-95.5 373,-76.5 287,-76.5"/>
<text text-anchor="middle" x="330" y="-83.5" font-family="Helvetica,sans-Serif" font-size="10.00">algunAdyacente</text>
</a>
</g>
</g>
<!-- Node26&#45;&gt;Node27 -->
<g id="edge32" class="edge"><title>Node26&#45;&gt;Node27</title>
<path fill="none" stroke="midnightblue" d="M229.799,-86C244.352,-86 261.236,-86 276.904,-86"/>
<polygon fill="midnightblue" stroke="midnightblue" points="276.988,-89.5001 286.988,-86 276.988,-82.5001 276.988,-89.5001"/>
</g>
<!-- Node29 -->
<g id="node29" class="node"><title>Node29</title>
<g id="a_node29"><a xlink:href="../../df/d49/_front_end_8c.html#ad30237987566e160cc3530480d4514fc" target="_top" xlink:title="imprimirColor">
<polygon fill="white" stroke="black" points="293,-38.5 293,-57.5 367,-57.5 367,-38.5 293,-38.5"/>
<text text-anchor="middle" x="330" y="-45.5" font-family="Helvetica,sans-Serif" font-size="10.00">imprimirColor</text>
</a>
</g>
</g>
<!-- Node28&#45;&gt;Node29 -->
<g id="edge34" class="edge"><title>Node28&#45;&gt;Node29</title>
<path fill="none" stroke="midnightblue" d="M232.734,-48C248.391,-48 266.379,-48 282.536,-48"/>
<polygon fill="midnightblue" stroke="midnightblue" points="282.847,-51.5001 292.847,-48 282.847,-44.5001 282.847,-51.5001"/>
</g>
<!-- Node30 -->
<g id="node30" class="node"><title>Node30</title>
<g id="a_node30"><a xlink:href="../../d0/d58/_back_end_8c.html#ac5da14380ebbd7eb58146932f909ec19" target="_top" xlink:title="cambiarColor">
<polygon fill="white" stroke="black" points="410,-38.5 410,-57.5 484,-57.5 484,-38.5 410,-38.5"/>
<text text-anchor="middle" x="447" y="-45.5" font-family="Helvetica,sans-Serif" font-size="10.00">cambiarColor</text>
</a>
</g>
</g>
<!-- Node29&#45;&gt;Node30 -->
<g id="edge35" class="edge"><title>Node29&#45;&gt;Node30</title>
<path fill="none" stroke="midnightblue" d="M367.071,-48C377.354,-48 388.704,-48 399.515,-48"/>
<polygon fill="midnightblue" stroke="midnightblue" points="399.661,-51.5001 409.661,-48 399.661,-44.5001 399.661,-51.5001"/>
</g>
</g>
</svg>
